<svg width="347" height="200" viewBox="0 0 347 200" fill="none" xmlns="http://www.w3.org/2000/svg">
<g clip-path="url(#clip0_196_5674)">
<path d="M22.8986 172.101C22.8986 177.899 25.7972 180.87 37.6812 181.739C49.5653 182.609 54.2754 185.217 50.9421 186.304C47.6088 187.391 34.058 186.449 31.0146 191.739C27.9711 196.957 40.145 199.783 55.6522 199.783C71.1595 199.783 136.522 199.783 158.116 199.783C179.71 199.783 197.029 195.58 197.029 188.913C197.029 182.246 184.565 181.232 179.42 178.768C174.275 176.304 177.319 170 187.319 170C197.319 170 211.667 170 221.087 170C230.507 170 232.609 174.928 226.232 175.942C219.855 176.957 218.623 185.073 233.841 185.073C249.058 185.073 287.029 185.073 301.667 185.073C316.304 185.073 324.203 176.667 317.174 170.725C310.145 164.783 315.073 161.304 325.362 159.855C335.725 158.478 346.015 157.391 346.015 148.333C346.015 139.275 329.928 136.087 318.044 136.087C306.159 136.087 301.015 133.261 301.015 129.42C301.015 125.58 295.217 122.754 277.029 122.754C258.841 122.754 169.71 122.754 125.87 122.754C82.029 122.754 85.145 122.754 76.3769 122.754C67.6088 122.754 62.8261 130.435 69.058 133.478C75.3624 136.522 82.4638 133.261 84.058 138.841C85.6522 144.42 82.029 145.362 69.2754 145.362C56.5218 145.362 44.7827 145.362 35.6522 145.362C8.47832 145.362 8.26093 159.855 25.7247 159.855C36.3044 159.855 22.8986 166.377 22.8986 172.101Z" fill="#2A2A2A"/>
<path d="M12.826 194.927C19.7896 194.927 25.4347 193.111 25.4347 190.869C25.4347 188.628 19.7896 186.812 12.826 186.812C5.86239 186.812 0.217285 188.628 0.217285 190.869C0.217285 193.111 5.86239 194.927 12.826 194.927Z" fill="#2A2A2A"/>
<path d="M208.986 184.275C213.948 184.275 217.971 182.978 217.971 181.377C217.971 179.776 213.948 178.478 208.986 178.478C204.023 178.478 200 179.776 200 181.377C200 182.978 204.023 184.275 208.986 184.275Z" fill="#2A2A2A"/>
<path d="M333.333 168.188C338.296 168.188 342.319 166.891 342.319 165.29C342.319 163.689 338.296 162.391 333.333 162.391C328.371 162.391 324.348 163.689 324.348 165.29C324.348 166.891 328.371 168.188 333.333 168.188Z" fill="#2A2A2A"/>
<path d="M162.318 66.8842C162.318 66.8842 157.029 57.4639 160.942 55.2175C164.855 52.9711 169.203 57.319 169.203 57.319C169.203 57.319 164.782 47.1016 169.855 44.0581C174.927 41.0146 183.043 52.0291 183.043 52.0291L162.318 66.8842Z" fill="#BB9436"/>
<path d="M183.043 54.0582C183.043 54.0582 176.014 42.8987 182.319 40.1451C186.449 38.3335 192.971 45.3625 192.971 45.3625C192.971 45.3625 190.217 38.8408 195.652 36.5944C201.087 34.348 205.797 43.406 205.797 43.406L183.043 54.0582Z" fill="#D8AB3E"/>
<path d="M40.7971 121.812C40.7971 121.812 37.4637 114.276 40.5797 112.899C43.6956 111.522 46.7391 115.073 46.7391 115.073C46.7391 115.073 44.1304 107.029 48.1884 105.073C52.2464 103.116 57.6087 112.029 57.6087 112.029L40.7971 121.812Z" fill="#BB9436"/>
<path d="M57.3914 113.768C57.3914 113.768 54.1306 103.334 57.4639 102.392C60.7972 101.45 64.203 107.971 64.203 107.971C64.203 107.971 63.1161 100.507 67.3914 99.2032C71.6668 97.8988 75.3624 106.594 75.3624 106.594L57.3914 113.768Z" fill="#D8AB3E"/>
<path d="M270 63.9131C270 63.9131 274.855 57.6087 277.536 59.6377C280.144 61.6667 278.478 65.8696 278.478 65.8696C278.478 65.8696 284.13 59.9276 287.681 62.4638C291.231 65.0001 286.086 73.6957 286.086 73.6957L270 63.9131Z" fill="#BB9436"/>
<path d="M284.637 73.6957C284.637 73.6957 292.029 66.1595 294.347 68.5508C296.666 70.9421 292.753 76.8841 292.753 76.8841C292.753 76.8841 298.623 72.5363 301.739 75.5797C304.855 78.6232 299.13 85.7971 299.13 85.7971L284.637 73.6957Z" fill="#D8AB3E"/>
<path d="M325.652 152.754C324.565 153.116 323.623 153.261 322.826 153.261C322.681 153.261 322.536 153.261 322.391 153.261C320 152.899 318.84 150.435 316.377 145.29C312.971 138.261 305.29 133.406 285.869 132.102C266.449 130.797 234.782 153.623 199.855 153.551C198.985 153.551 198.188 153.551 197.319 153.551C196.666 153.551 196.087 153.551 195.435 153.551C194.42 153.551 193.406 153.551 192.319 153.478C191.522 153.478 190.652 153.406 189.855 153.406C189.058 153.406 188.261 153.333 187.464 153.333H187.536C185.942 153.261 184.348 153.189 182.826 153.189C181.232 153.116 179.71 153.044 178.116 152.971C176.594 152.899 175.072 152.826 173.551 152.681C172.826 152.609 172.101 152.609 171.377 152.536C168.768 152.391 166.159 152.174 163.695 151.957C163.116 151.884 162.464 151.884 161.884 151.812C161.087 151.739 160.217 151.667 159.42 151.594C158.623 151.522 157.826 151.449 157.029 151.377C154.275 151.087 151.522 150.797 148.913 150.507C148.551 150.435 148.188 150.435 147.826 150.362C144.855 150 142.101 149.638 139.42 149.275C138.84 149.203 138.261 149.131 137.681 149.058C135.652 148.768 133.623 148.478 131.739 148.189C131.449 148.116 131.159 148.116 130.869 148.044C129.71 147.826 128.551 147.681 127.464 147.464C127.029 147.391 126.594 147.319 126.159 147.247C125.797 147.174 125.435 147.102 125 147.029C112.971 144.928 105.942 143.116 105.942 143.116C105.942 143.116 81.6665 139.855 66.3766 140.725C55.5795 141.377 44.6375 143.406 38.5505 141.015C37.8983 140.725 37.2462 140.362 36.6665 140C36.594 139.928 36.4491 139.855 36.3766 139.783C34.4201 138.189 33.4056 135.58 33.9128 131.522C34.2752 128.478 35.652 125.797 37.7534 123.406C44.2752 115.87 57.4636 111.087 67.1737 107.971C79.9998 103.841 98.0433 99.1306 98.0433 99.1306C98.0433 99.1306 146.522 79.8552 165.797 62.8262C188.333 42.8987 222.246 27.2465 249.275 44.8552C274.058 61.0146 301.159 82.8987 318.985 107.899C326.666 118.696 329.927 128.189 330.652 135.725C331.739 145.58 328.55 151.884 325.652 152.754Z" fill="#F4CE82"/>
<path d="M322.826 153.333C322.681 153.333 322.536 153.333 322.391 153.333C320 152.971 318.841 150.507 316.377 145.362C312.971 138.333 305.29 133.478 285.87 132.174C266.449 130.87 234.783 153.696 199.855 153.623C198.985 153.623 198.188 153.623 197.319 153.623C196.667 153.623 196.087 153.623 195.435 153.623C194.42 153.623 193.406 153.623 192.319 153.551C191.522 153.551 190.652 153.551 189.855 153.478C189.058 153.478 188.261 153.406 187.464 153.406H187.536C185.942 153.333 184.348 153.261 182.826 153.261C181.232 153.189 179.71 153.116 178.116 153.044C176.594 152.971 175.072 152.899 173.551 152.754C172.826 152.681 172.101 152.681 171.377 152.609C168.768 152.464 166.159 152.246 163.696 152.029C163.116 151.957 162.464 151.957 161.884 151.884C161.087 151.812 160.217 151.739 159.42 151.667C158.623 151.594 157.826 151.522 157.029 151.449C154.275 151.16 151.522 150.87 148.985 150.58C148.623 150.507 148.261 150.507 147.898 150.435C144.927 150.073 142.174 149.71 139.493 149.348C138.913 149.275 138.333 149.203 137.754 149.131C135.725 148.841 133.696 148.551 131.812 148.261C131.522 148.189 131.232 148.189 130.942 148.116C129.783 147.899 128.623 147.754 127.464 147.536C127.029 147.464 126.594 147.391 126.159 147.319C125.797 147.246 125.362 147.174 125 147.102C112.971 145 105.942 143.189 105.942 143.189C105.942 143.189 81.6666 139.928 66.3768 140.797C54.3478 141.522 42.1014 143.986 36.7391 140.073C36.6666 140 36.5217 139.928 36.4492 139.855C36.6666 139.131 36.9565 138.333 37.3912 137.609C42.3188 128.478 61.884 125.87 85.6521 124.203C109.42 122.536 139.493 124.565 159.71 119.275C179.927 114.058 200.797 98.4059 228.188 93.8407C255.58 89.2755 288.043 101.812 309.275 118.768C328.261 133.913 323.913 150.218 322.826 153.333Z" fill="#F2C046"/>
<path d="M322.391 153.261C320 152.899 318.84 150.435 316.376 145.29C314.347 141.16 310.869 137.754 304.348 135.363C303.55 135.073 302.681 134.783 301.739 134.493C297.608 133.261 292.391 132.464 285.869 132.029C285 131.957 284.203 131.957 283.333 131.957C282.536 131.957 281.666 132.029 280.869 132.174C265.724 133.841 244.71 145.725 221.159 151.015C220.217 151.232 219.275 151.449 218.333 151.594C212.391 152.754 206.304 153.478 200.072 153.478H199.855C198.985 153.478 198.188 153.478 197.318 153.478C196.666 153.478 196.087 153.478 195.434 153.478C194.42 153.478 193.405 153.478 192.318 153.406C191.521 153.406 190.652 153.406 189.855 153.334C189.058 153.334 188.261 153.261 187.463 153.261H187.536C185.942 153.189 184.347 153.116 182.826 153.116C181.956 153.044 181.087 153.044 180.145 152.971C179.492 152.971 178.768 152.899 178.116 152.899C177.898 152.899 177.753 152.899 177.536 152.899C176.232 152.826 174.855 152.754 173.55 152.681C172.826 152.609 172.101 152.609 171.376 152.536C168.768 152.392 166.159 152.174 163.695 151.957C163.116 151.884 162.463 151.884 161.884 151.812C161.087 151.739 160.217 151.667 159.42 151.594C158.623 151.522 157.826 151.449 157.029 151.377C154.275 151.087 151.521 150.797 148.985 150.507C148.623 150.435 148.261 150.435 147.898 150.363C144.927 150 142.174 149.638 139.492 149.276C138.913 149.203 138.333 149.131 137.753 149.058C135.724 148.768 133.695 148.478 131.811 148.189C131.521 148.116 131.232 148.116 130.942 148.044C129.782 147.826 128.623 147.681 127.463 147.464C127.029 147.392 126.594 147.319 126.159 147.247C125.869 147.174 125.507 147.102 125.217 147.102C125.145 147.102 125.072 147.102 125 147.102C124.203 146.957 123.405 146.812 122.608 146.667C112.029 144.783 105.942 143.189 105.942 143.189C105.942 143.189 104.637 143.044 102.391 142.754C101.594 142.681 100.724 142.536 99.7822 142.464C95.4344 141.957 89.3475 141.377 82.9707 141.015C82.1011 140.942 81.2315 140.942 80.362 140.87C75.5069 140.652 70.5794 140.58 66.3765 140.797C54.3475 141.522 42.1011 143.986 36.7388 140.073C37.3185 138.116 38.7678 136.015 41.8112 134.058C49.275 129.276 57.246 123.116 80.2895 124.71C81.1591 124.783 82.0286 124.855 82.9707 124.928C87.8257 125.363 93.333 126.16 99.5649 127.319C100.434 127.464 101.376 127.681 102.318 127.826C102.608 127.899 102.898 127.971 103.261 128.044C108.261 129.058 115.072 130.145 123.043 131.16C123.913 131.232 124.782 131.377 125.652 131.449C140.217 133.116 158.478 134.42 177.318 134.276C178.188 134.276 179.058 134.276 179.927 134.276C182.681 134.276 185.434 134.203 188.116 134.058C191.304 133.913 194.347 133.768 197.246 133.551C198.116 133.478 198.985 133.406 199.855 133.334C206.739 132.681 213.043 131.739 218.84 130.652C219.71 130.507 220.579 130.29 221.449 130.145C245.29 125.29 261.087 117.899 281.666 117.609C282.536 117.609 283.405 117.609 284.348 117.609C284.855 117.609 285.434 117.609 285.942 117.681C293.695 117.971 299.927 119.42 304.927 121.594C305.797 121.957 306.666 122.392 307.463 122.826C318.913 129.058 322.608 139.348 323.188 146.015C323.405 148.841 323.043 151.305 322.391 153.261Z" fill="#F9E7CA"/>
<path d="M217.753 56.3771C212.246 55.7974 204.42 59.7104 204.71 65.58C205 71.4496 214.348 70.7974 220.797 67.3916C227.319 63.9133 226.739 57.2467 217.753 56.3771Z" fill="#F2C046"/>
<path d="M218.84 74.1307C216.956 74.9278 214.927 77.6089 215.869 79.2031C216.811 80.7973 221.159 78.8408 222.246 76.3771C222.898 74.9278 222.029 72.7539 218.84 74.1307Z" fill="#F2C046"/>
<path d="M200.217 55.0003C198.985 55.2901 197.536 56.6669 197.971 57.6814C198.406 58.6959 201.087 57.9713 202.029 56.5945C202.464 55.8698 202.174 54.493 200.217 55.0003Z" fill="#F2C046"/>
<path d="M195.797 63.406C194.058 63.8408 191.884 65.8698 192.536 67.3915C193.116 68.9132 197.174 67.8263 198.478 65.8698C199.13 64.7103 198.695 62.6814 195.797 63.406Z" fill="#F2C046"/>
<path d="M270.652 69.5655C265.29 68.0437 256.956 70.58 256.159 76.3771C255.362 82.1742 264.782 83.1887 271.666 80.9423C278.768 78.6235 279.42 72.0292 270.652 69.5655Z" fill="#F2C046"/>
<path d="M277.609 85.725C275 86.0873 273.116 88.4786 273.841 90.6526C274.565 92.8265 279.203 92.0294 281.232 89.4207C282.319 87.9714 281.884 85.0728 277.609 85.725Z" fill="#F2C046"/>
<path d="M140.652 89.7829C137.029 92.8264 136.377 97.7539 139.203 100.435C141.956 103.116 150.29 97.8988 152.246 91.522C153.84 86.1597 148.695 82.8988 140.652 89.7829Z" fill="#F2C046"/>
<path d="M158.26 100.797C157.028 101.812 156.811 103.478 157.753 104.421C158.695 105.363 161.521 103.551 162.173 101.377C162.753 99.6379 161.014 98.4785 158.26 100.797Z" fill="#F2C046"/>
<path d="M159.203 88.6959C158.188 89.4205 157.898 90.7249 158.55 91.522C159.203 92.3191 161.594 91.0872 162.246 89.4205C162.826 88.0437 161.521 87.0292 159.203 88.6959Z" fill="#F2C046"/>
<path d="M141.956 105.435C139.637 107.102 139.058 110 140.579 111.739C142.101 113.479 147.319 110.797 148.768 107.102C150 103.986 147.101 101.739 141.956 105.435Z" fill="#F2C046"/>
<path d="M322.826 153.334C322.681 153.334 322.536 153.334 322.391 153.334C320 152.971 318.84 150.508 316.376 145.363C312.971 138.334 305.289 133.479 285.869 132.174C266.449 130.87 234.782 153.696 199.855 153.623C198.985 153.623 198.188 153.623 197.318 153.623C196.666 153.623 196.087 153.623 195.434 153.623C194.42 153.623 193.405 153.623 192.318 153.551C191.521 153.551 190.652 153.551 189.855 153.479C189.058 153.479 188.26 153.406 187.463 153.406H187.536C185.942 153.334 184.347 153.261 182.826 153.261C181.231 153.189 179.71 153.116 178.116 153.044C176.594 152.971 175.072 152.899 173.55 152.754C172.826 152.681 172.101 152.681 171.376 152.609C168.768 152.464 166.159 152.247 163.695 152.029C163.116 151.957 162.463 151.957 161.884 151.884C161.087 151.812 160.217 151.739 159.42 151.667C158.623 151.594 157.826 151.522 157.029 151.45C154.275 151.16 151.521 150.87 148.985 150.58C148.623 150.508 148.26 150.508 147.898 150.435C144.927 150.073 142.173 149.71 139.492 149.348C138.913 149.276 138.333 149.203 137.753 149.131C135.724 148.841 133.695 148.551 131.811 148.261C131.521 148.189 131.231 148.189 130.942 148.116C129.782 147.899 128.623 147.754 127.463 147.537C127.029 147.464 126.594 147.392 126.159 147.319C125.797 147.247 125.362 147.174 125 147.102C112.971 145 105.942 143.189 105.942 143.189C105.942 143.189 81.6662 139.928 66.3764 140.797C55.5793 141.45 44.6372 143.479 38.5503 141.087C43.6952 138.841 55.6517 136.16 72.2459 135.797C92.0285 135.363 125.724 143.623 157.246 146.232C188.768 148.841 215.507 149.928 247.898 138.189C280.289 126.45 293.768 126.667 308.115 133.406C322.463 140.073 322.826 153.334 322.826 153.334Z" fill="#F7DBAA"/>
<path d="M153.551 173.986C130.072 192.464 94.2027 187.246 92.2462 179.855C90.5795 173.478 93.6954 175.362 108.188 168.116C110.579 166.957 113.188 165.507 116.159 163.768C137.464 151.377 125.072 127.681 142.029 120.29C152.246 115.797 160.217 115.725 165.724 119.131C169.348 121.377 171.884 125.145 173.406 130.29C176.449 141.232 177.029 155.507 153.551 173.986Z" fill="#F4CE82"/>
<path d="M153.55 173.986C130.072 192.464 94.2026 187.247 92.2461 179.855C90.5794 173.478 119.855 193.913 154.565 162.536C168.985 149.565 167.174 126.377 165.652 119.131C169.275 121.377 171.811 125.145 173.333 130.29C176.449 141.232 177.029 155.507 153.55 173.986Z" fill="#F2C046"/>
<path d="M114.348 187.826C99.1303 187.826 91.8114 181.087 91.4491 180.725C91.3766 180.652 91.3766 180.652 91.3042 180.58C91.0868 180.29 89.4201 177.971 90.0723 175.652C90.2897 174.783 91.0143 173.623 92.8259 172.971C93.3332 172.754 94.2027 172.536 95.3621 172.246C100.869 170.87 113.84 167.681 121.304 157.826C127.246 149.928 128.406 144.203 129.565 138.623C130.145 135.725 130.724 133.043 131.884 130.217C135.362 121.812 140.797 119.13 141.014 118.986C141.594 118.696 142.246 118.913 142.536 119.493C142.826 120.072 142.609 120.725 142.029 121.014C141.956 121.014 137.174 123.551 133.985 131.087C132.898 133.696 132.391 136.304 131.811 139.058C130.652 144.565 129.42 150.87 123.116 159.203C115.145 169.783 101.666 173.043 95.9419 174.493C94.8549 174.783 94.0578 174.928 93.623 175.145C92.4636 175.58 92.3187 176.159 92.2462 176.377C91.9563 177.319 92.681 178.696 93.0433 179.203C94.1303 180.145 107.971 191.449 136.304 181.522C171.666 169.058 173.695 142.101 173.768 139.058C174.13 129.058 168.043 120.652 162.174 119.13C161.594 118.986 161.232 118.333 161.377 117.754C161.522 117.174 162.174 116.812 162.753 116.957C169.42 118.696 176.449 127.754 176.014 139.203C175.869 142.391 173.84 170.797 137.029 183.696C128.116 186.667 120.58 187.826 114.348 187.826Z" fill="#D8AB3E"/>
<path d="M40.7245 150.507C32.8984 151.377 22.681 160.725 29.8549 171.16C37.0288 181.594 60.9419 184.203 70.7245 183.116C80.5071 182.029 84.2028 179.42 85.7245 174.638C87.2462 169.855 77.5361 170.58 65.0723 160.29C54.8549 151.812 47.8259 149.71 40.7245 150.507Z" fill="#F4CE82"/>
<path d="M37.4636 163.696C41.0867 167.826 54.9998 175.58 66.8114 176.594C83.2606 178.044 87.3186 175.145 73.478 170.507C59.6375 165.87 55.7969 164.203 49.0577 158.986C40.4346 152.319 31.3041 156.594 37.4636 163.696Z" fill="#F2C046"/>
<path d="M64.7099 184.348C54.0577 184.348 39.7824 181.812 31.0867 173.841C27.536 170.58 25.8693 167.101 26.1592 163.406C26.7389 156.522 33.9853 151.667 34.3476 151.449C34.8548 151.087 35.5795 151.232 35.9418 151.739C36.3041 152.246 36.1592 152.971 35.6519 153.333C35.5795 153.406 28.9853 157.754 28.478 163.623C28.2606 166.594 29.6374 169.42 32.6809 172.174C44.0577 182.536 65.4346 183.188 74.3476 181.232C80.4346 179.928 83.623 177.319 84.565 175.435C84.9998 174.565 85.0722 173.768 84.7099 173.044C83.6954 170.797 79.8548 170.217 78.478 170.145C77.8259 170.145 77.3911 169.565 77.3911 168.986C77.3911 168.333 77.8983 167.826 78.5505 167.899C78.8404 167.899 84.9998 168.188 86.8114 172.174C87.3911 173.551 87.3186 175 86.594 176.522C84.9998 179.638 80.6519 182.246 74.8548 183.551C72.1737 183.986 68.6954 184.348 64.7099 184.348Z" fill="#D8AB3E"/>
<path d="M284.492 123.913C284.348 128.768 283.623 131.087 283.261 132.029C282.463 132.029 281.594 132.102 280.797 132.247C280.652 131.812 280.652 131.304 280.869 130.87C280.942 130.797 281.739 128.986 281.884 123.841C282.029 120.435 281.666 118.189 281.521 117.536C282.391 117.536 283.261 117.536 284.203 117.536C284.42 118.696 284.637 120.87 284.492 123.913Z" fill="#F2C046"/>
<path d="M307.391 122.754C307.391 123.841 307.246 125.87 306.739 128.551C305.869 132.609 304.855 134.565 304.347 135.362C303.55 135.073 302.681 134.783 301.739 134.493C301.739 134.348 301.884 134.131 302.029 133.913C302.101 133.841 303.333 131.812 304.203 127.609C304.927 124.203 304.782 122.102 304.782 122.029C304.782 121.812 304.782 121.594 304.855 121.377C305.724 121.884 306.594 122.319 307.391 122.754Z" fill="#F2C046"/>
<path d="M200.58 143.116C200.507 147.971 200.145 152.029 199.927 153.551H199.855C198.985 153.551 198.188 153.551 197.319 153.551C197.391 152.754 197.898 148.261 197.971 143.044C198.043 137.464 197.319 134.131 197.246 134.131C197.174 133.913 197.174 133.696 197.174 133.479C198.043 133.406 198.913 133.334 199.783 133.261C200 133.986 200.652 137.537 200.58 143.116Z" fill="#F2C046"/>
<path d="M221.811 140.435C221.739 145.942 221.376 149.203 221.014 151.087C220.072 151.305 219.13 151.522 218.188 151.667V151.594C218.188 151.522 219.058 148.696 219.202 140.435C219.275 135.145 218.913 131.739 218.768 130.58C219.637 130.435 220.507 130.218 221.376 130.073C221.521 131.45 221.884 135 221.811 140.435Z" fill="#F2C046"/>
<path d="M180.652 143.841C180.579 147.681 180.362 151.087 180.145 153.044C179.492 153.044 178.768 152.971 178.116 152.971C177.898 152.971 177.753 152.971 177.536 152.971C177.753 151.087 177.971 147.681 178.043 143.841C178.116 138.261 177.319 134.928 177.319 134.928C177.246 134.71 177.246 134.493 177.246 134.276C178.116 134.276 178.985 134.276 179.855 134.276C180.145 135.29 180.724 138.696 180.652 143.841Z" fill="#F2C046"/>
<path d="M102.681 135.507C102.681 138.261 102.536 140.725 102.391 142.681C101.594 142.609 100.725 142.464 99.7825 142.392C99.9275 140.507 100.072 138.116 100.072 135.507C100.145 131.45 99.7101 128.623 99.4927 127.319C100.362 127.464 101.304 127.681 102.246 127.826C102.536 129.565 102.754 132.174 102.681 135.507Z" fill="#F2C046"/>
<path d="M125.725 137.754C125.652 142.102 125.435 145.073 125.145 147.029C125.072 147.029 125 147.029 124.927 147.029C124.13 146.884 123.333 146.739 122.536 146.594C122.754 144.855 123.043 142.029 123.116 137.754C123.116 135 123.043 132.826 122.971 131.16C123.84 131.232 124.71 131.377 125.58 131.45C125.725 133.044 125.725 135.218 125.725 137.754Z" fill="#F2C046"/>
<path d="M83.4055 132.536C83.333 135.87 83.1881 138.841 82.9707 140.87C82.1011 140.797 81.2316 140.797 80.362 140.725C80.5069 138.768 80.7243 135.797 80.7968 132.464C80.8693 128.768 80.5069 126.015 80.2896 124.565C81.1591 124.638 82.0287 124.71 82.9707 124.783C83.1881 126.594 83.4055 129.203 83.4055 132.536Z" fill="#F2C046"/>
<path d="M299.203 161.087C299.058 165.363 285.652 169.565 269.348 165.145C253.043 160.725 234.275 151.739 219.927 123.406C213.116 109.928 214.71 100.29 219.71 93.9858C225.217 87.0292 235 84.2756 242.101 85.2176C253.985 86.8843 260.725 91.0872 264.638 98.7683C268.551 106.45 265.797 118.478 273.478 131.377C279.927 142.247 293.841 152.826 298.043 158.406C298.841 159.565 299.275 160.435 299.203 161.087Z" fill="#F4CE82"/>
<path d="M299.203 161.087C299.058 165.363 285.652 169.566 269.348 165.145C253.043 160.725 234.275 151.739 219.927 123.406C213.116 109.928 214.71 100.29 219.71 93.9858C220.87 102.754 226.449 128.189 252.029 145.29C277.391 162.174 292.898 162.102 298.043 158.479C298.841 159.566 299.275 160.435 299.203 161.087Z" fill="#F2C046"/>
<path d="M283.841 167.102C276.812 167.102 266.449 165.29 252.754 158.261C233.696 148.478 222.029 134.131 218.116 115.725C213.333 93.551 227.246 86.3771 227.391 86.3046C227.971 86.0147 228.623 86.2321 228.913 86.8118C229.203 87.3915 228.986 88.0437 228.406 88.3336C227.899 88.6234 215.942 94.8553 220.362 115.29C224.203 133.044 235.435 146.812 253.841 156.305C276.812 168.116 289.855 164.783 293.261 163.479C295.725 162.536 296.739 161.45 296.884 161.015C297.101 160.435 297.754 160.145 298.333 160.363C298.913 160.58 299.203 161.232 298.986 161.812C298.478 163.189 296.667 164.565 294.058 165.507C292.464 166.087 289.058 167.102 283.841 167.102Z" fill="#D8AB3E"/>
<path d="M118.188 168.696C116.232 170.507 113.696 172.102 110.507 173.334C92.8985 180 66.4492 173.986 51.5942 166.667C40.7246 161.305 34.7826 155.145 33.0434 146.305C32.3913 143.044 32.3188 139.493 32.826 135.435C34.6376 120.362 44.3478 117.102 54.3478 116.812C63.8405 116.594 69.4927 123.334 70.3623 124.42C70.3623 124.42 65.8695 126.449 67.5362 131.015C69.2028 135.58 78.8405 131.449 86.5217 129.928C94.2029 128.478 107.101 129.276 116.377 139.058C123.985 147.102 127.029 160.507 118.188 168.696Z" fill="#F4CE82"/>
<path d="M118.188 168.696C116.232 170.508 113.695 172.102 110.507 173.334C101.304 176.812 89.6375 176.884 78.5505 175C77.3186 174.783 76.1592 174.566 74.9273 174.348C68.478 173.044 62.3911 171.16 57.1012 169.058C55.7244 168.551 54.4925 167.971 53.2606 167.392C52.6809 167.102 52.1737 166.884 51.6664 166.595C40.7969 161.232 34.8549 155.073 33.1157 146.232C36.5215 149.276 42.3911 153.479 52.4636 157.754C53.2607 158.116 54.1302 158.479 54.9998 158.768C58.7679 160.29 63.0433 161.812 67.8983 163.261C69.565 163.768 71.2317 164.203 72.8259 164.638C73.6954 164.855 74.565 165.073 75.4346 165.29C92.6085 169.493 107.536 169.566 118.188 168.696Z" fill="#F9E7CA"/>
<path d="M78.5504 175C77.3186 174.783 76.1591 174.566 74.9272 174.348C74.3475 173.261 73.7678 171.812 73.333 170C72.8258 167.754 72.6809 165.942 72.7533 164.71C73.6229 164.928 74.4925 165.145 75.362 165.363C75.362 166.232 75.507 167.464 75.7968 168.913C76.5214 172.102 78.0432 173.986 78.1157 173.986C78.4055 174.276 78.5504 174.638 78.5504 175Z" fill="#F2C046"/>
<path d="M57.1014 169.058C55.7245 168.551 54.4927 167.971 53.2608 167.392C52.826 166.232 52.4637 164.71 52.3187 162.826C52.1738 160.652 52.2463 159.058 52.3912 157.754C53.1883 158.116 54.0579 158.479 54.9274 158.768C54.855 159.71 54.7825 160.87 54.9274 162.464C55.2173 166.667 56.884 168.623 56.884 168.623C57.0289 168.841 57.1014 168.986 57.1014 169.058Z" fill="#F2C046"/>
<path d="M47.174 127.029C44.4928 128.406 41.4493 132.464 41.1595 135.218C40.7972 137.899 41.5218 139.493 45.0725 139.203C48.6957 138.986 51.5943 133.189 51.5943 130.073C51.5943 126.957 49.8551 125.652 47.174 127.029Z" fill="#F2C046"/>
<path d="M50.1448 140.725C48.6956 141.377 47.0289 143.406 46.8115 144.783C46.6666 146.087 46.9564 146.884 48.9854 146.739C50.942 146.594 52.6086 143.768 52.6086 142.246C52.6086 140.725 51.6666 140.073 50.1448 140.725Z" fill="#F2C046"/>
<path d="M62.8984 142.971C61.8839 143.478 60.7245 145 60.5796 146.015C60.4346 147.029 60.7245 147.609 62.1013 147.536C63.4781 147.464 64.5651 145.29 64.5651 144.131C64.5651 142.971 63.9129 142.464 62.8984 142.971Z" fill="#F2C046"/>
<path d="M111.884 136.522C111.594 136.522 111.304 136.377 111.087 136.16C111.087 136.16 106.956 132.247 96.0143 130.942C91.6664 130.435 86.3041 131.594 81.5215 132.609C75.4346 133.913 70.2172 135.073 67.536 132.899C66.3766 132.029 65.7969 130.58 65.7969 128.768C65.7969 127.391 66.3041 126.232 67.3186 125.29C70.652 122.174 78.623 122.826 79.4925 122.971C80.1447 123.044 80.5795 123.551 80.507 124.203C80.4346 124.855 79.9273 125.29 79.2751 125.218C77.1012 125 71.0143 124.928 68.8404 126.957C68.2606 127.464 68.0433 128.044 68.0433 128.768C68.0433 129.928 68.3331 130.652 68.9128 131.16C70.7969 132.681 75.7969 131.594 81.0143 130.435C85.9418 129.348 91.594 128.116 96.3041 128.696C108.116 130.145 112.536 134.42 112.681 134.565C113.116 135 113.116 135.725 112.681 136.16C112.464 136.377 112.174 136.522 111.884 136.522Z" fill="#D8AB3E"/>
<path d="M108.116 162.391C100.58 162.391 94.8552 160 94.5653 159.855C93.9131 159.565 93.6233 158.84 93.9131 158.261C94.203 157.609 94.9276 157.319 95.5073 157.609C95.5798 157.609 103.333 160.797 112.174 159.638C119.42 158.696 120.942 156.377 121.015 156.304C121.304 155.725 122.102 155.507 122.681 155.797C123.261 156.087 123.478 156.884 123.188 157.464C122.971 157.826 121.087 160.869 112.536 162.029C111.015 162.319 109.493 162.391 108.116 162.391Z" fill="#99792C"/>
<path d="M101.015 148.551C97.3913 148.551 95.5797 146.087 95.0725 144.638C94.8551 143.986 95.2174 143.189 95.8696 142.971C96.5218 142.754 97.3189 143.116 97.5363 143.768C97.6087 144.058 98.5507 146.232 101.594 145.87C104.42 145.58 104.638 143.768 104.638 143.406C104.638 142.681 105.217 142.102 105.942 142.102C106.667 142.102 107.246 142.681 107.246 143.406C107.246 144.928 106.087 148.044 101.812 148.478C101.594 148.478 101.304 148.551 101.015 148.551Z" fill="#99792C"/>
<path d="M116.594 148.261C116.377 148.261 116.087 148.261 115.869 148.188C112.246 147.681 111.522 144.42 111.449 144.275C111.304 143.551 111.739 142.899 112.464 142.754C113.188 142.609 113.84 143.043 113.985 143.768C114.058 143.913 114.42 145.435 116.232 145.652C116.594 145.725 117.101 145.725 117.391 145.507C117.681 145.29 117.754 144.855 117.754 144.783C117.826 144.058 118.478 143.551 119.203 143.623C119.927 143.696 120.435 144.348 120.362 145C120.362 145.145 120.217 146.522 119.058 147.464C118.478 147.826 117.754 148.261 116.594 148.261Z" fill="#99792C"/>
<path d="M130.797 121.159C130.58 122.609 130.217 124.203 129.638 125.87C127.464 132.246 122.681 138.841 117.319 138.623C113.333 138.406 107.609 130.362 106.159 121.449V121.377C104.638 112.464 106.522 102.536 118.043 102.536C129.493 102.464 131.812 113.986 130.797 121.159Z" fill="#D8AB3E"/>
<path d="M129.637 125.797C127.464 132.174 122.681 138.768 117.319 138.551C113.333 138.333 107.608 130.29 106.159 121.377V121.304C107.753 123.84 110.362 126.449 114.348 128.333C120.724 131.449 126.304 128.551 129.637 125.797Z" fill="#BB9436"/>
<path d="M116.884 104.203C114.493 102.029 109.855 104.71 107.826 109.493C105.725 114.275 106.304 118.768 108.623 119.348C110.942 119.927 109.855 114.638 113.188 111.594C116.449 108.478 118.841 105.942 116.884 104.203Z" fill="#F4CE82"/>
<path d="M77.1013 91.0144C79.0223 91.0144 80.5796 89.4571 80.5796 87.5361C80.5796 85.6151 79.0223 84.0579 77.1013 84.0579C75.1803 84.0579 73.623 85.6151 73.623 87.5361C73.623 89.4571 75.1803 91.0144 77.1013 91.0144Z" fill="#212121"/>
<path d="M71.5944 77.7535C72.715 77.7535 73.6234 76.8451 73.6234 75.7245C73.6234 74.604 72.715 73.6956 71.5944 73.6956C70.4738 73.6956 69.5654 74.604 69.5654 75.7245C69.5654 76.8451 70.4738 77.7535 71.5944 77.7535Z" fill="#212121"/>
<path d="M19.6375 63.9128C17.6809 65.3621 19.9273 67.536 19.7824 68.0432C19.6375 68.5505 14.7824 68.1882 12.2462 69.2751C9.63746 70.3621 10.8693 73.3331 14.9273 73.6954C18.9853 74.0577 29.9998 74.8548 32.6809 72.9708C35.3621 71.0867 33.623 69.4201 32.1737 68.7679C30.7244 68.1157 27.8259 68.1882 28.1157 67.2461C28.4056 66.3041 32.0288 66.3766 30.8693 64.4201C30.1447 63.1157 22.6085 61.8114 19.6375 63.9128Z" fill="#212121"/>
<path d="M94.3476 40.7971C95.7244 44.9276 87.8259 44.2029 88.2606 45.4348C89.1302 47.7537 92.9708 45.7247 93.1157 49.7102C93.2606 53.6957 89.2027 53.4058 79.0578 53.8406C74.3476 54.058 69.4925 52.6087 69.7824 49.3479C70.0722 46.087 77.6085 47.2464 76.6664 45.5073C75.7244 43.7682 75.2172 42.5363 76.7389 40.6522C78.2607 38.7682 82.0288 38.6957 86.6664 38.9855C91.2317 39.2754 93.9128 39.6377 94.3476 40.7971Z" fill="#212121"/>
<path d="M78.768 5.21746C66.1593 5.79717 68.768 5.07253 65.5072 6.7392C62.2463 8.40587 66.8115 11.2319 64.855 12.1015C62.8985 12.9711 56.3767 14.203 56.6666 16.0146C57.4637 21.5218 84.4202 21.3769 85.5796 16.5943C86.3043 13.5508 81.4492 13.9131 81.9565 12.6812C82.4637 11.4493 91.1594 12.2464 92.3188 8.62325C93.4782 5.00006 84.855 4.9276 78.768 5.21746Z" fill="#212121"/>
<path d="M64.1305 85.4348C61.232 90.4348 53.6233 96.8841 50.6523 93.4058C50.5798 93.2609 50.4349 93.1884 50.3624 93.0435C48.1885 89.9276 49.7827 83.9131 50.2899 82.174C50.3624 81.9566 50.4349 81.8116 50.4349 81.7392C50.2175 82.174 48.116 86.4493 46.9566 87.5363C45.3624 88.9855 42.3189 89.3479 41.3044 86.9566C41.1595 86.5218 41.0146 86.087 41.0146 85.5073C40.8697 82.6087 42.8986 79.8551 46.7392 76.1595C50.5798 72.4638 56.087 69.3479 57.9711 74.3479C59.7102 79.2754 56.0146 86.7392 55.7972 87.174C56.0146 86.8116 59.4928 81.3044 61.3044 80.4348C62.2465 80 63.5508 80 64.4204 80.6522C65.3624 81.2319 65.7247 82.7537 64.1305 85.4348Z" fill="#212121"/>
<path d="M50.3625 82.1741C50.4349 81.8842 50.5074 81.6668 50.5074 81.6668C50.5074 81.6668 48.261 86.377 47.0291 87.4639C45.4349 88.9132 42.3914 89.2755 41.377 86.8842C42.319 87.1016 43.6233 87.0292 44.9277 85.8697C47.319 83.8408 52.0291 76.8118 52.0291 76.8118C52.0291 76.8118 51.3045 79.4929 50.3625 82.1741Z" fill="#2A2A2A"/>
<path d="M64.1304 85.4349C61.2319 90.4349 53.6232 96.8841 50.6522 93.4059C50.5797 93.2609 50.4348 93.1885 50.3623 93.0435C51.0145 93.0435 52.6811 92.9711 55.1449 91.7392C58.4783 90.145 61.3043 85.6523 63.0435 83.116C63.6956 82.174 64.1304 81.3044 64.3478 80.5073C65.3623 81.232 65.7246 82.7537 64.1304 85.4349Z" fill="#2A2A2A"/>
<path d="M60.6522 60.2175C57.5362 63.0436 50.4348 64.5654 46.7391 64.2755C43.7681 63.9857 41.2319 62.3914 41.7391 59.6378C41.8841 58.9856 42.1014 58.261 42.6087 57.5364C45.0725 53.5509 51.2319 49.4929 51.2319 49.4929L50.7246 49.7103C49.2754 50.2175 45.1449 51.5944 42.3913 50.9422C40.2898 50.4349 38.913 48.6958 39.1304 46.7393C39.2754 45.6523 39.9275 44.4929 41.3768 43.5509C46.9565 39.9277 55.2174 38.7683 58.6232 39.2031C62.029 39.6378 63.4058 41.8842 62.5362 45.6523C61.6667 49.2755 54.8551 54.6378 54.4203 55.0001C54.7826 54.9277 60.0725 53.3335 61.4493 54.4204C61.9565 54.8552 62.4638 55.4349 62.6087 56.0871C62.8985 57.1741 62.5362 58.4784 60.6522 60.2175Z" fill="#212121"/>
<path d="M54.7101 46.3047L51.2319 49.5656L50.7246 49.783C49.2754 50.2902 45.1449 51.667 42.3913 51.0148C40.2898 50.5076 38.913 48.7685 39.1304 46.8119C39.6377 47.4641 41.0869 48.5511 44.5652 48.1887C49.2754 47.609 54.7101 46.3047 54.7101 46.3047Z" fill="#2A2A2A"/>
<path d="M60.6524 60.2176C57.5364 63.0437 50.435 64.5655 46.7393 64.2756C43.7683 63.9858 41.2321 62.3915 41.7393 59.6379C42.6813 60.435 44.7828 61.4495 49.1306 61.0872C55.8698 60.435 61.377 57.1742 62.6813 56.1597C62.8987 57.1742 62.5364 58.4785 60.6524 60.2176Z" fill="#2A2A2A"/>
<path d="M45.3624 26.6666C40.5798 31.0144 32.0291 36.5941 28.8407 37.4637C25.7248 38.2608 22.0291 38.1158 21.4494 33.1883V33.1158C20.8697 28.1158 25.0726 19.71 25.0726 19.71C25.0726 19.71 25.0726 19.71 25.0001 19.7825C24.3479 20.4347 18.4059 25.9419 15.0726 24.4927C13.6958 23.9129 12.7537 23.1158 12.174 22.2463C10.2175 19.3477 11.8842 15.2173 15.3624 11.9564C20.0001 7.68105 29.203 2.10135 32.319 0.941925C35.4349 -0.217495 38.261 -0.145038 38.5508 6.44917C38.8407 12.3912 34.4204 21.0868 33.6233 22.6086C33.9856 22.0289 35.0726 20.4347 37.174 18.9129C39.8552 17.1013 45.0001 13.6231 48.0436 16.1593C48.9132 16.884 49.4204 17.826 49.5653 18.9129C49.7827 21.0869 48.5508 23.8405 45.3624 26.6666Z" fill="#212121"/>
<path d="M27.6811 14.1304L24.9999 19.7825C24.3477 20.4347 18.4057 25.942 15.0724 24.4927C13.6956 23.913 12.7535 23.1159 12.1738 22.2463C13.1159 22.2463 14.4927 22.0289 16.2318 21.5217C20.3622 20.2173 27.6811 14.1304 27.6811 14.1304Z" fill="#2A2A2A"/>
<path d="M45.3623 26.6665C40.5797 31.0143 32.0289 36.594 28.8405 37.4636C25.7246 38.2607 22.0289 38.1158 21.4492 33.1883C22.7536 34.2027 25.0724 34.9999 29.1304 33.4056C35.5797 30.797 46.5217 22.3911 49.5652 18.9854C49.7826 21.0868 48.5507 23.8404 45.3623 26.6665Z" fill="#2A2A2A"/>
</g>
<defs>
<clipPath id="clip0_196_5674">
<rect width="346.087" height="200" fill="white"/>
</clipPath>
</defs>
</svg>
