<?xml version="1.0" encoding="UTF-8"?>
<!DOCTYPE svg PUBLIC "-//W3C//DTD SVG 1.1//EN" "http://www.w3.org/Graphics/SVG/1.1/DTD/svg11.dtd">
<svg xmlns="http://www.w3.org/2000/svg" version="1.1" width="38px" height="38px" style="shape-rendering:geometricPrecision; text-rendering:geometricPrecision; image-rendering:optimizeQuality; fill-rule:evenodd; clip-rule:evenodd" xmlns:xlink="http://www.w3.org/1999/xlink">
<g><path style="opacity:0.822" fill="#13dede" d="M 13.5,1.5 C 14.3211,9.0103 10.9878,12.677 3.5,12.5C 3.5,12.1667 3.5,11.8333 3.5,11.5C 9.46728,11.5397 12.1339,8.87303 11.5,3.5C 11.281,2.32496 11.6143,1.32496 12.5,0.5C 13.1067,0.62358 13.44,0.956913 13.5,1.5 Z"/></g>
<g><path style="opacity:0.767" fill="#14dce4" d="M 13.5,1.5 C 14.5,1.83333 15.1667,2.5 15.5,3.5C 15.1667,5.5 14.8333,7.5 14.5,9.5C 13.8333,10.8333 12.8333,11.8333 11.5,12.5C 9.4496,12.9612 7.4496,13.6279 5.5,14.5C 4.81654,14.1373 4.14987,13.8039 3.5,13.5C 3.5,13.1667 3.5,12.8333 3.5,12.5C 10.9878,12.677 14.3211,9.0103 13.5,1.5 Z"/></g>
<g><path style="opacity:0.62" fill="#26b7f8" d="M 22.5,2.5 C 22.1568,4.48324 22.8235,5.81658 24.5,6.5C 24.5,8.16667 24.5,9.83333 24.5,11.5C 24.1667,11.5 23.8333,11.5 23.5,11.5C 23.4456,9.36805 22.4456,8.03472 20.5,7.5C 20.5,6.16667 20.5,4.83333 20.5,3.5C 20.8417,2.66175 21.5084,2.32842 22.5,2.5 Z"/></g>
<g><path style="opacity:0.634" fill="#15d8ef" d="M 15.5,3.5 C 16.5,3.5 17.5,3.5 18.5,3.5C 18.5,5.16667 18.5,6.83333 18.5,8.5C 17.1667,8.83333 15.8333,9.16667 14.5,9.5C 14.8333,7.5 15.1667,5.5 15.5,3.5 Z"/></g>
<g><path style="opacity:0.864" fill="#26a9f9" d="M 23.5,1.5 C 24.4511,2.91866 24.7845,4.58533 24.5,6.5C 22.8235,5.81658 22.1568,4.48324 22.5,2.5C 22.5,1.83333 22.8333,1.5 23.5,1.5 Z"/></g>
<g><path style="opacity:0.627" fill="#1acaf6" d="M 18.5,3.5 C 19.1667,3.5 19.8333,3.5 20.5,3.5C 20.5,4.83333 20.5,6.16667 20.5,7.5C 19.8333,7.83333 19.1667,8.16667 18.5,8.5C 18.5,6.83333 18.5,5.16667 18.5,3.5 Z"/></g>
<g><path style="opacity:0.733" fill="#2a9dfb" d="M 23.5,1.5 C 23.56,0.956913 23.8933,0.62358 24.5,0.5C 25.4767,2.41095 26.1433,4.41095 26.5,6.5C 26.4249,9.20616 26.0916,11.8728 25.5,14.5C 24.078,15.925 22.4113,16.925 20.5,17.5C 22.2516,15.7541 23.5849,13.7541 24.5,11.5C 24.5,9.83333 24.5,8.16667 24.5,6.5C 24.7845,4.58533 24.4511,2.91866 23.5,1.5 Z"/></g>
<g><path style="opacity:0.736" fill="#3484fd" d="M 27.5,6.5 C 28.4916,6.32842 29.1583,6.66175 29.5,7.5C 29.0195,10.0783 28.0195,12.4116 26.5,14.5C 27.2653,11.9039 27.5987,9.23725 27.5,6.5 Z"/></g>
<g><path style="opacity:0.454" fill="#13e0d6" d="M 11.5,3.5 C 12.1339,8.87303 9.46728,11.5397 3.5,11.5C 3.0472,10.5416 2.38053,9.7083 1.5,9C 6.19147,9.44658 9.5248,7.61325 11.5,3.5 Z"/></g>
<g><path style="opacity:0.502" fill="#1ed9f3" d="M 20.5,7.5 C 20.5,8.16667 20.5,8.83333 20.5,9.5C 19.5,10.8333 18.5,12.1667 17.5,13.5C 16.5,13.5 15.5,13.5 14.5,13.5C 15.8333,11.8333 17.1667,10.1667 18.5,8.5C 19.1667,8.16667 19.8333,7.83333 20.5,7.5 Z"/></g>
<g><path style="opacity:1" fill="#2f8ffc" d="M 26.5,6.5 C 26.8333,6.5 27.1667,6.5 27.5,6.5C 27.5987,9.23725 27.2653,11.9039 26.5,14.5C 26.1667,14.5 25.8333,14.5 25.5,14.5C 26.0916,11.8728 26.4249,9.20616 26.5,6.5 Z"/></g>
<g><path style="opacity:1" fill="#59d2fa" d="M 20.5,7.5 C 22.4456,8.03472 23.4456,9.36805 23.5,11.5C 22.8333,12.8333 21.8333,13.8333 20.5,14.5C 19.8333,14.5 19.1667,14.5 18.5,14.5C 19.8284,13.4928 20.8284,12.1595 21.5,10.5C 21.3764,9.89333 21.0431,9.55999 20.5,9.5C 20.5,8.83333 20.5,8.16667 20.5,7.5 Z"/></g>
<g><path style="opacity:1" fill="#62defa" d="M 20.5,9.5 C 21.0431,9.55999 21.3764,9.89333 21.5,10.5C 20.8284,12.1595 19.8284,13.4928 18.5,14.5C 17.8333,14.5 17.5,14.1667 17.5,13.5C 18.5,12.1667 19.5,10.8333 20.5,9.5 Z"/></g>
<g><path style="opacity:1" fill="#28a8f9" d="M 23.5,11.5 C 23.8333,11.5 24.1667,11.5 24.5,11.5C 23.5849,13.7541 22.2516,15.7541 20.5,17.5C 18.283,18.3686 15.9496,18.702 13.5,18.5C 13.5,18.1667 13.5,17.8333 13.5,17.5C 16.0101,17.9465 18.0101,17.2798 19.5,15.5C 20.1667,15.5 20.5,15.1667 20.5,14.5C 21.8333,13.8333 22.8333,12.8333 23.5,11.5 Z"/></g>
<g><path style="opacity:0.663" fill="#14d9ee" d="M 11.5,12.5 C 10.7659,13.7079 10.4326,15.0413 10.5,16.5C 8.16667,16.5 5.83333,16.5 3.5,16.5C 3.5,15.5 3.5,14.5 3.5,13.5C 4.14987,13.8039 4.81654,14.1373 5.5,14.5C 7.4496,13.6279 9.4496,12.9612 11.5,12.5 Z"/></g>
<g><path style="opacity:0.78" fill="#2dc7f7" d="M 14.5,13.5 C 15.5,13.5 16.5,13.5 17.5,13.5C 17.5,14.1667 17.8333,14.5 18.5,14.5C 19.1667,14.5 19.8333,14.5 20.5,14.5C 20.5,15.1667 20.1667,15.5 19.5,15.5C 17.8333,15.5 16.1667,15.5 14.5,15.5C 14.5,14.8333 14.5,14.1667 14.5,13.5 Z"/></g>
<g><path style="opacity:1" fill="#4864fc" d="M 29.5,7.5 C 30.4916,7.32842 31.1583,7.66175 31.5,8.5C 31.2444,11.5979 30.5778,14.5979 29.5,17.5C 29.1667,17.5 28.8333,17.5 28.5,17.5C 29.2071,14.2139 29.5405,10.8806 29.5,7.5 Z"/></g>
<g><path style="opacity:0.69" fill="#23b1f8" d="M 14.5,15.5 C 16.1667,15.5 17.8333,15.5 19.5,15.5C 18.0101,17.2798 16.0101,17.9465 13.5,17.5C 13.3284,16.5084 13.6618,15.8417 14.5,15.5 Z"/></g>
<g><path style="opacity:1" fill="#6c41f5" d="M 32.5,8.5 C 33.1667,8.5 33.5,8.83333 33.5,9.5C 33.8893,12.5533 33.2227,15.22 31.5,17.5C 31.9629,14.5176 32.2962,11.5176 32.5,8.5 Z"/></g>
<g><path style="opacity:0.858" fill="#18cff4" d="M 3.5,16.5 C 5.83333,16.5 8.16667,16.5 10.5,16.5C 10.1667,17.1667 9.83333,17.8333 9.5,18.5C 7.16667,18.5 4.83333,18.5 2.5,18.5C 2.83333,17.8333 3.16667,17.1667 3.5,16.5 Z"/></g>
<g><path style="opacity:1" fill="#2e94fc" d="M 25.5,14.5 C 25.4894,16.0174 24.8228,17.1841 23.5,18C 20.2744,19.1989 16.941,19.6989 13.5,19.5C 13.5,19.1667 13.5,18.8333 13.5,18.5C 15.9496,18.702 18.283,18.3686 20.5,17.5C 22.4113,16.925 24.078,15.925 25.5,14.5 Z"/></g>
<g><path style="opacity:1" fill="#1ebef7" d="M 2.5,18.5 C 4.83333,18.5 7.16667,18.5 9.5,18.5C 9.5,19.1667 9.5,19.8333 9.5,20.5C 6.83333,20.5 4.16667,20.5 1.5,20.5C 1.83333,19.8333 2.16667,19.1667 2.5,18.5 Z"/></g>
<g><path style="opacity:1" fill="#3287fd" d="M 25.5,14.5 C 25.8333,14.5 26.1667,14.5 26.5,14.5C 26.0995,18.0698 24.0995,20.2364 20.5,21C 18.1902,21.4966 15.8568,21.6633 13.5,21.5C 13.5,20.8333 13.5,20.1667 13.5,19.5C 16.941,19.6989 20.2744,19.1989 23.5,18C 24.8228,17.1841 25.4894,16.0174 25.5,14.5 Z"/></g>
<g><path style="opacity:1" fill="#3a75fe" d="M 29.5,7.5 C 29.5405,10.8806 29.2071,14.2139 28.5,17.5C 24.8802,21.8827 20.2135,23.5494 14.5,22.5C 13.8333,22.5 13.5,22.1667 13.5,21.5C 15.8568,21.6633 18.1902,21.4966 20.5,21C 24.0995,20.2364 26.0995,18.0698 26.5,14.5C 28.0195,12.4116 29.0195,10.0783 29.5,7.5 Z"/></g>
<g><path style="opacity:1" fill="#4a63fb" d="M 28.5,17.5 C 28.8333,17.5 29.1667,17.5 29.5,17.5C 26.2037,22.4815 21.537,24.8149 15.5,24.5C 14.6618,24.1583 14.3284,23.4916 14.5,22.5C 20.2135,23.5494 24.8802,21.8827 28.5,17.5 Z"/></g>
<g><path style="opacity:0.983" fill="#25abf9" d="M -0.5,20.5 C 0.166667,20.5 0.833333,20.5 1.5,20.5C 4.16667,20.5 6.83333,20.5 9.5,20.5C 10.404,21.209 10.7373,22.209 10.5,23.5C 8.5,23.5 6.5,23.5 4.5,23.5C 2.88277,22.962 1.2161,22.6287 -0.5,22.5C -0.5,21.8333 -0.5,21.1667 -0.5,20.5 Z"/></g>
<g><path style="opacity:1" fill="#5d4ff7" d="M 31.5,8.5 C 31.8333,8.5 32.1667,8.5 32.5,8.5C 32.2962,11.5176 31.9629,14.5176 31.5,17.5C 29.5293,19.8082 27.5293,22.1415 25.5,24.5C 25.1667,24.5 24.8333,24.5 24.5,24.5C 21.5701,25.299 18.5701,25.6323 15.5,25.5C 15.5,25.1667 15.5,24.8333 15.5,24.5C 21.537,24.8149 26.2037,22.4815 29.5,17.5C 30.5778,14.5979 31.2444,11.5979 31.5,8.5 Z"/></g>
<g><path style="opacity:1" fill="#8530f7" d="M 33.5,9.5 C 34.9063,9.97306 35.573,10.9731 35.5,12.5C 34.6436,20.0133 30.6436,24.68 23.5,26.5C 23.8333,25.8333 24.1667,25.1667 24.5,24.5C 24.8333,24.5 25.1667,24.5 25.5,24.5C 28.9464,23.3882 30.9464,21.0548 31.5,17.5C 33.2227,15.22 33.8893,12.5533 33.5,9.5 Z"/></g>
<g><path style="opacity:1" fill="#6f3ef5" d="M 31.5,17.5 C 30.9464,21.0548 28.9464,23.3882 25.5,24.5C 27.5293,22.1415 29.5293,19.8082 31.5,17.5 Z"/></g>
<g><path style="opacity:1" fill="#9724fa" d="M 35.5,12.5 C 36.3382,12.8417 36.6716,13.5084 36.5,14.5C 35.2354,20.0273 32.2354,24.3607 27.5,27.5C 24.9039,28.2653 22.2372,28.5987 19.5,28.5C 18.8333,28.5 18.1667,28.5 17.5,28.5C 17.5,28.1667 17.5,27.8333 17.5,27.5C 19.7354,27.7947 21.7354,27.4614 23.5,26.5C 30.6436,24.68 34.6436,20.0133 35.5,12.5 Z"/></g>
<g><path style="opacity:1" fill="#a814fc" d="M 36.5,14.5 C 36.8333,14.5 37.1667,14.5 37.5,14.5C 37.5,15.8333 37.5,17.1667 37.5,18.5C 35.3157,23.195 31.9824,26.8617 27.5,29.5C 27.5,28.8333 27.5,28.1667 27.5,27.5C 32.2354,24.3607 35.2354,20.0273 36.5,14.5 Z"/></g>
<g><path style="opacity:0.834" fill="#2e93fc" d="M 4.5,23.5 C 6.5,23.5 8.5,23.5 10.5,23.5C 11.3382,23.8417 11.6716,24.5084 11.5,25.5C 9.5,25.5 7.5,25.5 5.5,25.5C 5.16667,24.8333 4.83333,24.1667 4.5,23.5 Z"/></g>
<g><path style="opacity:0.424" fill="#cc24fe" d="M 37.5,18.5 C 37.5,20.1667 37.5,21.8333 37.5,23.5C 35.141,27.8541 31.4743,30.1875 26.5,30.5C 26.5,29.8333 26.8333,29.5 27.5,29.5C 31.9824,26.8617 35.3157,23.195 37.5,18.5 Z"/></g>
<g><path style="opacity:1" fill="#703ef5" d="M 24.5,24.5 C 24.1667,25.1667 23.8333,25.8333 23.5,26.5C 21.7354,27.4614 19.7354,27.7947 17.5,27.5C 16.5,27.1667 15.8333,26.5 15.5,25.5C 18.5701,25.6323 21.5701,25.299 24.5,24.5 Z"/></g>
<g><path style="opacity:0.865" fill="#3482fe" d="M 5.5,25.5 C 7.5,25.5 9.5,25.5 11.5,25.5C 10.3646,27.2132 8.69798,27.8799 6.5,27.5C 6.16667,26.8333 5.83333,26.1667 5.5,25.5 Z"/></g>
<g><path style="opacity:1" fill="#3977fe" d="M 11.5,25.5 C 12.5,25.8333 13.1667,26.5 13.5,27.5C 11.2362,28.2186 8.90291,28.552 6.5,28.5C 6.5,28.1667 6.5,27.8333 6.5,27.5C 8.69798,27.8799 10.3646,27.2132 11.5,25.5 Z"/></g>
<g><path style="opacity:1" fill="#4766fc" d="M 13.5,27.5 C 14.4916,27.3284 15.1583,27.6618 15.5,28.5C 12.6967,29.9279 9.69667,30.5946 6.5,30.5C 6.5,29.8333 6.5,29.1667 6.5,28.5C 8.90291,28.552 11.2362,28.2186 13.5,27.5 Z"/></g>
<g><path style="opacity:1" fill="#a419fc" d="M 27.5,27.5 C 27.5,28.1667 27.5,28.8333 27.5,29.5C 26.8333,29.5 26.5,29.8333 26.5,30.5C 25.6522,31.625 24.6522,31.625 23.5,30.5C 22.391,30.4431 21.391,30.1098 20.5,29.5C 20.1667,29.5 19.8333,29.5 19.5,29.5C 19.5,29.1667 19.5,28.8333 19.5,28.5C 22.2372,28.5987 24.9039,28.2653 27.5,27.5 Z"/></g>
<g><path style="opacity:1" fill="#5a53f8" d="M 15.5,28.5 C 15.8333,28.5 16.1667,28.5 16.5,28.5C 15.5637,29.9744 14.2303,30.9744 12.5,31.5C 10.323,31.5861 8.32298,32.2528 6.5,33.5C 5.43764,32.5754 5.43764,31.5754 6.5,30.5C 9.69667,30.5946 12.6967,29.9279 15.5,28.5 Z"/></g>
<g><path style="opacity:1" fill="#6943f5" d="M 16.5,28.5 C 16.8333,28.5 17.1667,28.5 17.5,28.5C 17.8417,29.3382 18.5084,29.6716 19.5,29.5C 19.8333,29.5 20.1667,29.5 20.5,29.5C 20.5,29.8333 20.5,30.1667 20.5,30.5C 18.4214,30.9707 16.4214,31.6373 14.5,32.5C 13.5084,32.6716 12.8417,32.3382 12.5,31.5C 14.2303,30.9744 15.5637,29.9744 16.5,28.5 Z"/></g>
<g><path style="opacity:0.38" fill="#7d34f5" d="M 20.5,30.5 C 19.7377,32.2624 18.4044,33.2624 16.5,33.5C 15.5084,33.6716 14.8417,33.3382 14.5,32.5C 16.4214,31.6373 18.4214,30.9707 20.5,30.5 Z"/></g>
<g><path style="opacity:0.522" fill="#9824fa" d="M 20.5,29.5 C 21.391,30.1098 22.391,30.4431 23.5,30.5C 22.7934,32.1344 21.6268,33.4677 20,34.5C 19.5172,35.448 19.3505,36.448 19.5,37.5C 18.8333,37.5 18.1667,37.5 17.5,37.5C 17.1667,36.1667 16.8333,34.8333 16.5,33.5C 18.4044,33.2624 19.7377,32.2624 20.5,30.5C 20.5,30.1667 20.5,29.8333 20.5,29.5 Z"/></g>
</svg>
