<svg width="471" height="88" viewBox="0 0 471 88" fill="none" xmlns="http://www.w3.org/2000/svg">
<path d="M51.9766 60.6589L51.0383 60.4181C46.337 68.9756 37.5783 74.6132 27.6189 74.6132C12.707 74.6132 0.5 61.9598 0.5 46.3658C0.5 30.715 12.7099 17.9573 27.6189 17.9573C32.8756 17.9573 37.6443 19.5888 41.8828 22.2911L40.617 24.4391C36.8783 22.0787 32.384 20.4499 27.6189 20.4499C13.9948 20.4499 2.83147 32.2492 2.83147 46.3658C2.83147 60.322 13.9954 72.1742 27.6189 72.1742C40.0981 72.1742 50.4413 62.0151 51.9729 49.4893L52.0414 48.9286H51.4766H34.4595V46.8658H54.2006V74.7206H51.9766V60.6589Z" fill="white" stroke="white"/>
<path d="M93.5116 69.9974C90.0185 72.9408 85.5798 74.6133 80.9225 74.6133C70.091 74.6133 61.2188 65.5029 61.2188 54.211C61.2188 43.0265 70.091 33.8624 80.9225 33.8624C91.8311 33.8624 100.184 43.1026 100.665 55.323H63.6741H63.1L63.1788 55.8916C64.7194 67.0057 73.1095 72.4967 80.9225 72.4967C84.046 72.4967 87.3035 71.4205 89.9691 69.9204L93.5116 69.9974ZM97.8485 53.1527H98.4578L98.3389 52.5551C96.1513 41.5624 88.8312 35.8715 80.9225 35.8715C77.0297 35.8715 73.0299 37.114 69.7934 39.8376C66.5522 42.5652 64.1077 46.7522 63.2864 52.583L63.2062 53.1527H63.7816H97.8485Z" fill="white" stroke="white"/>
<path d="M116.44 34.8833H126.203V37.3222H116.44H115.94V37.8222V74.7744H113.663V37.8222V37.3222H113.163H103.346V34.8833H113.163H113.663V34.3833V17.6349H115.888L115.94 34.3849L115.942 34.8833H116.44Z" fill="white" stroke="white"/>
<path d="M270.692 54.3184C270.692 65.6086 261.714 74.7745 250.881 74.7745C239.939 74.7745 230.962 65.6069 230.962 54.3184C230.962 43.03 239.939 33.8624 250.881 33.8624C261.714 33.8624 270.692 43.0283 270.692 54.3184ZM268.629 54.3184C268.629 44.3286 260.68 36.1402 250.881 36.1402C241.031 36.1402 233.025 44.3256 233.025 54.3184C233.025 64.3113 241.031 72.4967 250.881 72.4967C260.68 72.4967 268.629 64.3082 268.629 54.3184Z" fill="white" stroke="white"/>
<path d="M314.464 42.1747V34.5072H317.01V74.7207H314.464V67.107V66.0463L313.646 66.7213L309.347 70.2677L309.345 70.2692C305.888 73.1505 301.595 74.7207 297.092 74.7207C286.423 74.7207 277.71 65.719 277.71 54.6408C277.71 43.5098 286.422 34.5609 297.092 34.5609C301.595 34.5609 305.888 36.1312 309.345 39.0124L309.347 39.014L313.646 42.5604L314.464 43.2354V42.1747ZM314.034 52.4377V52.4055L314.03 52.3735C312.87 43.4268 305.894 37.2148 297.092 37.2148C287.504 37.2148 280.203 44.8162 280.203 54.6408C280.203 64.4697 287.508 71.9594 297.092 71.9594C305.892 71.9594 312.87 65.7494 314.03 56.909L314.034 56.8766V56.8439V52.4377Z" fill="white" stroke="white"/>
<path d="M330.588 38.5084C333.204 36.041 336.44 34.7818 340.062 34.3025V36.2961C332.543 37.1822 326.908 43.7384 325.456 51.2684L325.447 51.3153V51.3631V74.7207H323.599V34.2385H325.447V43.4105V45.2351L326.377 43.6656L326.377 43.6655L326.377 43.6654L326.377 43.6654L326.377 43.6643L326.381 43.6591L326.394 43.6364C326.407 43.616 326.425 43.5852 326.45 43.5447C326.501 43.4638 326.576 43.3444 326.674 43.1933C326.872 42.8911 327.162 42.4625 327.531 41.9608C328.272 40.9554 329.325 39.6662 330.583 38.5132L330.583 38.5133L330.588 38.5084Z" fill="white" stroke="white"/>
<path d="M376.311 43.0881V13.4974H378.535V74.6132H376.311V67.2144V66.1487L375.492 66.8299L371.357 70.2664C371.357 70.2668 371.356 70.2672 371.355 70.2677C367.894 73.0995 363.814 74.6132 359.476 74.6132C349.074 74.6132 340.578 65.8779 340.578 55.1244C340.578 44.4237 349.074 35.6356 359.476 35.6356C363.809 35.6356 367.89 37.1998 371.356 39.9815L375.489 43.4702L376.311 44.1645V43.0881ZM376.039 57.3369L376.043 57.3055V57.2737V52.9751V52.9431L376.038 52.9115C374.931 44.2702 367.939 38.4507 359.476 38.4507C350.116 38.4507 342.964 45.6094 342.964 55.1244C342.964 64.6284 350.105 72.0668 359.476 72.0668C367.95 72.0668 374.932 66.0219 376.039 57.3369Z" fill="white" stroke="white"/>
<path d="M417.954 69.9974C414.461 72.9408 410.022 74.6133 405.365 74.6133C394.533 74.6133 385.661 65.5029 385.661 54.211C385.661 43.0265 394.533 33.8624 405.365 33.8624C416.273 33.8624 424.626 43.1026 425.107 55.323H388.116H387.542L387.621 55.8916C389.161 67.0057 397.551 72.4967 405.365 72.4967C408.488 72.4967 411.745 71.4205 414.411 69.9204L417.954 69.9974ZM422.291 53.1527H422.9L422.781 52.5551C420.593 41.5614 413.219 35.8715 405.365 35.8715C401.472 35.8715 397.472 37.114 394.229 39.8372C390.982 42.5644 388.524 46.7506 387.675 52.5807L387.592 53.1527H388.17H422.291Z" fill="white" stroke="white"/>
<path d="M467.98 43.0881V13.4974H470.204V74.6132H467.98V67.2144V66.1487L467.161 66.8299L463.026 70.2664C463.026 70.2668 463.025 70.2672 463.025 70.2677C459.564 73.0985 455.43 74.6132 451.092 74.6132C440.742 74.6132 432.194 65.877 432.194 55.1244C432.194 44.4247 440.743 35.6356 451.092 35.6356C455.426 35.6356 459.56 37.2008 463.025 39.9815L467.158 43.4702L467.98 44.1645V43.0881ZM467.708 57.3369L467.712 57.3055V57.2737V52.9751V52.9431L467.708 52.9115C466.6 44.2692 459.607 38.4507 451.092 38.4507C441.731 38.4507 434.579 45.6094 434.579 55.1244C434.579 64.6284 441.72 72.0668 451.092 72.0668C459.618 72.0668 466.601 66.023 467.708 57.3369Z" fill="white" stroke="white"/>
<path d="M220.146 42.712C217.19 54.3184 206.229 67.0532 191.613 75.8655C168.83 89.5138 150.83 85.4838 150.077 85.3226" stroke="white" stroke-width="3" stroke-linecap="round" stroke-linejoin="round"/>
<path d="M160.401 72.2696L160.399 72.2703C151.878 77.5506 140.687 74.8858 135.404 66.3616C130.174 57.7829 132.844 46.5928 141.365 41.3651L141.367 41.3639C149.889 36.0835 161.08 38.7484 166.363 47.273C171.592 55.7976 168.976 66.9881 160.401 72.2696ZM144.388 46.3163L144.386 46.3174C138.618 49.9019 136.828 57.4614 140.354 63.2824L140.356 63.2853C143.94 69.1101 151.556 70.9008 157.378 67.3179L157.38 67.3168C163.145 63.735 164.997 56.1212 161.41 50.348C157.826 44.5239 150.21 42.7336 144.388 46.3163Z" fill="white" stroke="white"/>
<path d="M184.406 14.8208L184.408 14.8196C192.93 9.53898 204.121 12.2044 209.404 20.7298C214.684 29.2516 212.019 40.4424 203.495 45.7253C194.97 50.9547 183.779 48.3389 178.498 39.8163C173.215 31.2383 175.884 20.0486 184.406 14.8208ZM204.451 23.8037C200.867 17.9813 193.252 16.1878 187.481 19.7726C181.658 23.3568 179.867 30.9184 183.45 36.741C187.033 42.5641 194.649 44.3579 200.42 40.773C206.242 37.1894 208.036 29.5739 204.451 23.8037Z" fill="white" stroke="white"/>
<mask id="path-13-inside-1_2_321" fill="white">
<path d="M207.733 21.756C212.354 29.3324 209.936 39.2193 202.36 43.8941C194.73 48.5152 184.843 46.0972 180.222 38.5208"/>
</mask>
<path d="M207.733 21.756C212.354 29.3324 209.936 39.2193 202.36 43.8941C194.73 48.5152 184.843 46.0972 180.222 38.5208" fill="#231C16"/>
<path d="M202.36 43.8941L202.878 44.7495L202.885 44.7452L202.36 43.8941ZM206.879 22.2767C211.211 29.3777 208.948 38.6538 201.835 43.0431L202.885 44.7452C210.924 39.7849 213.498 29.2871 208.587 21.2353L206.879 22.2767ZM201.842 43.0388C194.682 47.375 185.409 45.105 181.075 38.0001L179.368 39.0415C184.277 47.0894 194.777 49.6554 202.878 44.7495L201.842 43.0388Z" fill="white" mask="url(#path-13-inside-1_2_321)"/>
<mask id="path-15-inside-2_2_321" fill="white">
<path d="M180.49 38.9506C175.816 31.4279 178.126 21.4873 185.649 16.8125C193.171 12.0839 203.112 14.3945 207.787 21.9171"/>
</mask>
<path d="M180.49 38.9506C175.816 31.4279 178.126 21.4873 185.649 16.8125C193.171 12.0839 203.112 14.3945 207.787 21.9171" fill="#F8BE17"/>
<path d="M185.649 16.8125L186.177 17.6618L186.181 17.6591L185.649 16.8125ZM181.34 38.4228C176.956 31.3682 179.124 22.0445 186.177 17.6618L185.121 15.9631C177.128 20.93 174.675 31.4877 179.641 39.4784L181.34 38.4228ZM186.181 17.6591C193.234 13.2259 202.555 15.3925 206.938 22.445L208.636 21.3893C203.669 13.3964 193.109 10.9419 185.117 15.9658L186.181 17.6591Z" fill="white" mask="url(#path-15-inside-2_2_321)"/>
<path d="M196.536 34.9094L196.536 34.9094L196.533 34.9113C194.304 36.1223 191.604 35.2993 190.444 33.0774L190.445 33.0774L190.438 33.0659C189.233 30.8968 190.049 28.1964 192.274 27.0353L192.274 27.0355L192.286 27.0291C194.452 25.8259 197.157 26.6359 198.373 28.8709C199.532 31.0454 198.71 33.7503 196.536 34.9094Z" fill="white" stroke="white"/>
<mask id="path-18-inside-3_2_321" fill="white">
<path d="M164.693 48.569C169.314 56.1454 166.95 66.0323 159.319 70.6534C151.743 75.2745 141.856 72.9102 137.235 65.3338"/>
</mask>
<path d="M164.693 48.569C169.314 56.1454 166.95 66.0323 159.319 70.6534C151.743 75.2745 141.856 72.9102 137.235 65.3338" fill="#231C16"/>
<path d="M159.319 70.6534L158.801 69.798L158.799 69.7997L159.319 70.6534ZM163.839 49.0897C168.174 56.1965 165.955 65.4655 158.801 69.798L159.837 71.5087C167.944 66.5992 170.454 56.0943 165.546 48.0483L163.839 49.0897ZM158.799 69.7997C151.691 74.135 142.42 71.915 138.089 64.8131L136.381 65.8545C141.292 73.9054 151.795 76.414 159.84 71.5071L158.799 69.7997Z" fill="white" mask="url(#path-18-inside-3_2_321)"/>
<mask id="path-20-inside-4_2_321" fill="white">
<path d="M137.504 65.7099C132.775 58.1872 135.086 48.3003 142.662 43.5717C150.185 38.8969 160.125 41.1537 164.8 48.6764"/>
</mask>
<path d="M137.504 65.7099C132.775 58.1872 135.086 48.3003 142.662 43.5717C150.185 38.8969 160.125 41.1537 164.8 48.6764" fill="#F8BE17"/>
<path d="M142.662 43.5717L142.134 42.7224L142.133 42.7234L142.662 43.5717ZM138.35 65.1777C133.92 58.1289 136.079 48.8588 143.192 44.4201L142.133 42.7234C134.092 47.7417 131.631 58.2455 136.657 66.242L138.35 65.1777ZM143.19 44.4211C150.25 40.034 159.571 42.1567 163.951 49.2042L165.65 48.1486C160.68 40.1507 150.12 37.7598 142.134 42.7224L143.19 44.4211Z" fill="white" mask="url(#path-20-inside-4_2_321)"/>
<path d="M149.24 53.7914C151.472 52.6307 154.174 53.4591 155.331 55.6263C156.495 57.8598 155.666 60.565 153.496 61.7222C151.325 62.8799 148.615 62.0646 147.4 59.8825C146.246 57.7131 147.06 55.0061 149.24 53.7914Z" fill="white" stroke="white"/>
<path d="M164.5 45.5C164.339 42.7058 166.036 39.8641 169.26 38.0372C172.323 36.3177 175.636 36.1029 178 37.5" stroke="white" stroke-width="3" stroke-linecap="round" stroke-linejoin="round"/>
<path d="M183.791 2.44378L183.789 2.44619L174.012 16.307C174.011 16.3074 174.011 16.3078 174.011 16.3081C173.619 16.855 172.906 16.9831 172.399 16.6206L172.392 16.6159L172.385 16.6115L172.232 16.5089C171.718 16.1371 171.591 15.375 171.932 14.8344L181.703 0.983157C181.704 0.98279 181.704 0.982422 181.704 0.982055C182.076 0.463171 182.835 0.34112 183.37 0.723269L183.377 0.727958L183.383 0.732432L183.537 0.835047C184.056 1.21012 184.169 1.91423 183.791 2.44378Z" fill="white" stroke="white"/>
</svg>
