<svg width="28" height="28" viewBox="0 0 28 28" fill="none" xmlns="http://www.w3.org/2000/svg">
<g clip-path="url(#clip0_13_19170)">
<path d="M27.1791 26.3594H26.3041V12.4144C26.3041 12.0613 26.0782 11.7478 25.7432 11.6362L16.4606 8.54195V5.74267C16.4606 5.4007 16.2485 5.09462 15.9283 4.97458L2.80366 0.0528124C2.26795 -0.148055 1.69531 0.248594 1.69531 0.820898V26.3594H0.820312C0.367281 26.3594 0 26.7267 0 27.1797C0 27.6328 0.367281 28 0.820312 28C1.00455 28 26.8237 28 27.1791 28C27.6322 28 27.9995 27.6328 27.9995 27.1797C27.9995 26.7267 27.6322 26.3594 27.1791 26.3594ZM8.25765 26.3594H6.61708V23.0782H8.25765V26.3594ZM11.5388 26.3594H9.89827V23.0782H11.5388V26.3594ZM14.82 9.13318V26.3594H13.1795V22.2579C13.1795 21.8049 12.8122 21.4376 12.3592 21.4376H5.79677C5.34373 21.4376 4.97645 21.8049 4.97645 22.2579V26.3594H3.33588V2.00455L14.82 6.31109V9.13318ZM21.3824 26.3594H19.7418V23.0782H21.3824V26.3594ZM24.6636 26.3594H23.023V22.2579C23.023 21.8049 22.6557 21.4376 22.2027 21.4376H18.9215C18.4685 21.4376 18.1012 21.8049 18.1012 22.2579V26.3594H16.4606V10.2713L24.6636 13.0056V26.3594Z" fill="#101828"/>
<path d="M7.43745 18.1564H5.79688C5.34384 18.1564 4.97656 18.5237 4.97656 18.9767C4.97656 19.4298 5.34379 19.797 5.79688 19.797H7.43745C7.89048 19.797 8.25776 19.4298 8.25776 18.9767C8.25776 18.5237 7.89048 18.1564 7.43745 18.1564Z" fill="#101828"/>
<path d="M12.3593 18.1564H10.7188C10.2657 18.1564 9.89844 18.5237 9.89844 18.9767C9.89844 19.4298 10.2657 19.797 10.7188 19.797H12.3593C12.8124 19.797 13.1796 19.4298 13.1796 18.9767C13.1796 18.5237 12.8124 18.1564 12.3593 18.1564Z" fill="#101828"/>
<path d="M7.43745 14.8753H5.79688C5.34384 14.8753 4.97656 15.2426 4.97656 15.6956C4.97656 16.1486 5.34379 16.5159 5.79688 16.5159H7.43745C7.89048 16.5159 8.25776 16.1486 8.25776 15.6956C8.25776 15.2426 7.89048 14.8753 7.43745 14.8753Z" fill="#101828"/>
<path d="M12.3593 14.8753H10.7188C10.2657 14.8753 9.89844 15.2426 9.89844 15.6956C9.89844 16.1486 10.2657 16.5159 10.7188 16.5159H12.3593C12.8124 16.5159 13.1796 16.1486 13.1796 15.6956C13.1796 15.2426 12.8124 14.8753 12.3593 14.8753Z" fill="#101828"/>
<path d="M22.2031 18.1564H18.9219C18.4688 18.1564 18.1016 18.5237 18.1016 18.9767C18.1016 19.4298 18.4688 19.797 18.9219 19.797H22.2031C22.6561 19.797 23.0234 19.4298 23.0234 18.9767C23.0234 18.5237 22.6561 18.1564 22.2031 18.1564Z" fill="#101828"/>
<path d="M22.2031 14.8753H18.9219C18.4688 14.8753 18.1016 15.2426 18.1016 15.6956C18.1016 16.1486 18.4688 16.5159 18.9219 16.5159H22.2031C22.6561 16.5159 23.0234 16.1486 23.0234 15.6956C23.0234 15.2426 22.6561 14.8753 22.2031 14.8753Z" fill="#101828"/>
<path d="M7.43745 11.5941H5.79688C5.34384 11.5941 4.97656 11.9614 4.97656 12.4144C4.97656 12.8674 5.34379 13.2347 5.79688 13.2347H7.43745C7.89048 13.2347 8.25776 12.8674 8.25776 12.4144C8.2577 11.9614 7.89048 11.5941 7.43745 11.5941Z" fill="#101828"/>
<path d="M12.3593 11.5941H10.7188C10.2657 11.5941 9.89844 11.9614 9.89844 12.4144C9.89844 12.8674 10.2657 13.2347 10.7188 13.2347H12.3593C12.8124 13.2347 13.1796 12.8674 13.1796 12.4144C13.1796 11.9614 12.8124 11.5941 12.3593 11.5941Z" fill="#101828"/>
<path d="M7.43745 8.31288H5.79688C5.34384 8.31288 4.97656 8.68016 4.97656 9.13319C4.97656 9.58623 5.34379 9.95351 5.79688 9.95351H7.43745C7.89048 9.95351 8.25776 9.58623 8.25776 9.13319C8.2577 8.68016 7.89048 8.31288 7.43745 8.31288Z" fill="#101828"/>
<path d="M12.3593 8.31288H10.7188C10.2657 8.31288 9.89844 8.68016 9.89844 9.13319C9.89844 9.58623 10.2657 9.95351 10.7188 9.95351H12.3593C12.8124 9.95351 13.1796 9.58623 13.1796 9.13319C13.1796 8.68016 12.8124 8.31288 12.3593 8.31288Z" fill="#101828"/>
</g>
<defs>
<clipPath id="clip0_13_19170">
<rect width="28" height="28" fill="white"/>
</clipPath>
</defs>
</svg>
