<svg width="232" height="172" viewBox="0 0 232 172" fill="none" xmlns="http://www.w3.org/2000/svg">
<path d="M114.729 144.038C152.942 144.038 183.922 113.057 183.922 74.7075C183.922 36.3576 152.806 5.37744 114.729 5.37744C76.5153 5.37744 45.5352 36.3576 45.5352 74.7075C45.5352 113.057 76.5153 144.038 114.729 144.038Z" fill="#D69000"/>
<path d="M197.474 52.7404C200.564 52.7404 203.069 50.2352 203.069 47.1449C203.069 44.0545 200.564 41.5493 197.474 41.5493C194.384 41.5493 191.878 44.0545 191.878 47.1449C191.878 50.2352 194.384 52.7404 197.474 52.7404Z" fill="#AD7400"/>
<path d="M200.895 30.9059C203.005 30.9059 204.716 29.195 204.716 27.0845C204.716 24.9741 203.005 23.2632 200.895 23.2632C198.784 23.2632 197.073 24.9741 197.073 27.0845C197.073 29.195 198.784 30.9059 200.895 30.9059Z" fill="#AD7400"/>
<path d="M48.6739 29.2606C50.7843 29.2606 52.4952 27.5497 52.4952 25.4393C52.4952 23.3288 50.7843 21.6179 48.6739 21.6179C46.5634 21.6179 44.8525 23.3288 44.8525 25.4393C44.8525 27.5497 46.5634 29.2606 48.6739 29.2606Z" fill="#AD7400"/>
<path d="M25.3363 102.959C29.2557 102.959 32.4331 99.7816 32.4331 95.8622C32.4331 91.9427 29.2557 88.7654 25.3363 88.7654C21.4168 88.7654 18.2395 91.9427 18.2395 95.8622C18.2395 99.7816 21.4168 102.959 25.3363 102.959Z" fill="#AD7400"/>
<g filter="url(#filter0_d_1_26453)">
<path d="M95.7491 111.71L40.9031 122.962C40.1014 123.086 39.3659 122.669 39.2415 121.868L22.5162 39.9955C22.3918 39.1938 22.8084 38.4583 23.6101 38.3339L78.4562 27.0826C79.2579 26.9582 79.9934 27.3748 80.1177 28.1765L96.9326 110.045C97.0531 110.757 96.5509 111.586 95.7491 111.71Z" fill="#FFAB00"/>
</g>
<path d="M37.6086 79.4668L59.0687 75.0572" stroke="#AD7400" stroke-width="2" stroke-miterlimit="10" stroke-linecap="round" stroke-linejoin="round"/>
<path d="M65.4637 73.7625L70.1765 72.7944" stroke="#AD7400" stroke-width="2" stroke-miterlimit="10" stroke-linecap="round" stroke-linejoin="round"/>
<path d="M75.9012 71.6145L80.614 70.6465" stroke="#AD7400" stroke-width="2" stroke-miterlimit="10" stroke-linecap="round" stroke-linejoin="round"/>
<path d="M38.7929 85.2744L60.253 80.8648" stroke="#AD7400" stroke-width="2" stroke-miterlimit="10" stroke-linecap="round" stroke-linejoin="round"/>
<path d="M66.6458 79.4856L71.3623 78.6023" stroke="#AD7400" stroke-width="2" stroke-miterlimit="10" stroke-linecap="round" stroke-linejoin="round"/>
<path d="M77.0015 77.4253L81.7143 76.4573" stroke="#AD7400" stroke-width="2" stroke-miterlimit="10" stroke-linecap="round" stroke-linejoin="round"/>
<path d="M39.9738 90.9983L61.4339 86.5887" stroke="#AD7400" stroke-width="2" stroke-miterlimit="10" stroke-linecap="round" stroke-linejoin="round"/>
<path d="M67.8321 85.291L72.5449 84.323" stroke="#AD7400" stroke-width="2" stroke-miterlimit="10" stroke-linecap="round" stroke-linejoin="round"/>
<path d="M78.1827 83.1463L82.8955 82.1782" stroke="#AD7400" stroke-width="2" stroke-miterlimit="10" stroke-linecap="round" stroke-linejoin="round"/>
<path d="M41.1559 96.7214L62.6197 92.3965" stroke="#AD7400" stroke-width="2" stroke-miterlimit="10" stroke-linecap="round" stroke-linejoin="round"/>
<path d="M44.4881 112.877L50.5459 111.596" stroke="#AD7400" stroke-width="2" stroke-miterlimit="10" stroke-linecap="round" stroke-linejoin="round"/>
<path d="M43.6266 108.669L54.4008 106.505" stroke="#AD7400" stroke-width="2" stroke-miterlimit="10" stroke-linecap="round" stroke-linejoin="round"/>
<path d="M76.7298 104.522L87.4193 102.361" stroke="#AD7400" stroke-width="2" stroke-miterlimit="10" stroke-linecap="round" stroke-linejoin="round"/>
<path d="M69.0132 91.0149L73.726 90.0469" stroke="#AD7400" stroke-width="2" stroke-miterlimit="10" stroke-linecap="round" stroke-linejoin="round"/>
<path d="M79.3684 88.9539L84.0813 87.9858" stroke="#AD7400" stroke-width="2" stroke-miterlimit="10" stroke-linecap="round" stroke-linejoin="round"/>
<path d="M44.8604 48.3252C43.0127 48.7137 41.7238 50.2913 41.5108 52.2143C41.4452 52.6364 41.7491 52.9808 42.1516 53.0594C42.554 53.1381 42.8742 52.8258 42.9398 52.4037C43.0626 51.153 43.9903 50.0597 45.1729 49.811C46.3554 49.5623 47.6284 50.1112 48.2611 51.2847C48.4911 51.6447 48.91 51.8016 49.2466 51.5674C49.5833 51.3333 49.7228 50.8957 49.4927 50.5358C48.5068 48.7833 46.7081 47.9366 44.8604 48.3252Z" fill="#FFD37A"/>
<path d="M61.8165 44.7585C59.9688 45.147 58.6799 46.7247 58.4668 48.6476C58.4012 49.0697 58.7052 49.4141 59.1076 49.4928C59.51 49.5715 59.8302 49.2592 59.8958 48.8371C60.0187 47.5864 60.9464 46.493 62.1289 46.2443C63.3114 45.9957 64.5845 46.5446 65.2171 47.7181C65.4472 48.078 65.866 48.2349 66.2027 48.0008C66.5393 47.7667 66.6788 47.329 66.4488 46.9691C65.4629 45.2166 63.6641 44.37 61.8165 44.7585Z" fill="#FFD37A"/>
<path d="M50.5523 54.7383L51.6204 54.5053C52.9543 56.28 55.4982 56.4998 57.1729 55.1017C57.8406 54.6118 58.3545 53.8111 58.5219 53L59.59 52.767C59.2418 55.5111 56.5707 57.4708 53.8908 57.0225C52.6331 56.7805 51.3499 56.0275 50.5523 54.7383Z" fill="#FFD37A"/>
<circle opacity="0.4" cx="67.7429" cy="54.8968" r="2.88791" transform="rotate(-11.8756 67.7429 54.8968)" fill="#5C3E00"/>
<circle opacity="0.4" cx="43.5188" cy="59.9906" r="2.88791" transform="rotate(-11.8756 43.5188 59.9906)" fill="#5C3E00"/>
<g filter="url(#filter1_d_1_26453)">
<path d="M147.969 134.949L87.4598 138.492C86.5868 138.583 85.9132 137.9 85.8225 137.027L80.5524 46.8448C80.4617 45.9718 81.145 45.2981 82.018 45.2074L142.527 41.6645C143.4 41.5738 144.074 42.2571 144.164 43.1301L149.435 133.312C149.428 134.184 148.842 134.859 147.969 134.949Z" fill="#FFAB00"/>
</g>
<path d="M107.078 93.7014L136.138 92.0051" stroke="#AD7400" stroke-width="2" stroke-miterlimit="10" stroke-linecap="round" stroke-linejoin="round"/>
<path d="M106.785 88.4026L135.762 86.7056" stroke="#AD7400" stroke-width="2" stroke-miterlimit="10" stroke-linecap="round" stroke-linejoin="round"/>
<path d="M107.372 99L136.431 97.3036" stroke="#AD7400" stroke-width="2" stroke-miterlimit="10" stroke-linecap="round" stroke-linejoin="round"/>
<path d="M94.0891 105.029L136.726 102.519" stroke="#AD7400" stroke-width="2" stroke-miterlimit="10" stroke-linecap="round" stroke-linejoin="round"/>
<path d="M94.3815 110.329L118.757 108.848" stroke="#AD7400" stroke-width="2" stroke-miterlimit="10" stroke-linecap="round" stroke-linejoin="round"/>
<path d="M95.4302 128.033L101.474 127.662" stroke="#AD7400" stroke-width="2" stroke-miterlimit="10" stroke-linecap="round" stroke-linejoin="round"/>
<path d="M95.212 123.894L105.892 123.225" stroke="#AD7400" stroke-width="2" stroke-miterlimit="10" stroke-linecap="round" stroke-linejoin="round"/>
<path d="M127.251 121.971L137.848 121.384" stroke="#AD7400" stroke-width="2" stroke-miterlimit="10" stroke-linecap="round" stroke-linejoin="round"/>
<mask id="path-36-inside-1_1_26453" fill="white">
<path d="M102.997 100.125C102.914 100.124 102.831 100.124 102.831 100.041L101.436 97.0554L96.2092 97.3329L95.1981 100.459C95.1977 100.542 95.1143 100.624 95.0314 100.623L93.9528 100.694C93.8698 100.694 93.7869 100.693 93.7873 100.61C93.7048 100.527 93.7048 100.527 93.7881 100.445L97.4945 89.1742C97.4949 89.0917 97.5783 89.0099 97.6612 89.0108L99.1545 88.9433C99.2375 88.9441 99.3204 88.945 99.32 89.0275L104.408 99.8093C104.408 99.8918 104.407 99.9743 104.407 99.9743C104.407 100.057 104.324 100.056 104.241 100.055L102.997 100.125ZM96.548 95.9331L100.779 95.7281L98.3181 90.3381L96.548 95.9331Z"/>
</mask>
<path d="M102.997 100.125C102.914 100.124 102.831 100.124 102.831 100.041L101.436 97.0554L96.2092 97.3329L95.1981 100.459C95.1977 100.542 95.1143 100.624 95.0314 100.623L93.9528 100.694C93.8698 100.694 93.7869 100.693 93.7873 100.61C93.7048 100.527 93.7048 100.527 93.7881 100.445L97.4945 89.1742C97.4949 89.0917 97.5783 89.0099 97.6612 89.0108L99.1545 88.9433C99.2375 88.9441 99.3204 88.945 99.32 89.0275L104.408 99.8093C104.408 99.8918 104.407 99.9743 104.407 99.9743C104.407 100.057 104.324 100.056 104.241 100.055L102.997 100.125ZM96.548 95.9331L100.779 95.7281L98.3181 90.3381L96.548 95.9331Z" fill="#FFAB00"/>
<path d="M102.997 100.125L102.986 102.125L103.053 102.126L103.119 102.122L102.997 100.125ZM102.831 100.041L104.831 100.061L104.833 99.6107L104.642 99.2018L102.831 100.041ZM101.436 97.0554L103.247 96.2162L102.673 94.9864L101.32 95.0582L101.436 97.0554ZM96.2092 97.3329L96.0932 95.3356L94.7266 95.4082L94.306 96.7087L96.2092 97.3329ZM95.1981 100.459L93.2949 99.8352L93.1998 100.129L93.1982 100.439L95.1981 100.459ZM95.0314 100.623L95.0415 98.6227L94.9651 98.622L94.8888 98.627L95.0314 100.623ZM93.9528 100.694L93.9427 102.694L94.0191 102.695L94.0954 102.69L93.9528 100.694ZM93.7873 100.61L95.7872 100.63L95.7914 99.799L95.2051 99.2067L93.7873 100.61ZM93.7881 100.445L95.1917 101.877L95.537 101.538L95.6883 101.079L93.7881 100.445ZM97.4945 89.1742L99.3946 89.8077L99.4928 89.5091L99.4944 89.1943L97.4945 89.1742ZM97.6612 89.0108L97.6511 91.0108L97.7064 91.0113L97.7615 91.0088L97.6612 89.0108ZM99.1545 88.9433L99.1646 86.9433L99.1094 86.9428L99.0542 86.9453L99.1545 88.9433ZM99.32 89.0275L97.3201 89.0073L97.3178 89.4619L97.5122 89.8737L99.32 89.0275ZM104.408 99.8093L106.408 99.8294L106.41 99.3749L106.216 98.9631L104.408 99.8093ZM104.241 100.055L104.251 98.0552L104.185 98.0546L104.119 98.0583L104.241 100.055ZM96.548 95.9331L94.641 95.3211L93.7712 98.0705L96.6548 97.9308L96.548 95.9331ZM100.779 95.7281L100.886 97.7259L103.821 97.5837L102.598 94.9049L100.779 95.7281ZM98.3181 90.3381L100.137 89.5149L97.9753 84.7815L96.411 89.726L98.3181 90.3381ZM103.007 98.1252C102.972 98.1249 103.019 98.1246 103.078 98.1291C103.132 98.1332 103.306 98.1478 103.522 98.2218C103.749 98.2997 104.122 98.4778 104.427 98.8732C104.746 99.2868 104.833 99.7338 104.831 100.061L100.831 100.021C100.829 100.389 100.926 100.868 101.263 101.305C101.586 101.723 101.985 101.917 102.243 102.006C102.491 102.09 102.701 102.11 102.793 102.118C102.891 102.125 102.98 102.125 102.986 102.125L103.007 98.1252ZM104.642 99.2018L103.247 96.2162L99.625 97.8946L101.02 100.88L104.642 99.2018ZM101.32 95.0582L96.0932 95.3356L96.3252 99.3302L101.552 99.0527L101.32 95.0582ZM94.306 96.7087L93.2949 99.8352L97.1013 101.083L98.1124 97.9571L94.306 96.7087ZM93.1982 100.439C93.2013 99.8265 93.491 99.3866 93.7422 99.1404C93.994 98.8936 94.436 98.6166 95.0415 98.6227L95.0213 102.623C95.7097 102.63 96.2349 102.312 96.5492 102.004C96.8629 101.697 97.1945 101.175 97.198 100.479L93.1982 100.439ZM94.8888 98.627L93.8102 98.6987L94.0954 102.69L95.174 102.618L94.8888 98.627ZM93.9629 98.6944C93.928 98.694 93.9756 98.6937 94.0343 98.6982C94.088 98.7023 94.2618 98.717 94.478 98.791C94.7053 98.8688 95.0786 99.0469 95.3832 99.4423C95.7019 99.8559 95.7889 100.303 95.7872 100.63L91.7874 100.59C91.7855 100.959 91.8827 101.437 92.2194 101.874C92.5421 102.293 92.9412 102.486 93.1996 102.575C93.4468 102.659 93.6569 102.68 93.7494 102.687C93.847 102.694 93.9361 102.694 93.9427 102.694L93.9629 98.6944ZM95.2051 99.2067C95.15 99.151 95.2304 99.2281 95.3059 99.3233C95.3715 99.4061 95.7289 99.8532 95.7254 100.547C95.7219 101.241 95.36 101.681 95.2936 101.762C95.2172 101.856 95.136 101.932 95.1917 101.877L92.3846 99.0132C92.3785 99.0192 92.3535 99.0436 92.3285 99.0691C92.3048 99.0933 92.25 99.1499 92.1889 99.2248C92.1016 99.3318 91.7292 99.7923 91.7256 100.507C91.722 101.221 92.0897 101.689 92.1759 101.798C92.2363 101.874 92.2905 101.932 92.3139 101.957C92.3387 101.983 92.3635 102.008 92.3695 102.014L95.2051 99.2067ZM95.6883 101.079L99.3946 89.8077L95.5944 88.5407L91.888 99.8116L95.6883 101.079ZM99.4944 89.1943C99.4913 89.807 99.2016 90.2468 98.9504 90.4931C98.6986 90.7399 98.2566 91.0169 97.6511 91.0108L97.6713 87.0108C96.9828 87.0039 96.4577 87.3213 96.1433 87.6294C95.8296 87.9369 95.4981 88.4589 95.4946 89.154L99.4944 89.1943ZM97.7615 91.0088L99.2549 90.9413L99.0542 86.9453L97.5609 87.0127L97.7615 91.0088ZM99.1444 90.9433C99.1793 90.9436 99.1317 90.9439 99.073 90.9395C99.0193 90.9354 98.8455 90.9207 98.6293 90.8467C98.4019 90.7688 98.0287 90.5907 97.7241 90.1954C97.4053 89.7817 97.3184 89.3347 97.3201 89.0073L101.32 89.0477C101.322 88.679 101.225 88.201 100.888 87.7639C100.565 87.3452 100.166 87.1513 99.9077 87.0628C99.6605 86.9782 99.4504 86.958 99.3579 86.9509C99.2603 86.9435 99.1712 86.9434 99.1646 86.9433L99.1444 90.9433ZM97.5122 89.8737L102.6 100.655L106.216 98.9631L101.128 88.1813L97.5122 89.8737ZM102.408 99.7891C102.408 99.7893 102.408 99.7894 102.408 99.7896C102.408 99.7898 102.408 99.7899 102.408 99.7901C102.408 99.7902 102.408 99.7904 102.408 99.7906C102.408 99.7907 102.408 99.7909 102.408 99.791C102.408 99.7912 102.408 99.7914 102.408 99.7915C102.408 99.7917 102.408 99.7919 102.408 99.792C102.408 99.7922 102.408 99.7923 102.408 99.7925C102.408 99.7927 102.408 99.7928 102.408 99.793C102.408 99.7931 102.408 99.7933 102.408 99.7935C102.408 99.7936 102.408 99.7938 102.408 99.7939C102.408 99.7941 102.408 99.7943 102.408 99.7944C102.408 99.7946 102.408 99.7948 102.408 99.7949C102.408 99.7951 102.408 99.7952 102.408 99.7954C102.408 99.7956 102.408 99.7957 102.408 99.7959C102.408 99.796 102.408 99.7962 102.408 99.7964C102.408 99.7965 102.408 99.7967 102.408 99.7968C102.408 99.797 102.408 99.7972 102.408 99.7973C102.408 99.7975 102.408 99.7977 102.408 99.7978C102.408 99.798 102.408 99.7981 102.408 99.7983C102.408 99.7985 102.408 99.7986 102.408 99.7988C102.408 99.7989 102.408 99.7991 102.408 99.7993C102.408 99.7994 102.408 99.7996 102.408 99.7997C102.408 99.7999 102.408 99.8001 102.408 99.8002C102.408 99.8004 102.408 99.8005 102.408 99.8007C102.408 99.8009 102.408 99.801 102.408 99.8012C102.408 99.8014 102.408 99.8015 102.408 99.8017C102.408 99.8018 102.408 99.802 102.408 99.8022C102.408 99.8023 102.408 99.8025 102.408 99.8026C102.408 99.8028 102.408 99.803 102.408 99.8031C102.408 99.8033 102.408 99.8034 102.408 99.8036C102.408 99.8038 102.408 99.8039 102.408 99.8041C102.408 99.8042 102.408 99.8044 102.408 99.8046C102.408 99.8047 102.408 99.8049 102.408 99.805C102.408 99.8052 102.408 99.8054 102.408 99.8055C102.408 99.8057 102.408 99.8059 102.408 99.806C102.408 99.8062 102.408 99.8063 102.408 99.8065C102.408 99.8067 102.408 99.8068 102.408 99.807C102.408 99.8071 102.408 99.8073 102.408 99.8075C102.408 99.8076 102.408 99.8078 102.408 99.8079C102.408 99.8081 102.408 99.8083 102.408 99.8084C102.408 99.8086 102.408 99.8087 102.408 99.8089C102.408 99.8091 102.408 99.8092 102.408 99.8094C102.408 99.8095 102.408 99.8097 102.408 99.8099C102.408 99.81 102.408 99.8102 102.408 99.8103C102.408 99.8105 102.408 99.8107 102.408 99.8108C102.408 99.811 102.408 99.8111 102.408 99.8113C102.408 99.8115 102.408 99.8116 102.408 99.8118C102.408 99.8119 102.408 99.8121 102.408 99.8123C102.408 99.8124 102.408 99.8126 102.408 99.8127C102.408 99.8129 102.408 99.8131 102.408 99.8132C102.408 99.8134 102.408 99.8135 102.408 99.8137C102.408 99.8139 102.408 99.814 102.408 99.8142C102.408 99.8143 102.408 99.8145 102.408 99.8147C102.408 99.8148 102.408 99.815 102.408 99.8151C102.408 99.8153 102.408 99.8154 102.408 99.8156C102.408 99.8158 102.408 99.8159 102.408 99.8161C102.408 99.8162 102.408 99.8164 102.408 99.8166C102.408 99.8167 102.408 99.8169 102.408 99.817C102.408 99.8172 102.408 99.8174 102.408 99.8175C102.408 99.8177 102.408 99.8178 102.408 99.818C102.408 99.8182 102.408 99.8183 102.408 99.8185C102.408 99.8186 102.408 99.8188 102.408 99.8189C102.408 99.8191 102.408 99.8193 102.408 99.8194C102.408 99.8196 102.408 99.8197 102.408 99.8199C102.408 99.8201 102.408 99.8202 102.408 99.8204C102.408 99.8205 102.408 99.8207 102.408 99.8209C102.408 99.821 102.408 99.8212 102.408 99.8213C102.408 99.8215 102.408 99.8216 102.408 99.8218C102.408 99.822 102.408 99.8221 102.408 99.8223C102.408 99.8224 102.408 99.8226 102.408 99.8228C102.408 99.8229 102.408 99.8231 102.408 99.8232C102.408 99.8234 102.408 99.8235 102.408 99.8237C102.408 99.8239 102.408 99.824 102.408 99.8242C102.408 99.8243 102.408 99.8245 102.408 99.8246C102.408 99.8248 102.408 99.825 102.408 99.8251C102.408 99.8253 102.408 99.8254 102.408 99.8256C102.408 99.8258 102.408 99.8259 102.408 99.8261C102.408 99.8262 102.408 99.8264 102.408 99.8265C102.408 99.8267 102.408 99.8269 102.408 99.827C102.408 99.8272 102.408 99.8273 102.408 99.8275C102.408 99.8276 102.408 99.8278 102.408 99.828C102.408 99.8281 102.408 99.8283 102.408 99.8284C102.408 99.8286 102.408 99.8287 102.408 99.8289C102.408 99.8291 102.408 99.8292 102.408 99.8294C102.408 99.8295 102.408 99.8297 102.408 99.8298C102.408 99.83 102.408 99.8302 102.408 99.8303C102.408 99.8305 102.408 99.8306 102.408 99.8308C102.408 99.8309 102.408 99.8311 102.408 99.8313C102.408 99.8314 102.408 99.8316 102.408 99.8317C102.408 99.8319 102.408 99.832 102.408 99.8322C102.408 99.8323 102.408 99.8325 102.408 99.8327C102.408 99.8328 102.408 99.833 102.408 99.8331C102.408 99.8333 102.408 99.8334 102.408 99.8336C102.408 99.8337 102.408 99.8339 102.408 99.8341C102.408 99.8342 102.408 99.8344 102.408 99.8345C102.408 99.8347 102.408 99.8348 102.408 99.835C102.408 99.8352 102.408 99.8353 102.408 99.8355C102.408 99.8356 102.408 99.8358 102.408 99.8359C102.408 99.8361 102.408 99.8362 102.408 99.8364C102.408 99.8365 102.408 99.8367 102.408 99.8369C102.408 99.837 102.408 99.8372 102.408 99.8373C102.408 99.8375 102.408 99.8376 102.408 99.8378C102.408 99.8379 102.408 99.8381 102.408 99.8383C102.408 99.8384 102.408 99.8386 102.408 99.8387C102.408 99.8389 102.408 99.839 102.408 99.8392C102.408 99.8393 102.408 99.8395 102.408 99.8396C102.408 99.8398 102.408 99.84 102.408 99.8401C102.408 99.8403 102.408 99.8404 102.408 99.8406C102.408 99.8407 102.408 99.8409 102.408 99.841C102.408 99.8412 102.408 99.8413 102.408 99.8415C102.408 99.8416 102.408 99.8418 102.408 99.842C102.408 99.8421 102.408 99.8423 102.408 99.8424C102.408 99.8426 102.408 99.8427 102.408 99.8429C102.408 99.843 102.408 99.8432 102.408 99.8433C102.408 99.8435 102.408 99.8436 102.408 99.8438C102.408 99.8439 102.408 99.8441 102.408 99.8443C102.408 99.8444 102.408 99.8446 102.408 99.8447C102.408 99.8449 102.408 99.845 102.408 99.8452C102.408 99.8453 102.408 99.8455 102.408 99.8456C102.408 99.8458 102.408 99.8459 102.408 99.8461C102.408 99.8462 102.408 99.8464 102.408 99.8465C102.408 99.8467 102.408 99.8468 102.408 99.847C102.408 99.8471 102.408 99.8473 102.408 99.8475C102.408 99.8476 102.408 99.8478 102.408 99.8479C102.408 99.8481 102.408 99.8482 102.408 99.8484C102.408 99.8485 102.408 99.8487 102.408 99.8488C102.408 99.849 102.408 99.8491 102.408 99.8493C102.408 99.8494 102.408 99.8496 102.408 99.8497C102.408 99.8499 102.408 99.85 102.408 99.8502C102.408 99.8503 102.408 99.8505 102.408 99.8506C102.408 99.8508 102.408 99.8509 102.408 99.8511C102.408 99.8512 102.408 99.8514 102.408 99.8515C102.408 99.8517 102.408 99.8518 102.408 99.852C102.408 99.8521 102.408 99.8523 102.408 99.8524C102.408 99.8526 102.408 99.8527 102.408 99.8529C102.408 99.853 102.408 99.8532 102.408 99.8533C102.408 99.8535 102.408 99.8536 102.408 99.8538C102.408 99.8539 102.408 99.8541 102.408 99.8542C102.408 99.8544 102.408 99.8545 102.408 99.8547C102.408 99.8548 102.408 99.855 102.408 99.8551C102.408 99.8553 102.408 99.8554 102.408 99.8556C102.408 99.8557 102.408 99.8559 102.408 99.856C102.408 99.8562 102.408 99.8563 102.408 99.8565C102.408 99.8566 102.408 99.8568 102.408 99.8569C102.408 99.8571 102.408 99.8572 102.408 99.8574C102.408 99.8575 102.408 99.8577 102.408 99.8578C102.408 99.858 102.408 99.8581 102.408 99.8582C102.408 99.8584 102.408 99.8585 102.408 99.8587C102.408 99.8588 102.408 99.859 102.408 99.8591C102.408 99.8593 102.408 99.8594 102.408 99.8596C102.408 99.8597 102.408 99.8599 102.408 99.86C102.408 99.8602 102.408 99.8603 102.408 99.8605C102.408 99.8606 102.408 99.8608 102.408 99.8609C102.408 99.861 102.408 99.8612 102.408 99.8613C102.408 99.8615 102.408 99.8616 102.408 99.8618C102.408 99.8619 102.408 99.8621 102.408 99.8622C102.408 99.8624 102.408 99.8625 102.408 99.8627C102.408 99.8628 102.408 99.863 102.408 99.8631C102.408 99.8632 102.408 99.8634 102.408 99.8635C102.408 99.8637 102.408 99.8638 102.408 99.864C102.408 99.8641 102.408 99.8643 102.408 99.8644C102.408 99.8646 102.408 99.8647 102.408 99.8648C102.408 99.865 102.408 99.8651 102.408 99.8653C102.408 99.8654 102.408 99.8656 102.408 99.8657C102.408 99.8659 102.408 99.866 102.408 99.8661C102.408 99.8663 102.408 99.8664 102.408 99.8666C102.408 99.8667 102.408 99.8669 102.408 99.867C102.408 99.8672 102.408 99.8673 102.408 99.8674C102.408 99.8676 102.408 99.8677 102.408 99.8679C102.408 99.868 102.408 99.8682 102.408 99.8683C102.408 99.8684 102.408 99.8686 102.408 99.8687C102.408 99.8689 102.408 99.869 102.408 99.8692C102.408 99.8693 102.408 99.8695 102.408 99.8696C102.408 99.8697 102.408 99.8699 102.408 99.87C102.408 99.8702 102.408 99.8703 102.408 99.8704C102.408 99.8706 102.408 99.8707 102.408 99.8709C102.408 99.871 102.408 99.8712 102.408 99.8713C102.408 99.8714 102.408 99.8716 102.408 99.8717C102.408 99.8719 102.408 99.872 102.408 99.8722C102.408 99.8723 102.408 99.8724 102.408 99.8726C102.408 99.8727 102.408 99.8729 102.408 99.873C102.408 99.8731 102.408 99.8733 102.408 99.8734C102.408 99.8736 102.408 99.8737 102.408 99.8738C102.408 99.874 102.408 99.8741 102.408 99.8743C102.408 99.8744 102.408 99.8745 102.408 99.8747C102.408 99.8748 102.408 99.875 102.408 99.8751C102.408 99.8752 102.408 99.8754 102.408 99.8755C102.408 99.8757 102.408 99.8758 102.408 99.8759C102.408 99.8761 102.408 99.8762 102.408 99.8764C102.408 99.8765 102.408 99.8766 102.408 99.8768C102.408 99.8769 102.408 99.8771 102.408 99.8772C102.408 99.8773 102.408 99.8775 102.408 99.8776C102.408 99.8778 102.408 99.8779 102.408 99.878C102.408 99.8782 102.408 99.8783 102.408 99.8784C102.408 99.8786 102.408 99.8787 102.408 99.8789C102.408 99.879 102.408 99.8791 102.408 99.8793C102.408 99.8794 102.408 99.8795 102.408 99.8797C102.408 99.8798 102.408 99.88 102.408 99.8801C102.408 99.8802 102.408 99.8804 102.408 99.8805C102.408 99.8806 102.408 99.8808 102.408 99.8809C102.408 99.8811 102.408 99.8812 102.408 99.8813C102.408 99.8815 102.408 99.8816 102.408 99.8817C102.408 99.8819 102.408 99.882 102.408 99.8821C102.408 99.8823 102.408 99.8824 102.408 99.8825C102.408 99.8827 102.408 99.8828 102.408 99.883C102.408 99.8831 102.408 99.8832 102.408 99.8834C102.408 99.8835 102.408 99.8836 102.408 99.8838C102.408 99.8839 102.408 99.884 102.408 99.8842C102.408 99.8843 102.408 99.8844 102.408 99.8846C102.408 99.8847 102.408 99.8848 102.408 99.885C102.408 99.8851 102.408 99.8852 102.408 99.8854C102.408 99.8855 102.408 99.8856 102.408 99.8858C102.408 99.8859 102.408 99.886 102.408 99.8862C102.408 99.8863 102.408 99.8864 102.408 99.8866C102.408 99.8867 102.408 99.8868 102.408 99.887C102.408 99.8871 102.408 99.8872 102.408 99.8874C102.408 99.8875 102.408 99.8876 102.408 99.8878C102.408 99.8879 102.408 99.888 102.408 99.8882C102.408 99.8883 102.408 99.8884 102.408 99.8886C102.408 99.8887 102.408 99.8888 102.408 99.889C102.408 99.8891 102.408 99.8892 102.408 99.8894C102.408 99.8895 102.408 99.8896 102.408 99.8897C102.408 99.8899 102.408 99.89 102.408 99.8901C102.408 99.8903 102.408 99.8904 102.408 99.8905C102.408 99.8907 102.408 99.8908 102.408 99.8909C102.408 99.8911 102.408 99.8912 102.408 99.8913C102.408 99.8914 102.408 99.8916 102.408 99.8917C102.408 99.8918 102.408 99.892 102.408 99.8921C102.408 99.8922 102.408 99.8923 102.408 99.8925C102.408 99.8926 102.408 99.8927 102.408 99.8929C102.408 99.893 102.408 99.8931 102.408 99.8932C102.408 99.8934 102.408 99.8935 102.408 99.8936C102.408 99.8938 102.408 99.8939 102.408 99.894C102.408 99.8941 102.408 99.8943 102.408 99.8944C102.408 99.8945 102.408 99.8947 102.408 99.8948C102.408 99.8949 102.408 99.895 102.408 99.8952C102.408 99.8953 102.408 99.8954 102.408 99.8955C102.408 99.8957 102.408 99.8958 102.408 99.8959C102.408 99.896 102.408 99.8962 102.408 99.8963C102.408 99.8964 102.408 99.8966 102.408 99.8967C102.408 99.8968 102.408 99.8969 102.408 99.8971C102.408 99.8972 102.408 99.8973 102.408 99.8974C102.408 99.8976 102.408 99.8977 102.408 99.8978C102.408 99.8979 102.408 99.8981 102.408 99.8982C102.408 99.8983 102.408 99.8984 102.408 99.8986C102.408 99.8987 102.408 99.8988 102.408 99.8989C102.408 99.899 102.408 99.8992 102.408 99.8993C102.408 99.8994 102.408 99.8995 102.408 99.8997C102.408 99.8998 102.408 99.8999 102.408 99.9C102.408 99.9002 102.408 99.9003 102.408 99.9004C102.408 99.9005 102.408 99.9007 102.408 99.9008C102.408 99.9009 102.408 99.901 102.408 99.9011C102.408 99.9013 102.408 99.9014 102.408 99.9015C102.408 99.9016 102.408 99.9018 102.408 99.9019C102.408 99.902 102.408 99.9021 102.408 99.9022C102.408 99.9024 102.408 99.9025 102.408 99.9026C102.408 99.9027 102.408 99.9028 102.408 99.903C102.408 99.9031 102.408 99.9032 102.408 99.9033C102.408 99.9034 102.408 99.9036 102.408 99.9037C102.408 99.9038 102.408 99.9039 102.408 99.904C102.408 99.9042 102.408 99.9043 102.408 99.9044C102.408 99.9045 102.408 99.9046 102.408 99.9048C102.408 99.9049 102.408 99.905 102.408 99.9051C102.408 99.9052 102.408 99.9054 102.408 99.9055C102.408 99.9056 102.408 99.9057 102.408 99.9058C102.408 99.9059 102.408 99.9061 102.408 99.9062C102.408 99.9063 102.408 99.9064 102.408 99.9065C102.408 99.9066 102.408 99.9068 102.408 99.9069C102.408 99.907 102.408 99.9071 102.408 99.9072C102.408 99.9074 102.408 99.9075 102.408 99.9076C102.408 99.9077 102.408 99.9078 102.408 99.9079C102.408 99.908 102.408 99.9082 102.408 99.9083C102.408 99.9084 102.408 99.9085 102.408 99.9086C102.408 99.9087 102.408 99.9089 102.408 99.909C102.408 99.9091 102.408 99.9092 102.408 99.9093C102.408 99.9094 102.408 99.9095 102.408 99.9097C102.408 99.9098 102.408 99.9099 102.408 99.91C102.408 99.9101 102.408 99.9102 102.408 99.9103C102.408 99.9105 102.408 99.9106 102.408 99.9107C102.408 99.9108 102.408 99.9109 102.408 99.911C102.408 99.9111 102.408 99.9112 102.408 99.9114C102.408 99.9115 102.408 99.9116 102.408 99.9117C102.408 99.9118 102.408 99.9119 102.408 99.912C102.408 99.9121 102.408 99.9123 102.408 99.9124C102.408 99.9125 102.408 99.9126 102.408 99.9127C102.408 99.9128 102.408 99.9129 102.408 99.913C102.408 99.9132 102.408 99.9133 102.408 99.9134C102.408 99.9135 102.408 99.9136 102.408 99.9137C102.408 99.9138 102.408 99.9139 102.408 99.914C102.408 99.9141 102.408 99.9143 102.408 99.9144C102.408 99.9145 102.408 99.9146 102.408 99.9147C102.408 99.9148 102.408 99.9149 102.408 99.915C102.408 99.9151 102.408 99.9152 102.408 99.9153C102.408 99.9155 102.408 99.9156 102.408 99.9157C102.408 99.9158 102.408 99.9159 102.408 99.916C102.408 99.9161 102.408 99.9162 102.408 99.9163C102.408 99.9164 102.408 99.9165 102.408 99.9166C102.408 99.9167 102.408 99.9168 102.408 99.917C102.408 99.9171 102.408 99.9172 102.408 99.9173C102.408 99.9174 102.408 99.9175 102.408 99.9176C102.408 99.9177 102.408 99.9178 102.408 99.9179C102.408 99.918 102.408 99.9181 102.408 99.9182C102.408 99.9183 102.408 99.9184 102.408 99.9185C102.408 99.9186 102.408 99.9187 102.408 99.9189C102.408 99.919 102.408 99.9191 102.408 99.9192C102.408 99.9193 102.408 99.9194 102.408 99.9195C102.408 99.9196 102.408 99.9197 102.408 99.9198C102.408 99.9199 102.408 99.92 102.408 99.9201C102.408 99.9202 102.408 99.9203 102.408 99.9204C102.408 99.9205 102.408 99.9206 102.408 99.9207C102.408 99.9208 102.408 99.9209 102.408 99.921C102.408 99.9211 102.408 99.9212 102.408 99.9213C102.408 99.9214 102.408 99.9215 102.408 99.9216C102.408 99.9217 102.408 99.9218 102.408 99.9219C102.408 99.922 102.408 99.9221 102.408 99.9222C102.408 99.9223 102.408 99.9224 102.408 99.9225C102.408 99.9226 102.408 99.9227 102.408 99.9228C102.408 99.9229 102.408 99.923 102.408 99.9231C102.408 99.9232 102.408 99.9233 102.408 99.9234C102.408 99.9235 102.408 99.9236 102.408 99.9237C102.408 99.9238 102.408 99.9239 102.408 99.924C102.408 99.9241 102.408 99.9242 102.408 99.9243C102.408 99.9244 102.408 99.9245 102.408 99.9246C102.408 99.9247 102.408 99.9248 102.408 99.9249C102.408 99.925 102.408 99.9251 102.408 99.9252C102.408 99.9253 102.408 99.9254 102.408 99.9255C102.408 99.9256 102.408 99.9257 102.408 99.9258C102.408 99.9258 102.408 99.9259 102.408 99.926C102.408 99.9261 102.408 99.9262 102.408 99.9263C102.408 99.9264 102.408 99.9265 102.408 99.9266C102.408 99.9267 102.408 99.9268 102.408 99.9269C102.408 99.927 102.408 99.9271 102.408 99.9272C102.408 99.9273 102.408 99.9274 102.408 99.9274C102.408 99.9275 102.408 99.9276 102.408 99.9277C102.408 99.9278 102.408 99.9279 102.408 99.928C102.408 99.9281 102.408 99.9282 102.408 99.9283C102.408 99.9284 102.408 99.9285 102.408 99.9286C102.408 99.9286 102.408 99.9287 102.408 99.9288C102.408 99.9289 102.408 99.929 102.408 99.9291C102.408 99.9292 102.408 99.9293 102.408 99.9294C102.408 99.9295 102.408 99.9296 102.408 99.9296C102.408 99.9297 102.408 99.9298 102.408 99.9299C102.408 99.93 102.408 99.9301 102.408 99.9302C102.408 99.9303 102.408 99.9304 102.408 99.9304C102.408 99.9305 102.408 99.9306 102.408 99.9307C102.408 99.9308 102.408 99.9309 102.408 99.931C102.408 99.9311 102.408 99.9311 102.408 99.9312C102.408 99.9313 102.408 99.9314 102.408 99.9315C102.408 99.9316 102.408 99.9317 102.408 99.9318C102.408 99.9318 102.408 99.9319 102.408 99.932C102.408 99.9321 102.408 99.9322 102.408 99.9323C102.408 99.9324 102.408 99.9324 102.408 99.9325C102.408 99.9326 102.408 99.9327 102.408 99.9328C102.408 99.9329 102.408 99.9329 102.408 99.933C102.408 99.9331 102.408 99.9332 102.408 99.9333C102.408 99.9334 102.408 99.9334 102.408 99.9335C102.408 99.9336 102.408 99.9337 102.408 99.9338C102.408 99.9339 102.408 99.9339 102.408 99.934C102.408 99.9341 102.408 99.9342 102.408 99.9343C102.408 99.9344 102.408 99.9344 102.408 99.9345C102.408 99.9346 102.408 99.9347 102.408 99.9348C102.408 99.9348 102.408 99.9349 102.408 99.935C102.408 99.9351 102.408 99.9352 102.408 99.9352C102.408 99.9353 102.408 99.9354 102.408 99.9355C102.408 99.9356 102.408 99.9356 102.408 99.9357C102.408 99.9358 102.408 99.9359 102.408 99.936C102.408 99.936 102.408 99.9361 102.408 99.9362C102.408 99.9363 102.408 99.9364 102.408 99.9364C102.408 99.9365 102.408 99.9366 102.408 99.9367C102.408 99.9367 102.408 99.9368 102.408 99.9369C102.408 99.937 102.408 99.9371 102.408 99.9371C102.408 99.9372 102.408 99.9373 102.408 99.9374C102.408 99.9374 102.408 99.9375 102.408 99.9376C102.408 99.9377 102.408 99.9377 102.408 99.9378C102.408 99.9379 102.408 99.938 102.408 99.938C102.408 99.9381 102.408 99.9382 102.408 99.9383C102.408 99.9383 102.408 99.9384 102.408 99.9385C102.408 99.9386 102.408 99.9386 102.408 99.9387C102.408 99.9388 102.408 99.9389 102.408 99.9389C102.408 99.939 102.408 99.9391 102.408 99.9391C102.408 99.9392 102.408 99.9393 102.408 99.9394C102.408 99.9394 102.408 99.9395 102.408 99.9396C102.408 99.9396 102.408 99.9397 102.408 99.9398C102.408 99.9399 102.408 99.9399 102.408 99.94C102.408 99.9401 102.408 99.9401 102.408 99.9402C102.408 99.9403 102.408 99.9404 102.408 99.9404C102.408 99.9405 102.408 99.9406 102.408 99.9406C102.408 99.9407 102.407 99.9408 102.407 99.9408C102.407 99.9409 102.407 99.941 102.407 99.941C102.407 99.9411 102.407 99.9412 102.407 99.9412C102.407 99.9413 102.407 99.9414 102.407 99.9414C102.407 99.9415 102.407 99.9416 102.407 99.9416C102.407 99.9417 102.407 99.9418 102.407 99.9418C102.407 99.9419 102.407 99.942 102.407 99.942C102.407 99.9421 102.407 99.9422 102.407 99.9422C102.407 99.9423 102.407 99.9424 102.407 99.9424C102.407 99.9425 102.407 99.9426 102.407 99.9426C102.407 99.9427 102.407 99.9428 102.407 99.9428C102.407 99.9429 102.407 99.9429 102.407 99.943C102.407 99.9431 102.407 99.9431 102.407 99.9432C102.407 99.9433 102.407 99.9433 102.407 99.9434C102.407 99.9435 102.407 99.9435 102.407 99.9436C102.407 99.9436 102.407 99.9437 102.407 99.9438C102.407 99.9438 102.407 99.9439 102.407 99.9439C102.407 99.944 102.407 99.9441 102.407 99.9441C102.407 99.9442 102.407 99.9442 102.407 99.9443C102.407 99.9444 102.407 99.9444 102.407 99.9445C102.407 99.9445 102.407 99.9446 102.407 99.9447C102.407 99.9447 102.407 99.9448 102.407 99.9448C102.407 99.9449 102.407 99.945 102.407 99.945C102.407 99.9451 102.407 99.9451 102.407 99.9452C102.407 99.9452 102.407 99.9453 102.407 99.9454C102.407 99.9454 102.407 99.9455 102.407 99.9455C102.407 99.9456 102.407 99.9456 102.407 99.9457C102.407 99.9457 102.407 99.9458 102.407 99.9459C102.407 99.9459 102.407 99.946 102.407 99.946C102.407 99.9461 102.407 99.9461 102.407 99.9462C102.407 99.9462 102.407 99.9463 102.407 99.9463C102.407 99.9464 102.407 99.9465 102.407 99.9465C102.407 99.9466 102.407 99.9466 102.407 99.9467C102.407 99.9467 102.407 99.9468 102.407 99.9468C102.407 99.9469 102.407 99.9469 102.407 99.947C102.407 99.947 102.407 99.9471 102.407 99.9471C102.407 99.9472 102.407 99.9472 102.407 99.9473C102.407 99.9473 102.407 99.9474 102.407 99.9474C102.407 99.9475 102.407 99.9475 102.407 99.9476C102.407 99.9476 102.407 99.9477 102.407 99.9477C102.407 99.9478 102.407 99.9478 102.407 99.9479C102.407 99.9479 102.407 99.948 102.407 99.948C102.407 99.9481 102.407 99.9481 102.407 99.9482C102.407 99.9482 102.407 99.9483 102.407 99.9483C102.407 99.9484 102.407 99.9484 102.407 99.9485C102.407 99.9485 102.407 99.9485 102.407 99.9486C102.407 99.9486 102.407 99.9487 102.407 99.9487C102.407 99.9488 102.407 99.9488 102.407 99.9489C102.407 99.9489 102.407 99.949 102.407 99.949C102.407 99.949 102.407 99.9491 102.407 99.9491C102.407 99.9492 102.407 99.9492 102.407 99.9493C102.407 99.9493 102.407 99.9493 102.407 99.9494C102.407 99.9494 102.407 99.9495 102.407 99.9495C102.407 99.9496 102.407 99.9496 102.407 99.9496C102.407 99.9497 102.407 99.9497 102.407 99.9498C102.407 99.9498 102.407 99.9498 102.407 99.9499C102.407 99.9499 102.407 99.95 102.407 99.95C102.407 99.9501 102.407 99.9501 102.407 99.9501C102.407 99.9502 102.407 99.9502 102.407 99.9502C102.407 99.9503 102.407 99.9503 102.407 99.9504C102.407 99.9504 102.407 99.9504 102.407 99.9505C102.407 99.9505 102.407 99.9506 102.407 99.9506C102.407 99.9506 102.407 99.9507 102.407 99.9507C102.407 99.9507 102.407 99.9508 102.407 99.9508C102.407 99.9508 102.407 99.9509 102.407 99.9509C102.407 99.951 102.407 99.951 102.407 99.951C102.407 99.9511 102.407 99.9511 102.407 99.9511C102.407 99.9512 102.407 99.9512 102.407 99.9512C102.407 99.9513 102.407 99.9513 102.407 99.9513C102.407 99.9514 102.407 99.9514 102.407 99.9514C102.407 99.9515 102.407 99.9515 102.407 99.9515C102.407 99.9516 102.407 99.9516 102.407 99.9516C102.407 99.9517 102.407 99.9517 102.407 99.9517C102.407 99.9517 102.407 99.9518 102.407 99.9518C102.407 99.9518 102.407 99.9519 102.407 99.9519C102.407 99.9519 102.407 99.952 102.407 99.952C102.407 99.952 102.407 99.952 102.407 99.9521C102.407 99.9521 102.407 99.9521 102.407 99.9522C102.407 99.9522 102.407 99.9522 102.407 99.9522C102.407 99.9523 102.407 99.9523 102.407 99.9523C102.407 99.9524 102.407 99.9524 102.407 99.9524C102.407 99.9524 102.407 99.9525 102.407 99.9525C102.407 99.9525 102.407 99.9525 102.407 99.9526C102.407 99.9526 102.407 99.9526 102.407 99.9526C102.407 99.9527 102.407 99.9527 102.407 99.9527C102.407 99.9527 102.407 99.9528 102.407 99.9528C102.407 99.9528 102.407 99.9528 102.407 99.9529C102.407 99.9529 102.407 99.9529 102.407 99.9529C102.407 99.9529 102.407 99.953 102.407 99.953C102.407 99.953 102.407 99.953 102.407 99.9531C102.407 99.9531 102.407 99.9531 102.407 99.9531C102.407 99.9531 102.407 99.9532 102.407 99.9532C102.407 99.9532 102.407 99.9532 102.407 99.9532C102.407 99.9533 102.407 99.9533 102.407 99.9533C102.407 99.9533 102.407 99.9533 102.407 99.9534C102.407 99.9534 102.407 99.9534 102.407 99.9534C102.407 99.9534 102.407 99.9534 102.407 99.9535C102.407 99.9535 102.407 99.9535 102.407 99.9535C102.407 99.9535 102.407 99.9535 102.407 99.9536C102.407 99.9536 102.407 99.9536 102.407 99.9536C102.407 99.9536 102.407 99.9536 102.407 99.9536C102.407 99.9537 102.407 99.9537 102.407 99.9537C102.407 99.9537 102.407 99.9537 102.407 99.9537C102.407 99.9537 102.407 99.9538 102.407 99.9538C102.407 99.9538 102.407 99.9538 102.407 99.9538C102.407 99.9538 102.407 99.9538 102.407 99.9538C102.407 99.9539 102.407 99.9539 102.407 99.9539C102.407 99.9539 102.407 99.9539 102.407 99.9539C102.407 99.9539 102.407 99.9539 102.407 99.9539C102.407 99.954 102.407 99.954 102.407 99.954C102.407 99.954 102.407 99.954 102.407 99.954C102.407 99.954 102.407 99.954 102.407 99.954C102.407 99.954 102.407 99.954 102.407 99.954C102.407 99.9541 102.407 99.9541 102.407 99.9541C102.407 99.9541 102.407 99.9541 102.407 99.9541C102.407 99.9541 102.407 99.9541 102.407 99.9541C102.407 99.9541 102.407 99.9541 102.407 99.9541C102.407 99.9541 102.407 99.9541 102.407 99.9541C102.407 99.9541 102.407 99.9541 102.407 99.9542C102.407 99.9542 102.407 99.9542 102.407 99.9542C102.407 99.9542 102.407 99.9542 102.407 99.9542C102.407 99.9542 102.407 99.9542 102.407 99.9542C102.407 99.9542 102.407 99.9542 102.407 99.9542C102.407 99.9542 102.407 99.9542 102.407 99.9542C102.407 99.9542 102.407 99.9542 104.407 99.9743C106.407 99.9945 106.407 99.9945 106.407 99.9945C106.407 99.9945 106.407 99.9945 106.407 99.9945C106.407 99.9945 106.407 99.9945 106.407 99.9945C106.407 99.9945 106.407 99.9945 106.407 99.9945C106.407 99.9945 106.407 99.9945 106.407 99.9945C106.407 99.9945 106.407 99.9945 106.407 99.9945C106.407 99.9945 106.407 99.9945 106.407 99.9945C106.407 99.9945 106.407 99.9945 106.407 99.9944C106.407 99.9944 106.407 99.9944 106.407 99.9944C106.407 99.9944 106.407 99.9944 106.407 99.9944C106.407 99.9944 106.407 99.9944 106.407 99.9944C106.407 99.9944 106.407 99.9944 106.407 99.9944C106.407 99.9944 106.407 99.9944 106.407 99.9943C106.407 99.9943 106.407 99.9943 106.407 99.9943C106.407 99.9943 106.407 99.9943 106.407 99.9943C106.407 99.9943 106.407 99.9943 106.407 99.9943C106.407 99.9943 106.407 99.9942 106.407 99.9942C106.407 99.9942 106.407 99.9942 106.407 99.9942C106.407 99.9942 106.407 99.9942 106.407 99.9942C106.407 99.9942 106.407 99.9941 106.407 99.9941C106.407 99.9941 106.407 99.9941 106.407 99.9941C106.407 99.9941 106.407 99.9941 106.407 99.9941C106.407 99.994 106.407 99.994 106.407 99.994C106.407 99.994 106.407 99.994 106.407 99.994C106.407 99.994 106.407 99.9939 106.407 99.9939C106.407 99.9939 106.407 99.9939 106.407 99.9939C106.407 99.9939 106.407 99.9938 106.407 99.9938C106.407 99.9938 106.407 99.9938 106.407 99.9938C106.407 99.9938 106.407 99.9937 106.407 99.9937C106.407 99.9937 106.407 99.9937 106.407 99.9937C106.407 99.9937 106.407 99.9936 106.407 99.9936C106.407 99.9936 106.407 99.9936 106.407 99.9936C106.407 99.9935 106.407 99.9935 106.407 99.9935C106.407 99.9935 106.407 99.9935 106.407 99.9934C106.407 99.9934 106.407 99.9934 106.407 99.9934C106.407 99.9934 106.407 99.9933 106.407 99.9933C106.407 99.9933 106.407 99.9933 106.407 99.9932C106.407 99.9932 106.407 99.9932 106.407 99.9932C106.407 99.9932 106.407 99.9931 106.407 99.9931C106.407 99.9931 106.407 99.9931 106.407 99.993C106.407 99.993 106.407 99.993 106.407 99.993C106.407 99.9929 106.407 99.9929 106.407 99.9929C106.407 99.9929 106.407 99.9928 106.407 99.9928C106.407 99.9928 106.407 99.9928 106.407 99.9927C106.407 99.9927 106.407 99.9927 106.407 99.9926C106.407 99.9926 106.407 99.9926 106.407 99.9926C106.407 99.9925 106.407 99.9925 106.407 99.9925C106.407 99.9925 106.407 99.9924 106.407 99.9924C106.407 99.9924 106.407 99.9923 106.407 99.9923C106.407 99.9923 106.407 99.9923 106.407 99.9922C106.407 99.9922 106.407 99.9922 106.407 99.9921C106.407 99.9921 106.407 99.9921 106.407 99.992C106.407 99.992 106.407 99.992 106.407 99.9919C106.407 99.9919 106.407 99.9919 106.407 99.9918C106.407 99.9918 106.407 99.9918 106.407 99.9918C106.407 99.9917 106.407 99.9917 106.407 99.9917C106.407 99.9916 106.407 99.9916 106.407 99.9916C106.407 99.9915 106.407 99.9915 106.407 99.9914C106.407 99.9914 106.407 99.9914 106.407 99.9913C106.407 99.9913 106.407 99.9913 106.407 99.9912C106.407 99.9912 106.407 99.9912 106.407 99.9911C106.407 99.9911 106.407 99.9911 106.407 99.991C106.407 99.991 106.407 99.9909 106.407 99.9909C106.407 99.9909 106.407 99.9908 106.407 99.9908C106.407 99.9908 106.407 99.9907 106.407 99.9907C106.407 99.9906 106.407 99.9906 106.407 99.9906C106.407 99.9905 106.407 99.9905 106.407 99.9905C106.407 99.9904 106.407 99.9904 106.407 99.9903C106.407 99.9903 106.407 99.9903 106.407 99.9902C106.407 99.9902 106.407 99.9901 106.407 99.9901C106.407 99.99 106.407 99.99 106.407 99.99C106.407 99.9899 106.407 99.9899 106.407 99.9898C106.407 99.9898 106.407 99.9898 106.407 99.9897C106.407 99.9897 106.407 99.9896 106.407 99.9896C106.407 99.9895 106.407 99.9895 106.407 99.9895C106.407 99.9894 106.407 99.9894 106.407 99.9893C106.407 99.9893 106.407 99.9892 106.407 99.9892C106.407 99.9891 106.407 99.9891 106.407 99.9891C106.407 99.989 106.407 99.989 106.407 99.9889C106.407 99.9889 106.407 99.9888 106.407 99.9888C106.407 99.9887 106.407 99.9887 106.407 99.9886C106.407 99.9886 106.407 99.9885 106.407 99.9885C106.407 99.9884 106.407 99.9884 106.407 99.9884C106.407 99.9883 106.407 99.9883 106.407 99.9882C106.407 99.9882 106.407 99.9881 106.407 99.9881C106.407 99.988 106.407 99.988 106.407 99.9879C106.407 99.9879 106.407 99.9878 106.407 99.9878C106.407 99.9877 106.407 99.9877 106.407 99.9876C106.407 99.9876 106.407 99.9875 106.407 99.9875C106.407 99.9874 106.407 99.9874 106.407 99.9873C106.407 99.9873 106.407 99.9872 106.407 99.9871C106.407 99.9871 106.407 99.987 106.407 99.987C106.407 99.9869 106.407 99.9869 106.407 99.9868C106.407 99.9868 106.407 99.9867 106.407 99.9867C106.407 99.9866 106.407 99.9866 106.407 99.9865C106.407 99.9865 106.407 99.9864 106.407 99.9863C106.407 99.9863 106.407 99.9862 106.407 99.9862C106.407 99.9861 106.407 99.9861 106.407 99.986C106.407 99.986 106.407 99.9859 106.407 99.9858C106.407 99.9858 106.407 99.9857 106.407 99.9857C106.407 99.9856 106.407 99.9856 106.407 99.9855C106.407 99.9854 106.407 99.9854 106.407 99.9853C106.407 99.9853 106.407 99.9852 106.407 99.9852C106.407 99.9851 106.407 99.985 106.407 99.985C106.407 99.9849 106.407 99.9849 106.407 99.9848C106.407 99.9847 106.407 99.9847 106.407 99.9846C106.407 99.9846 106.407 99.9845 106.407 99.9844C106.407 99.9844 106.407 99.9843 106.407 99.9843C106.407 99.9842 106.407 99.9841 106.407 99.9841C106.407 99.984 106.407 99.984 106.407 99.9839C106.407 99.9838 106.407 99.9838 106.407 99.9837C106.407 99.9836 106.407 99.9836 106.407 99.9835C106.407 99.9835 106.407 99.9834 106.407 99.9833C106.407 99.9833 106.407 99.9832 106.407 99.9831C106.407 99.9831 106.407 99.983 106.407 99.9829C106.407 99.9829 106.407 99.9828 106.407 99.9828C106.407 99.9827 106.407 99.9826 106.407 99.9826C106.407 99.9825 106.407 99.9824 106.407 99.9824C106.407 99.9823 106.407 99.9822 106.407 99.9822C106.407 99.9821 106.407 99.982 106.407 99.982C106.407 99.9819 106.407 99.9818 106.407 99.9818C106.407 99.9817 106.407 99.9816 106.407 99.9816C106.407 99.9815 106.407 99.9814 106.407 99.9814C106.407 99.9813 106.407 99.9812 106.407 99.9812C106.407 99.9811 106.407 99.981 106.407 99.9809C106.407 99.9809 106.407 99.9808 106.407 99.9807C106.407 99.9807 106.407 99.9806 106.407 99.9805C106.407 99.9805 106.407 99.9804 106.407 99.9803C106.407 99.9802 106.407 99.9802 106.407 99.9801C106.407 99.98 106.407 99.98 106.407 99.9799C106.407 99.9798 106.407 99.9798 106.407 99.9797C106.407 99.9796 106.407 99.9795 106.407 99.9795C106.407 99.9794 106.407 99.9793 106.407 99.9792C106.407 99.9792 106.407 99.9791 106.407 99.979C106.407 99.979 106.407 99.9789 106.407 99.9788C106.407 99.9787 106.407 99.9787 106.407 99.9786C106.407 99.9785 106.407 99.9784 106.407 99.9784C106.407 99.9783 106.407 99.9782 106.407 99.9781C106.407 99.9781 106.407 99.978 106.407 99.9779C106.407 99.9778 106.407 99.9778 106.407 99.9777C106.407 99.9776 106.407 99.9775 106.407 99.9775C106.407 99.9774 106.407 99.9773 106.407 99.9772C106.407 99.9771 106.407 99.9771 106.407 99.977C106.407 99.9769 106.407 99.9768 106.407 99.9768C106.407 99.9767 106.407 99.9766 106.407 99.9765C106.407 99.9764 106.407 99.9764 106.407 99.9763C106.407 99.9762 106.407 99.9761 106.407 99.976C106.407 99.976 106.407 99.9759 106.407 99.9758C106.407 99.9757 106.407 99.9757 106.407 99.9756C106.407 99.9755 106.407 99.9754 106.407 99.9753C106.407 99.9752 106.407 99.9752 106.407 99.9751C106.407 99.975 106.407 99.9749 106.407 99.9748C106.407 99.9748 106.407 99.9747 106.407 99.9746C106.407 99.9745 106.407 99.9744 106.407 99.9744C106.407 99.9743 106.407 99.9742 106.407 99.9741C106.407 99.974 106.407 99.9739 106.407 99.9739C106.407 99.9738 106.407 99.9737 106.407 99.9736C106.407 99.9735 106.407 99.9734 106.407 99.9734C106.407 99.9733 106.407 99.9732 106.407 99.9731C106.407 99.973 106.407 99.9729 106.407 99.9728C106.407 99.9728 106.407 99.9727 106.407 99.9726C106.407 99.9725 106.407 99.9724 106.407 99.9723C106.407 99.9722 106.407 99.9722 106.407 99.9721C106.407 99.972 106.407 99.9719 106.407 99.9718C106.407 99.9717 106.407 99.9716 106.407 99.9716C106.407 99.9715 106.407 99.9714 106.407 99.9713C106.407 99.9712 106.407 99.9711 106.407 99.971C106.407 99.9709 106.407 99.9709 106.407 99.9708C106.407 99.9707 106.407 99.9706 106.407 99.9705C106.407 99.9704 106.407 99.9703 106.407 99.9702C106.407 99.9701 106.407 99.9701 106.407 99.97C106.407 99.9699 106.407 99.9698 106.407 99.9697C106.407 99.9696 106.407 99.9695 106.407 99.9694C106.407 99.9693 106.407 99.9692 106.407 99.9691C106.407 99.9691 106.407 99.969 106.407 99.9689C106.407 99.9688 106.407 99.9687 106.407 99.9686C106.407 99.9685 106.407 99.9684 106.407 99.9683C106.407 99.9682 106.407 99.9681 106.407 99.968C106.407 99.968 106.407 99.9679 106.407 99.9678C106.407 99.9677 106.407 99.9676 106.407 99.9675C106.407 99.9674 106.407 99.9673 106.407 99.9672C106.407 99.9671 106.407 99.967 106.407 99.9669C106.407 99.9668 106.407 99.9667 106.407 99.9666C106.407 99.9665 106.407 99.9665 106.407 99.9664C106.407 99.9663 106.407 99.9662 106.407 99.9661C106.407 99.966 106.407 99.9659 106.407 99.9658C106.407 99.9657 106.407 99.9656 106.407 99.9655C106.407 99.9654 106.407 99.9653 106.407 99.9652C106.407 99.9651 106.407 99.965 106.407 99.9649C106.407 99.9648 106.407 99.9647 106.407 99.9646C106.407 99.9645 106.407 99.9644 106.407 99.9643C106.407 99.9642 106.407 99.9641 106.407 99.964C106.407 99.9639 106.407 99.9638 106.407 99.9637C106.407 99.9636 106.407 99.9635 106.407 99.9634C106.407 99.9633 106.407 99.9632 106.407 99.9631C106.407 99.963 106.407 99.963 106.407 99.9629C106.407 99.9628 106.407 99.9627 106.407 99.9626C106.407 99.9625 106.407 99.9623 106.407 99.9622C106.407 99.9621 106.407 99.962 106.407 99.9619C106.407 99.9618 106.407 99.9617 106.407 99.9616C106.407 99.9615 106.407 99.9614 106.407 99.9613C106.407 99.9612 106.407 99.9611 106.407 99.961C106.407 99.9609 106.407 99.9608 106.407 99.9607C106.407 99.9606 106.407 99.9605 106.407 99.9604C106.407 99.9603 106.407 99.9602 106.407 99.9601C106.407 99.96 106.407 99.9599 106.407 99.9598C106.407 99.9597 106.407 99.9596 106.407 99.9595C106.407 99.9594 106.407 99.9593 106.407 99.9592C106.407 99.9591 106.407 99.959 106.407 99.9589C106.407 99.9588 106.407 99.9587 106.407 99.9585C106.407 99.9584 106.407 99.9583 106.407 99.9582C106.407 99.9581 106.407 99.958 106.407 99.9579C106.407 99.9578 106.407 99.9577 106.407 99.9576C106.407 99.9575 106.407 99.9574 106.407 99.9573C106.407 99.9572 106.407 99.9571 106.407 99.957C106.407 99.9568 106.407 99.9567 106.407 99.9566C106.407 99.9565 106.407 99.9564 106.407 99.9563C106.407 99.9562 106.407 99.9561 106.407 99.956C106.407 99.9559 106.407 99.9558 106.407 99.9557C106.407 99.9556 106.407 99.9554 106.407 99.9553C106.407 99.9552 106.407 99.9551 106.407 99.955C106.407 99.9549 106.407 99.9548 106.407 99.9547C106.407 99.9546 106.407 99.9545 106.407 99.9544C106.407 99.9542 106.407 99.9541 106.407 99.954C106.407 99.9539 106.407 99.9538 106.407 99.9537C106.407 99.9536 106.407 99.9535 106.407 99.9534C106.407 99.9532 106.407 99.9531 106.407 99.953C106.407 99.9529 106.407 99.9528 106.407 99.9527C106.407 99.9526 106.407 99.9525 106.407 99.9524C106.407 99.9522 106.407 99.9521 106.407 99.952C106.407 99.9519 106.407 99.9518 106.407 99.9517C106.407 99.9516 106.407 99.9515 106.407 99.9513C106.407 99.9512 106.407 99.9511 106.407 99.951C106.407 99.9509 106.407 99.9508 106.407 99.9507C106.407 99.9506 106.407 99.9504 106.407 99.9503C106.407 99.9502 106.407 99.9501 106.407 99.95C106.407 99.9499 106.407 99.9498 106.407 99.9496C106.407 99.9495 106.407 99.9494 106.407 99.9493C106.407 99.9492 106.407 99.9491 106.407 99.9489C106.407 99.9488 106.407 99.9487 106.407 99.9486C106.407 99.9485 106.407 99.9484 106.407 99.9483C106.407 99.9481 106.407 99.948 106.407 99.9479C106.407 99.9478 106.407 99.9477 106.407 99.9476C106.407 99.9474 106.407 99.9473 106.407 99.9472C106.407 99.9471 106.407 99.947 106.407 99.9469C106.407 99.9467 106.407 99.9466 106.407 99.9465C106.407 99.9464 106.407 99.9463 106.407 99.9461C106.407 99.946 106.407 99.9459 106.407 99.9458C106.407 99.9457 106.407 99.9456 106.407 99.9454C106.407 99.9453 106.407 99.9452 106.407 99.9451C106.407 99.945 106.407 99.9448 106.407 99.9447C106.407 99.9446 106.407 99.9445 106.407 99.9444C106.407 99.9442 106.407 99.9441 106.407 99.944C106.407 99.9439 106.407 99.9438 106.407 99.9436C106.407 99.9435 106.407 99.9434 106.407 99.9433C106.407 99.9432 106.407 99.943 106.407 99.9429C106.407 99.9428 106.407 99.9427 106.407 99.9426C106.407 99.9424 106.407 99.9423 106.407 99.9422C106.407 99.9421 106.407 99.942 106.407 99.9418C106.407 99.9417 106.407 99.9416 106.407 99.9415C106.407 99.9413 106.407 99.9412 106.407 99.9411C106.407 99.941 106.407 99.9409 106.407 99.9407C106.408 99.9406 106.408 99.9405 106.408 99.9404C106.408 99.9402 106.408 99.9401 106.408 99.94C106.408 99.9399 106.408 99.9397 106.408 99.9396C106.408 99.9395 106.408 99.9394 106.408 99.9392C106.408 99.9391 106.408 99.939 106.408 99.9389C106.408 99.9388 106.408 99.9386 106.408 99.9385C106.408 99.9384 106.408 99.9383 106.408 99.9381C106.408 99.938 106.408 99.9379 106.408 99.9378C106.408 99.9376 106.408 99.9375 106.408 99.9374C106.408 99.9373 106.408 99.9371 106.408 99.937C106.408 99.9369 106.408 99.9367 106.408 99.9366C106.408 99.9365 106.408 99.9364 106.408 99.9362C106.408 99.9361 106.408 99.936 106.408 99.9359C106.408 99.9357 106.408 99.9356 106.408 99.9355C106.408 99.9354 106.408 99.9352 106.408 99.9351C106.408 99.935 106.408 99.9348 106.408 99.9347C106.408 99.9346 106.408 99.9345 106.408 99.9343C106.408 99.9342 106.408 99.9341 106.408 99.934C106.408 99.9338 106.408 99.9337 106.408 99.9336C106.408 99.9334 106.408 99.9333 106.408 99.9332C106.408 99.9331 106.408 99.9329 106.408 99.9328C106.408 99.9327 106.408 99.9325 106.408 99.9324C106.408 99.9323 106.408 99.9322 106.408 99.932C106.408 99.9319 106.408 99.9318 106.408 99.9316C106.408 99.9315 106.408 99.9314 106.408 99.9312C106.408 99.9311 106.408 99.931 106.408 99.9309C106.408 99.9307 106.408 99.9306 106.408 99.9305C106.408 99.9303 106.408 99.9302 106.408 99.9301C106.408 99.9299 106.408 99.9298 106.408 99.9297C106.408 99.9295 106.408 99.9294 106.408 99.9293C106.408 99.9291 106.408 99.929 106.408 99.9289C106.408 99.9288 106.408 99.9286 106.408 99.9285C106.408 99.9284 106.408 99.9282 106.408 99.9281C106.408 99.928 106.408 99.9278 106.408 99.9277C106.408 99.9276 106.408 99.9274 106.408 99.9273C106.408 99.9272 106.408 99.927 106.408 99.9269C106.408 99.9268 106.408 99.9266 106.408 99.9265C106.408 99.9264 106.408 99.9262 106.408 99.9261C106.408 99.926 106.408 99.9258 106.408 99.9257C106.408 99.9256 106.408 99.9254 106.408 99.9253C106.408 99.9252 106.408 99.925 106.408 99.9249C106.408 99.9248 106.408 99.9246 106.408 99.9245C106.408 99.9244 106.408 99.9242 106.408 99.9241C106.408 99.924 106.408 99.9238 106.408 99.9237C106.408 99.9235 106.408 99.9234 106.408 99.9233C106.408 99.9231 106.408 99.923 106.408 99.9229C106.408 99.9227 106.408 99.9226 106.408 99.9225C106.408 99.9223 106.408 99.9222 106.408 99.9221C106.408 99.9219 106.408 99.9218 106.408 99.9216C106.408 99.9215 106.408 99.9214 106.408 99.9212C106.408 99.9211 106.408 99.921 106.408 99.9208C106.408 99.9207 106.408 99.9206 106.408 99.9204C106.408 99.9203 106.408 99.9201 106.408 99.92C106.408 99.9199 106.408 99.9197 106.408 99.9196C106.408 99.9195 106.408 99.9193 106.408 99.9192C106.408 99.919 106.408 99.9189 106.408 99.9188C106.408 99.9186 106.408 99.9185 106.408 99.9183C106.408 99.9182 106.408 99.9181 106.408 99.9179C106.408 99.9178 106.408 99.9177 106.408 99.9175C106.408 99.9174 106.408 99.9172 106.408 99.9171C106.408 99.917 106.408 99.9168 106.408 99.9167C106.408 99.9165 106.408 99.9164 106.408 99.9163C106.408 99.9161 106.408 99.916 106.408 99.9158C106.408 99.9157 106.408 99.9156 106.408 99.9154C106.408 99.9153 106.408 99.9151 106.408 99.915C106.408 99.9149 106.408 99.9147 106.408 99.9146C106.408 99.9144 106.408 99.9143 106.408 99.9142C106.408 99.914 106.408 99.9139 106.408 99.9137C106.408 99.9136 106.408 99.9135 106.408 99.9133C106.408 99.9132 106.408 99.913 106.408 99.9129C106.408 99.9128 106.408 99.9126 106.408 99.9125C106.408 99.9123 106.408 99.9122 106.408 99.912C106.408 99.9119 106.408 99.9118 106.408 99.9116C106.408 99.9115 106.408 99.9113 106.408 99.9112C106.408 99.9111 106.408 99.9109 106.408 99.9108C106.408 99.9106 106.408 99.9105 106.408 99.9103C106.408 99.9102 106.408 99.9101 106.408 99.9099C106.408 99.9098 106.408 99.9096 106.408 99.9095C106.408 99.9093 106.408 99.9092 106.408 99.9091C106.408 99.9089 106.408 99.9088 106.408 99.9086C106.408 99.9085 106.408 99.9083 106.408 99.9082C106.408 99.9081 106.408 99.9079 106.408 99.9078C106.408 99.9076 106.408 99.9075 106.408 99.9073C106.408 99.9072 106.408 99.907 106.408 99.9069C106.408 99.9068 106.408 99.9066 106.408 99.9065C106.408 99.9063 106.408 99.9062 106.408 99.906C106.408 99.9059 106.408 99.9057 106.408 99.9056C106.408 99.9055 106.408 99.9053 106.408 99.9052C106.408 99.905 106.408 99.9049 106.408 99.9047C106.408 99.9046 106.408 99.9044 106.408 99.9043C106.408 99.9041 106.408 99.904 106.408 99.9039C106.408 99.9037 106.408 99.9036 106.408 99.9034C106.408 99.9033 106.408 99.9031 106.408 99.903C106.408 99.9028 106.408 99.9027 106.408 99.9025C106.408 99.9024 106.408 99.9022 106.408 99.9021C106.408 99.902 106.408 99.9018 106.408 99.9017C106.408 99.9015 106.408 99.9014 106.408 99.9012C106.408 99.9011 106.408 99.9009 106.408 99.9008C106.408 99.9006 106.408 99.9005 106.408 99.9003C106.408 99.9002 106.408 99.9 106.408 99.8999C106.408 99.8998 106.408 99.8996 106.408 99.8995C106.408 99.8993 106.408 99.8992 106.408 99.899C106.408 99.8989 106.408 99.8987 106.408 99.8986C106.408 99.8984 106.408 99.8983 106.408 99.8981C106.408 99.898 106.408 99.8978 106.408 99.8977C106.408 99.8975 106.408 99.8974 106.408 99.8972C106.408 99.8971 106.408 99.8969 106.408 99.8968C106.408 99.8966 106.408 99.8965 106.408 99.8963C106.408 99.8962 106.408 99.896 106.408 99.8959C106.408 99.8957 106.408 99.8956 106.408 99.8955C106.408 99.8953 106.408 99.8952 106.408 99.895C106.408 99.8949 106.408 99.8947 106.408 99.8946C106.408 99.8944 106.408 99.8943 106.408 99.8941C106.408 99.894 106.408 99.8938 106.408 99.8937C106.408 99.8935 106.408 99.8934 106.408 99.8932C106.408 99.8931 106.408 99.8929 106.408 99.8928C106.408 99.8926 106.408 99.8925 106.408 99.8923C106.408 99.8922 106.408 99.892 106.408 99.8919C106.408 99.8917 106.408 99.8916 106.408 99.8914C106.408 99.8913 106.408 99.8911 106.408 99.891C106.408 99.8908 106.408 99.8907 106.408 99.8905C106.408 99.8903 106.408 99.8902 106.408 99.89C106.408 99.8899 106.408 99.8897 106.408 99.8896C106.408 99.8894 106.408 99.8893 106.408 99.8891C106.408 99.889 106.408 99.8888 106.408 99.8887C106.408 99.8885 106.408 99.8884 106.408 99.8882C106.408 99.8881 106.408 99.8879 106.408 99.8878C106.408 99.8876 106.408 99.8875 106.408 99.8873C106.408 99.8872 106.408 99.887 106.408 99.8869C106.408 99.8867 106.408 99.8866 106.408 99.8864C106.408 99.8863 106.408 99.8861 106.408 99.8859C106.408 99.8858 106.408 99.8856 106.408 99.8855C106.408 99.8853 106.408 99.8852 106.408 99.885C106.408 99.8849 106.408 99.8847 106.408 99.8846C106.408 99.8844 106.408 99.8843 106.408 99.8841C106.408 99.884 106.408 99.8838 106.408 99.8837C106.408 99.8835 106.408 99.8833 106.408 99.8832C106.408 99.883 106.408 99.8829 106.408 99.8827C106.408 99.8826 106.408 99.8824 106.408 99.8823C106.408 99.8821 106.408 99.882 106.408 99.8818C106.408 99.8817 106.408 99.8815 106.408 99.8814C106.408 99.8812 106.408 99.881 106.408 99.8809C106.408 99.8807 106.408 99.8806 106.408 99.8804C106.408 99.8803 106.408 99.8801 106.408 99.88C106.408 99.8798 106.408 99.8797 106.408 99.8795C106.408 99.8793 106.408 99.8792 106.408 99.879C106.408 99.8789 106.408 99.8787 106.408 99.8786C106.408 99.8784 106.408 99.8783 106.408 99.8781C106.408 99.878 106.408 99.8778 106.408 99.8776C106.408 99.8775 106.408 99.8773 106.408 99.8772C106.408 99.877 106.408 99.8769 106.408 99.8767C106.408 99.8766 106.408 99.8764 106.408 99.8762C106.408 99.8761 106.408 99.8759 106.408 99.8758C106.408 99.8756 106.408 99.8755 106.408 99.8753C106.408 99.8752 106.408 99.875 106.408 99.8748C106.408 99.8747 106.408 99.8745 106.408 99.8744C106.408 99.8742 106.408 99.8741 106.408 99.8739C106.408 99.8738 106.408 99.8736 106.408 99.8734C106.408 99.8733 106.408 99.8731 106.408 99.873C106.408 99.8728 106.408 99.8727 106.408 99.8725C106.408 99.8724 106.408 99.8722 106.408 99.872C106.408 99.8719 106.408 99.8717 106.408 99.8716C106.408 99.8714 106.408 99.8713 106.408 99.8711C106.408 99.8709 106.408 99.8708 106.408 99.8706C106.408 99.8705 106.408 99.8703 106.408 99.8702C106.408 99.87 106.408 99.8698 106.408 99.8697C106.408 99.8695 106.408 99.8694 106.408 99.8692C106.408 99.8691 106.408 99.8689 106.408 99.8688C106.408 99.8686 106.408 99.8684 106.408 99.8683C106.408 99.8681 106.408 99.868 106.408 99.8678C106.408 99.8677 106.408 99.8675 106.408 99.8673C106.408 99.8672 106.408 99.867 106.408 99.8669C106.408 99.8667 106.408 99.8665 106.408 99.8664C106.408 99.8662 106.408 99.8661 106.408 99.8659C106.408 99.8658 106.408 99.8656 106.408 99.8654C106.408 99.8653 106.408 99.8651 106.408 99.865C106.408 99.8648 106.408 99.8647 106.408 99.8645C106.408 99.8643 106.408 99.8642 106.408 99.864C106.408 99.8639 106.408 99.8637 106.408 99.8635C106.408 99.8634 106.408 99.8632 106.408 99.8631C106.408 99.8629 106.408 99.8628 106.408 99.8626C106.408 99.8624 106.408 99.8623 106.408 99.8621C106.408 99.862 106.408 99.8618 106.408 99.8617C106.408 99.8615 106.408 99.8613 106.408 99.8612C106.408 99.861 106.408 99.8609 106.408 99.8607C106.408 99.8605 106.408 99.8604 106.408 99.8602C106.408 99.8601 106.408 99.8599 106.408 99.8597C106.408 99.8596 106.408 99.8594 106.408 99.8593C106.408 99.8591 106.408 99.859 106.408 99.8588C106.408 99.8586 106.408 99.8585 106.408 99.8583C106.408 99.8582 106.408 99.858 106.408 99.8578C106.408 99.8577 106.408 99.8575 106.408 99.8574C106.408 99.8572 106.408 99.857 106.408 99.8569C106.408 99.8567 106.408 99.8566 106.408 99.8564C106.408 99.8562 106.408 99.8561 106.408 99.8559C106.408 99.8558 106.408 99.8556 106.408 99.8555C106.408 99.8553 106.408 99.8551 106.408 99.855C106.408 99.8548 106.408 99.8547 106.408 99.8545C106.408 99.8543 106.408 99.8542 106.408 99.854C106.408 99.8539 106.408 99.8537 106.408 99.8535C106.408 99.8534 106.408 99.8532 106.408 99.8531C106.408 99.8529 106.408 99.8527 106.408 99.8526C106.408 99.8524 106.408 99.8523 106.408 99.8521C106.408 99.8519 106.408 99.8518 106.408 99.8516C106.408 99.8515 106.408 99.8513 106.408 99.8511C106.408 99.851 106.408 99.8508 106.408 99.8507C106.408 99.8505 106.408 99.8503 106.408 99.8502C106.408 99.85 106.408 99.8499 106.408 99.8497C106.408 99.8495 106.408 99.8494 106.408 99.8492C106.408 99.8491 106.408 99.8489 106.408 99.8487C106.408 99.8486 106.408 99.8484 106.408 99.8483C106.408 99.8481 106.408 99.8479 106.408 99.8478C106.408 99.8476 106.408 99.8475 106.408 99.8473C106.408 99.8471 106.408 99.847 106.408 99.8468C106.408 99.8467 106.408 99.8465 106.408 99.8463C106.408 99.8462 106.408 99.846 106.408 99.8459C106.408 99.8457 106.408 99.8455 106.408 99.8454C106.408 99.8452 106.408 99.845 106.408 99.8449C106.408 99.8447 106.408 99.8446 106.408 99.8444C106.408 99.8442 106.408 99.8441 106.408 99.8439C106.408 99.8438 106.408 99.8436 106.408 99.8434C106.408 99.8433 106.408 99.8431 106.408 99.843C106.408 99.8428 106.408 99.8426 106.408 99.8425C106.408 99.8423 106.408 99.8422 106.408 99.842C106.408 99.8418 106.408 99.8417 106.408 99.8415C106.408 99.8414 106.408 99.8412 106.408 99.841C106.408 99.8409 106.408 99.8407 106.408 99.8405C106.408 99.8404 106.408 99.8402 106.408 99.8401C106.408 99.8399 106.408 99.8397 106.408 99.8396C106.408 99.8394 106.408 99.8393 106.408 99.8391C106.408 99.8389 106.408 99.8388 106.408 99.8386C106.408 99.8385 106.408 99.8383 106.408 99.8381C106.408 99.838 106.408 99.8378 106.408 99.8377C106.408 99.8375 106.408 99.8373 106.408 99.8372C106.408 99.837 106.408 99.8368 106.408 99.8367C106.408 99.8365 106.408 99.8364 106.408 99.8362C106.408 99.836 106.408 99.8359 106.408 99.8357C106.408 99.8356 106.408 99.8354 106.408 99.8352C106.408 99.8351 106.408 99.8349 106.408 99.8348C106.408 99.8346 106.408 99.8344 106.408 99.8343C106.408 99.8341 106.408 99.8339 106.408 99.8338C106.408 99.8336 106.408 99.8335 106.408 99.8333C106.408 99.8331 106.408 99.833 106.408 99.8328C106.408 99.8327 106.408 99.8325 106.408 99.8323C106.408 99.8322 106.408 99.832 106.408 99.8319C106.408 99.8317 106.408 99.8315 106.408 99.8314C106.408 99.8312 106.408 99.831 106.408 99.8309C106.408 99.8307 106.408 99.8306 106.408 99.8304C106.408 99.8302 106.408 99.8301 106.408 99.8299C106.408 99.8298 106.408 99.8296 106.408 99.8294L102.408 99.7891ZM102.407 99.9542C102.409 99.6268 102.5 99.1817 102.823 98.7745C103.132 98.3853 103.507 98.2147 103.735 98.1415C103.952 98.0718 104.126 98.0606 104.18 98.0576C104.238 98.0543 104.286 98.0556 104.251 98.0552L104.231 102.055C104.238 102.055 104.327 102.057 104.424 102.051C104.517 102.046 104.727 102.03 104.975 101.951C105.235 101.867 105.636 101.682 105.962 101.269C106.303 100.839 106.405 100.363 106.407 99.9945L102.407 99.9542ZM104.119 98.0583L102.874 98.1283L103.119 102.122L104.363 102.052L104.119 98.0583ZM96.6548 97.9308L100.886 97.7259L100.672 93.7304L96.4412 93.9354L96.6548 97.9308ZM102.598 94.9049L100.137 89.5149L96.4996 91.1613L98.9607 96.5513L102.598 94.9049ZM96.411 89.726L94.641 95.3211L98.4551 96.5451L100.225 90.9501L96.411 89.726Z" fill="#AD7400" mask="url(#path-36-inside-1_1_26453)"/>
<path d="M123.35 61.7563C124.62 61.6752 125.639 60.5174 125.558 59.2476C125.477 57.9779 124.319 56.959 123.049 57.0401C121.779 57.1212 120.76 58.279 120.841 59.5488C120.928 60.9092 121.99 61.8431 123.35 61.7563Z" fill="#FFD37A"/>
<path d="M105.01 62.9577C106.28 62.8766 107.298 61.7188 107.217 60.449C107.136 59.1793 105.978 58.1605 104.709 58.2415C103.439 58.3226 102.42 59.4804 102.501 60.7502C102.679 62.1048 103.74 63.0388 105.01 62.9577Z" fill="#FFD37A"/>
<path d="M110.42 67.1951C110.642 69.2922 112.386 70.8709 114.407 70.757C116.428 70.6432 117.984 68.8786 117.969 66.7698L110.42 67.1951Z" fill="#FFD37A"/>
<circle opacity="0.4" cx="128.231" cy="69.6886" r="3.12418" transform="rotate(-3.22458 128.231 69.6886)" fill="#5C3E00"/>
<circle opacity="0.4" cx="101.494" cy="71.194" r="3.12418" transform="rotate(-3.22458 101.494 71.194)" fill="#5C3E00"/>
<g filter="url(#filter2_d_1_26453)">
<path d="M208.624 95.297L154.342 108.883C153.559 109.098 152.795 108.63 152.58 107.848L132.308 26.8159C132.094 26.0335 132.561 25.2691 133.343 25.0543L187.626 11.4682C188.408 11.2535 189.173 11.7208 189.387 12.5032L209.659 93.5354C209.874 94.3178 209.406 95.0822 208.624 95.297Z" fill="#FFAB00"/>
</g>
<path d="M146.78 59.6607L153.509 86.5088L197.434 75.5006L190.706 48.6526L146.78 59.6607Z" stroke="#AD7400" stroke-width="2" stroke-miterlimit="10" stroke-linecap="round" stroke-linejoin="round"/>
<path d="M156.602 98.6177L162.786 97.101" stroke="#AD7400" stroke-width="2" stroke-miterlimit="10" stroke-linecap="round" stroke-linejoin="round"/>
<path d="M155.471 94.3528L166.438 91.5931" stroke="#AD7400" stroke-width="2" stroke-miterlimit="10" stroke-linecap="round" stroke-linejoin="round"/>
<path d="M189.46 88.5637L200.428 85.8041" stroke="#AD7400" stroke-width="2" stroke-miterlimit="10" stroke-linecap="round" stroke-linejoin="round"/>
<path d="M157.512 57.0636L164.226 83.897" stroke="#AD7400" stroke-width="2" stroke-miterlimit="10" stroke-linecap="round" stroke-linejoin="round"/>
<path d="M168.725 54.2061L175.52 81.0071" stroke="#AD7400" stroke-width="2" stroke-miterlimit="10" stroke-linecap="round" stroke-linejoin="round"/>
<path d="M180.051 51.3986L186.764 78.232" stroke="#AD7400" stroke-width="2" stroke-miterlimit="10" stroke-linecap="round" stroke-linejoin="round"/>
<path d="M148.531 66.4783L192.402 55.4396" stroke="#AD7400" stroke-width="2" stroke-miterlimit="10" stroke-linecap="round" stroke-linejoin="round"/>
<path d="M150.163 73.1829L194.066 62.2256" stroke="#AD7400" stroke-width="2" stroke-miterlimit="10" stroke-linecap="round" stroke-linejoin="round"/>
<path d="M151.904 79.9375L195.775 68.8988" stroke="#AD7400" stroke-width="2" stroke-miterlimit="10" stroke-linecap="round" stroke-linejoin="round"/>
<path d="M154.949 31.1256C152.747 31.658 151.257 33.5966 151.071 35.9108C151.007 36.4195 151.384 36.8216 151.87 36.9015C152.355 36.9815 152.728 36.5954 152.792 36.0867C152.894 34.5821 153.968 33.2373 155.377 32.8965C156.787 32.5558 158.333 33.1684 159.134 34.5532C159.423 34.9767 159.931 35.1498 160.327 34.8569C160.722 34.564 160.874 34.0341 160.585 33.6106C159.339 31.544 157.151 30.5931 154.949 31.1256Z" fill="#FFD37A"/>
<path d="M169.786 27.538C167.767 28.026 166.432 29.9274 166.304 32.2274C166.256 32.7325 166.61 33.1399 167.059 33.2287C167.508 33.3175 167.844 32.9403 167.893 32.4352C167.959 30.9395 168.922 29.6213 170.214 29.3089C171.506 28.9965 172.943 29.6358 173.707 31.0295C173.981 31.4565 174.453 31.6385 174.811 31.3545C175.17 31.0704 175.299 30.5458 175.025 30.1188C173.838 28.038 171.805 27.0499 169.786 27.538Z" fill="#FFD37A"/>
<path d="M166.653 44.4264C167.982 44.1051 168.799 42.7674 168.477 41.4386C168.156 40.1098 166.818 39.293 165.49 39.6143C164.161 39.9356 163.344 41.2733 163.665 42.6021C163.987 43.9309 165.324 44.7476 166.653 44.4264Z" fill="#FFD37A"/>
<defs>
<filter id="filter0_d_1_26453" x="0.494385" y="16.0608" width="118.456" height="139.922" filterUnits="userSpaceOnUse" color-interpolation-filters="sRGB">
<feFlood flood-opacity="0" result="BackgroundImageFix"/>
<feColorMatrix in="SourceAlpha" type="matrix" values="0 0 0 0 0 0 0 0 0 0 0 0 0 0 0 0 0 0 127 0" result="hardAlpha"/>
<feOffset dy="11"/>
<feGaussianBlur stdDeviation="11"/>
<feColorMatrix type="matrix" values="0 0 0 0 0 0 0 0 0 0 0 0 0 0 0 0 0 0 0.27 0"/>
<feBlend mode="normal" in2="BackgroundImageFix" result="effect1_dropShadow_1_26453"/>
<feBlend mode="normal" in="SourceGraphic" in2="effect1_dropShadow_1_26453" result="shape"/>
</filter>
<filter id="filter1_d_1_26453" x="58.5442" y="30.6562" width="112.89" height="140.844" filterUnits="userSpaceOnUse" color-interpolation-filters="sRGB">
<feFlood flood-opacity="0" result="BackgroundImageFix"/>
<feColorMatrix in="SourceAlpha" type="matrix" values="0 0 0 0 0 0 0 0 0 0 0 0 0 0 0 0 0 0 127 0" result="hardAlpha"/>
<feOffset dy="11"/>
<feGaussianBlur stdDeviation="11"/>
<feColorMatrix type="matrix" values="0 0 0 0 0 0 0 0 0 0 0 0 0 0 0 0 0 0 0.27 0"/>
<feBlend mode="normal" in2="BackgroundImageFix" result="effect1_dropShadow_1_26453"/>
<feBlend mode="normal" in="SourceGraphic" in2="effect1_dropShadow_1_26453" result="shape"/>
</filter>
<filter id="filter2_d_1_26453" x="110.256" y="0.416016" width="121.455" height="141.519" filterUnits="userSpaceOnUse" color-interpolation-filters="sRGB">
<feFlood flood-opacity="0" result="BackgroundImageFix"/>
<feColorMatrix in="SourceAlpha" type="matrix" values="0 0 0 0 0 0 0 0 0 0 0 0 0 0 0 0 0 0 127 0" result="hardAlpha"/>
<feOffset dy="11"/>
<feGaussianBlur stdDeviation="11"/>
<feColorMatrix type="matrix" values="0 0 0 0 0 0 0 0 0 0 0 0 0 0 0 0 0 0 0.27 0"/>
<feBlend mode="normal" in2="BackgroundImageFix" result="effect1_dropShadow_1_26453"/>
<feBlend mode="normal" in="SourceGraphic" in2="effect1_dropShadow_1_26453" result="shape"/>
</filter>
</defs>
</svg>
