<svg width="46" height="46" viewBox="0 0 46 46" fill="none" xmlns="http://www.w3.org/2000/svg">
<rect x="3" y="3" width="40" height="40" rx="20" fill="#12B76A"/>
<g clip-path="url(#clip0_70_26878)">
<path d="M19.6665 19.6667L22.9998 23M22.9998 23L26.3331 19.6667M22.9998 23L22.9998 15.5M16.0081 17.675C15.1953 18.1181 14.5533 18.8193 14.1832 19.6678C13.8132 20.5164 13.7363 21.464 13.9646 22.3611C14.193 23.2582 14.7135 24.0537 15.4442 24.6221C16.1749 25.1905 17.0741 25.4994 17.9998 25.5L19.0498 25.5C19.302 26.4756 19.7722 27.3814 20.4248 28.1492C21.0775 28.917 21.8958 29.5268 22.818 29.9328C23.7403 30.3389 24.7427 30.5305 25.7497 30.4934C26.7567 30.4563 27.7422 30.1914 28.6321 29.7186C29.5221 29.2458 30.2932 28.5774 30.8876 27.7637C31.482 26.95 31.8842 26.0121 32.064 25.0205C32.2437 24.029 32.1964 23.0096 31.9254 22.039C31.6545 21.0683 31.1671 20.1718 30.4998 19.4167" stroke="#F6FEF9" stroke-width="1.66667" stroke-linecap="round" stroke-linejoin="round"/>
</g>
<rect x="3" y="3" width="40" height="40" rx="20" stroke="#F6FEF9" stroke-width="6"/>
<defs>
<clipPath id="clip0_70_26878">
<rect width="20" height="20" fill="white" transform="translate(33 33) rotate(180)"/>
</clipPath>
</defs>
</svg>
