<svg width="25" height="25" viewBox="0 0 25 25" fill="none" xmlns="http://www.w3.org/2000/svg">
<path d="M12.3218 12.0426C13.9762 12.0426 15.4086 11.4492 16.5794 10.2785C17.7497 9.10795 18.3433 7.67573 18.3433 6.02111C18.3433 4.36706 17.7499 2.93464 16.5792 1.76372C15.4084 0.593375 13.976 0 12.3218 0C10.6672 0 9.23493 0.593375 8.0644 1.76391C6.89386 2.93445 6.30029 4.36687 6.30029 6.02111C6.30029 7.67573 6.89386 9.10814 8.0644 10.2787C9.23532 11.449 10.6677 12.0426 12.3218 12.0426ZM9.10047 2.79979C9.99863 1.90162 11.0523 1.46503 12.3218 1.46503C13.5911 1.46503 14.6449 1.90162 15.5433 2.79979C16.4415 3.69815 16.8782 4.75196 16.8782 6.02111C16.8782 7.29064 16.4415 8.34425 15.5433 9.24261C14.6449 10.141 13.5911 10.5776 12.3218 10.5776C11.0526 10.5776 9.99902 10.1408 9.10047 9.24261C8.20211 8.34444 7.76532 7.29064 7.76532 6.02111C7.76532 4.75196 8.20211 3.69815 9.10047 2.79979Z" fill="#F29300"/>
<path d="M22.8578 19.2237C22.8241 18.7366 22.7558 18.2052 22.6553 17.644C22.5538 17.0787 22.4231 16.5443 22.2667 16.0558C22.105 15.5509 21.8855 15.0523 21.6137 14.5745C21.3319 14.0786 21.0008 13.6468 20.6293 13.2915C20.2407 12.9197 19.7651 12.6209 19.215 12.4028C18.6668 12.186 18.0593 12.0761 17.4095 12.0761C17.1543 12.0761 16.9075 12.1808 16.4308 12.4912C16.1375 12.6825 15.7943 12.9037 15.4114 13.1484C15.0839 13.3571 14.6402 13.5526 14.0922 13.7296C13.5576 13.9026 13.0148 13.9903 12.4788 13.9903C11.9432 13.9903 11.4004 13.9026 10.8654 13.7296C10.318 13.5528 9.87414 13.3573 9.54722 13.1486C9.16785 12.9062 8.82453 12.6849 8.52679 12.491C8.05053 12.1806 7.80372 12.0759 7.54851 12.0759C6.89849 12.0759 6.29119 12.186 5.74321 12.403C5.19351 12.6207 4.71763 12.9195 4.32872 13.2917C3.95717 13.6472 3.62606 14.0788 3.34453 14.5745C3.07312 15.0523 2.85339 15.5507 2.69165 16.056C2.53544 16.5445 2.40478 17.0787 2.30331 17.644C2.20261 18.2044 2.13451 18.736 2.10075 19.2243C2.06757 19.7017 2.05078 20.1985 2.05078 20.7006C2.05078 22.0056 2.46563 23.062 3.28369 23.8412C4.09164 24.61 5.16052 24.9999 6.46075 24.9999H18.4984C19.7982 24.9999 20.8671 24.61 21.6753 23.8412C22.4935 23.0626 22.9084 22.0058 22.9084 20.7004C22.9082 20.1966 22.8912 19.6998 22.8578 19.2237ZM20.6651 22.7798C20.1313 23.2879 19.4225 23.5349 18.4982 23.5349H6.46075C5.53626 23.5349 4.82749 23.2879 4.29382 22.7799C3.77025 22.2816 3.51581 21.6012 3.51581 20.7006C3.51581 20.2321 3.53126 19.7696 3.56216 19.3256C3.5923 18.8899 3.6539 18.4114 3.74527 17.9029C3.83548 17.4007 3.95031 16.9294 4.08687 16.5027C4.21791 16.0936 4.39662 15.6884 4.61826 15.2982C4.82978 14.9263 5.07316 14.6072 5.34171 14.3501C5.59291 14.1095 5.90953 13.9127 6.28261 13.7651C6.62765 13.6285 7.01541 13.5537 7.43636 13.5425C7.48767 13.5698 7.57903 13.6218 7.72704 13.7183C8.02821 13.9146 8.37535 14.1385 8.7591 14.3836C9.19169 14.6594 9.74902 14.9085 10.4149 15.1235C11.0956 15.3436 11.7899 15.4554 12.479 15.4554C13.1681 15.4554 13.8626 15.3436 14.5429 15.1237C15.2094 14.9083 15.7665 14.6594 16.1997 14.3832C16.5924 14.1322 16.9298 13.9148 17.231 13.7183C17.379 13.622 17.4703 13.5698 17.5216 13.5425C17.9428 13.5537 18.3305 13.6285 18.6758 13.7651C19.0487 13.9127 19.3653 14.1097 19.6165 14.3501C19.885 14.607 20.1284 14.9261 20.3399 15.2984C20.5618 15.6884 20.7407 16.0938 20.8715 16.5025C21.0083 16.9297 21.1233 17.4009 21.2133 17.9027C21.3045 18.4121 21.3663 18.8909 21.3964 19.3257V19.3261C21.4275 19.7684 21.4431 20.2308 21.4433 20.7006C21.4431 21.6014 21.1887 22.2816 20.6651 22.7798Z" fill="#F29300"/>
</svg>
