<svg width="25" height="25" viewBox="0 0 25 25" fill="none" xmlns="http://www.w3.org/2000/svg">
<path d="M24.2722 4.44355C24.2706 4.44355 24.2691 4.44336 24.2676 4.44336H17.627V3.71094C17.627 2.49939 16.6412 1.51367 15.4297 1.51367H9.57031C8.35876 1.51367 7.37305 2.49939 7.37305 3.71094V4.44336H0.732422C0.324631 4.44336 0 4.77753 0 5.17578V21.2891C0 22.5006 0.985718 23.4863 2.19727 23.4863H22.8027C24.0143 23.4863 25 22.5006 25 21.2891V5.19123C25 5.19028 25 5.18932 25 5.18837C24.972 4.70734 24.6761 4.44622 24.2722 4.44355ZM8.83789 3.71094C8.83789 3.30715 9.16653 2.97852 9.57031 2.97852H15.4297C15.8335 2.97852 16.1621 3.30715 16.1621 3.71094V4.44336H8.83789V3.71094ZM23.2513 5.9082L20.9768 12.7316C20.8771 13.0312 20.5978 13.2324 20.2822 13.2324H16.1621V12.5C16.1621 12.0955 15.8342 11.7676 15.4297 11.7676H9.57031C9.16576 11.7676 8.83789 12.0955 8.83789 12.5V13.2324H4.71783C4.40216 13.2324 4.12292 13.0312 4.02317 12.7316L1.74866 5.9082H23.2513ZM14.6973 13.2324V14.6973H10.3027V13.2324H14.6973ZM23.5352 21.2891C23.5352 21.6928 23.2065 22.0215 22.8027 22.0215H2.19727C1.79348 22.0215 1.46484 21.6928 1.46484 21.2891V9.68914L2.63348 13.1948C2.93293 14.0936 3.77064 14.6973 4.71783 14.6973H8.83789V15.4297C8.83789 15.8342 9.16576 16.1621 9.57031 16.1621H15.4297C15.8342 16.1621 16.1621 15.8342 16.1621 15.4297V14.6973H20.2822C21.2294 14.6973 22.0671 14.0936 22.3665 13.1948L23.5352 9.68914V21.2891Z" fill="#F29300"/>
</svg>
