<svg width="120" height="120" viewBox="0 0 120 120" fill="none" xmlns="http://www.w3.org/2000/svg">
<g clip-path="url(#clip0_417_98)">
<path d="M111.688 8.1131H8.31212C3.72906 8.1131 0 11.8422 0 16.4252V86.5596C0 91.1427 3.72906 94.8717 8.31212 94.8717H68.5921L66.772 105.972C66.4295 108.061 67.1206 109.954 68.6211 111.034C70.1211 112.114 72.134 112.172 74.0078 111.185L87.0132 104.339C87.3761 104.153 88.3759 104.153 88.7388 104.339L101.744 111.185C102.634 111.653 103.555 111.886 104.438 111.886C105.415 111.886 106.344 111.601 107.131 111.034C108.631 109.954 109.322 108.06 108.98 105.971L107.161 94.8713H111.688C116.271 94.8713 120 91.1422 120 86.5591V16.4252C120 11.8417 116.271 8.1131 111.688 8.1131ZM87.8763 80.6243C79.8885 80.6243 73.3894 74.1251 73.3894 66.1374C73.3894 58.1497 79.8885 51.6506 87.8763 51.6506C95.864 51.6506 102.363 58.1497 102.363 66.1374C102.363 74.1251 95.864 80.6243 87.8763 80.6243ZM92.0575 98.0351C89.6346 96.7593 86.1174 96.7593 83.695 98.0351L74.5004 102.875L77.4234 85.0444C80.5236 86.7653 84.0869 87.7485 87.8767 87.7485C91.6666 87.7485 95.2294 86.7648 98.3301 85.0444L99.4691 91.9957C99.4719 92.0071 99.4729 92.0195 99.4752 92.0309L101.253 102.875L92.0575 98.0351ZM112.875 86.5596C112.875 87.2032 112.331 87.7471 111.688 87.7471H105.992L104.691 79.8106C104.686 79.7793 104.678 79.7494 104.671 79.718C107.68 76.0046 109.488 71.2786 109.488 66.1374C109.488 54.2207 99.7935 44.5259 87.8767 44.5259C75.96 44.5259 66.2652 54.2207 66.2652 66.1374C66.2652 71.2786 68.073 76.0037 71.082 79.718C71.0758 79.7489 71.0672 79.7793 71.062 79.8102L69.7601 87.7532C69.7202 87.7518 69.6817 87.7471 69.6418 87.7471H8.31212C7.66853 87.7471 7.12468 87.2032 7.12468 86.5596V16.4252C7.12468 15.7816 7.66853 15.2378 8.31212 15.2378H111.688C112.331 15.2378 112.875 15.7816 112.875 16.4252V86.5596Z" fill="#F29300"/>
<path d="M99.0899 28.6141H18.3436C16.3758 28.6141 14.7812 30.2086 14.7812 32.1765C14.7812 34.1443 16.3758 35.7388 18.3436 35.7388H99.0899C101.058 35.7388 102.652 34.1443 102.652 32.1765C102.652 30.2086 101.058 28.6141 99.0899 28.6141Z" fill="#F29300"/>
<path d="M52.542 47.9305H18.3436C16.3758 47.9305 14.7812 49.525 14.7812 51.4929C14.7812 53.4607 16.3758 55.0552 18.3436 55.0552H52.542C54.5099 55.0552 56.1044 53.4607 56.1044 51.4929C56.1044 49.525 54.5099 47.9305 52.542 47.9305Z" fill="#F29300"/>
</g>
<defs>
<clipPath id="clip0_417_98">
<rect width="120" height="120" fill="white"/>
</clipPath>
</defs>
</svg>
