<svg width="25" height="25" viewBox="0 0 25 25" fill="none" xmlns="http://www.w3.org/2000/svg">
<g clip-path="url(#clip0)">
<path d="M24.5129 7.64814C24.8052 7.54424 25.0003 7.26743 25 6.95718C24.9996 6.64692 24.8038 6.37061 24.5113 6.26738L12.7437 2.11548C12.586 2.05981 12.414 2.05981 12.2563 2.11548L0.48877 6.26738C0.196192 6.37056 0.00039121 6.64692 5.85304e-07 6.95718C-0.00039004 7.26743 0.194776 7.54424 0.48711 7.64814L5.14868 9.30537V14.0831C5.14868 14.8716 5.97129 15.5384 7.59365 16.065C9.00776 16.524 10.7502 16.7768 12.5 16.7768C14.2499 16.7768 15.9923 16.524 17.4064 16.065C19.0288 15.5384 19.8514 14.8716 19.8514 14.0831V9.30537L21.7761 8.62114V15.2415C20.9202 15.5441 20.3051 16.3609 20.3051 17.3192C20.3051 18.2774 20.9202 19.0943 21.7761 19.3969V22.194C21.7761 22.5985 22.104 22.9265 22.5085 22.9265C22.913 22.9265 23.2409 22.5985 23.2409 22.194V19.3969C24.0968 19.0943 24.7119 18.2774 24.7119 17.3192C24.7119 16.361 24.0968 15.5441 23.2409 15.2415V8.10034L24.5129 7.64814ZM22.5084 18.0577C22.1012 18.0577 21.7699 17.7264 21.7699 17.3191C21.7699 16.9119 22.1012 16.5806 22.5084 16.5806C22.9157 16.5806 23.247 16.9119 23.247 17.3191C23.247 17.7264 22.9157 18.0577 22.5084 18.0577ZM12.5 3.58281L22.0737 6.96069L12.5 10.3642L2.92632 6.96064L12.5 3.58281ZM18.3865 13.9727C18.2461 14.1142 17.7436 14.4531 16.6094 14.7767C15.3994 15.1218 13.9399 15.3119 12.5 15.3119C11.0601 15.3119 9.60068 15.1218 8.39063 14.7767C7.2564 14.4531 6.75386 14.1142 6.61348 13.9727V9.82612L12.2546 11.8316C12.334 11.8598 12.417 11.8739 12.5 11.8739C12.583 11.8739 12.6659 11.8598 12.7453 11.8316L18.3864 9.82612V13.9727H18.3865Z" fill="#F29300"/>
</g>
<defs>
<clipPath id="clip0">
<rect width="25" height="25" fill="white"/>
</clipPath>
</defs>
</svg>
