<svg width="120" height="120" viewBox="0 0 120 120" fill="none" xmlns="http://www.w3.org/2000/svg">
<path d="M102.427 17.5737C91.0938 6.24094 76.0266 0 60 0C43.9734 0 28.9062 6.24094 17.5734 17.5737C6.24094 28.9062 0 43.9734 0 60C0 76.0266 6.24094 91.0938 17.5734 102.426C28.9062 113.759 43.9734 120 60 120C76.0266 120 91.0938 113.759 102.427 102.426C113.759 91.0938 120 76.0266 120 60C120 43.9734 113.759 28.9062 102.427 17.5737ZM109.108 40.152C104.12 39.0007 99.3919 39.3987 95.1724 41.366C95.1572 41.373 95.1424 41.3808 95.1272 41.388C93.5259 39.188 91.7958 37.0685 89.9391 35.033L99.8562 25.1159C103.857 29.6805 106.943 34.7723 109.108 40.152ZM51.1406 112.204C41.7466 110.623 32.7019 106.505 25.1156 99.8559L84.9602 40.0116C86.5409 41.763 88.0195 43.5823 89.3925 45.4631C86.1586 48.7552 83.8479 53.2978 82.5945 58.9055L77.82 80.2666C75.9424 88.6676 71.7159 96.3422 65.5976 102.461C61.4072 106.651 56.547 109.924 51.1406 112.204V112.204ZM79.848 10.8919C85.2279 13.0577 90.3195 16.1435 94.8844 20.1441L84.9673 30.0612C82.9315 28.2042 80.812 26.4741 78.612 24.8728C78.6192 24.8576 78.627 24.8428 78.634 24.8276C80.6016 20.6081 80.9993 15.8801 79.848 10.8919V10.8919ZM71.6048 8.33484C73.1583 11.9065 74.2807 16.5555 72.6361 20.9573C68.1713 18.3354 63.4259 16.1892 58.4238 14.5378C52.4735 12.5733 46.2459 11.3766 39.9649 10.9673C46.3697 8.36062 53.1846 7.05609 60 7.05609C63.8939 7.05609 67.7876 7.48383 71.6048 8.33484V8.33484ZM22.5452 22.5455C24.0811 21.0096 25.6898 19.5909 27.3584 18.2834C41.8528 16.593 56.1263 19.5762 68.4087 26.6287C65.6937 28.7637 62.352 29.9196 59.561 30.5435L38.1994 35.318C28.4941 37.4871 19.6305 42.3675 12.5674 49.4306C10.6162 51.3816 8.83828 53.46 7.23656 55.6542C8.22258 43.5731 13.3228 31.7679 22.5452 22.5455V22.5455ZM7.79602 68.8596C10.0758 63.4528 13.3493 58.5926 17.5392 54.4027C23.6576 48.2843 31.3324 44.0578 39.7331 42.18L61.0948 37.4055C66.7024 36.1521 71.2451 33.8414 74.5369 30.6077C76.4177 31.9805 78.237 33.4594 79.9884 35.04L20.1441 94.8841C13.4953 87.2979 9.37688 78.2536 7.79602 68.8596V68.8596ZM64.3458 112.763C66.54 111.162 68.6182 109.384 70.5694 107.433C77.633 100.369 82.5131 91.5054 84.682 81.8002L89.4565 60.439C90.0804 57.6478 91.2363 54.3059 93.3713 51.5911C100.423 63.8733 103.406 78.1465 101.716 92.6416C100.409 94.3099 98.9904 95.9187 97.4548 97.4543C88.2323 106.677 76.4269 111.777 64.3458 112.763V112.763ZM109.032 80.0353C108.623 73.7541 107.426 67.5265 105.462 61.5759C103.811 56.5739 101.664 51.8285 99.0427 47.3637C103.444 45.7191 108.094 46.8415 111.665 48.3952C114.006 58.894 113.129 69.9715 109.032 80.0353Z" fill="#F39A10"/>
</svg>
