<svg width="120" height="120" viewBox="0 0 120 120" fill="none" xmlns="http://www.w3.org/2000/svg">
<g clip-path="url(#clip0_417_118)">
<path d="M87.6205 72.2571C87.2817 71.1273 85.8883 70.5991 84.4573 70.5991C83.0639 70.5991 81.6705 71.1273 81.3317 72.2571L74.0634 95.9436C74.0258 96.0947 73.9883 96.2448 73.9883 96.3199C73.9883 97.5256 75.758 98.3533 77.0764 98.3533C77.9049 98.3533 78.5449 98.0905 78.7335 97.3746L80.1635 92.3657H88.7878L90.2197 97.3746C90.4073 98.0905 91.0473 98.3533 91.8759 98.3533C93.1942 98.3533 94.9639 97.4881 94.9639 96.3199C94.9639 96.2073 94.9264 96.0938 94.8889 95.9436L87.6205 72.2571ZM81.1807 88.5242L84.4564 76.9638L87.734 88.5242H81.1807Z" fill="#F39A10"/>
<path d="M107.071 48.9532H71.0458V33.5669L82.7536 25.2045C83.6774 24.5444 84.2258 23.4796 84.2258 22.3444C84.2258 21.2082 83.6774 20.1434 82.7536 19.4833L70.9048 11.0202C69.9792 4.79279 64.5969 0 58.1168 0H12.93C5.79987 0 0 5.79987 0 12.93V58.1177C0 65.2469 5.79987 71.0468 12.93 71.0468H48.9542V86.4331L37.2464 94.7955C36.3226 95.4556 35.7742 96.5213 35.7742 97.6566C35.7742 98.7918 36.3226 99.8575 37.2464 100.517L49.0952 108.98C50.0208 115.207 55.4031 120 61.8832 120H107.071C114.2 120 120 114.199 120 107.07V61.8832C120 54.7531 114.2 48.9532 107.071 48.9532V48.9532ZM12.93 64.0155C9.67712 64.0155 7.03125 61.3696 7.03125 58.1168V12.9291C7.03125 9.67712 9.67712 7.03125 12.93 7.03125H58.1168C61.3687 7.03125 64.0146 9.67712 64.0146 12.9291C64.0146 14.0652 64.563 15.1309 65.4868 15.7901L74.6613 22.3434L65.4868 28.8968C64.563 29.5569 64.0146 30.6226 64.0146 31.7578V48.9532H61.8832C54.754 48.9532 48.9542 54.7531 48.9542 61.8823V64.0155H12.93ZM112.969 107.07C112.969 110.323 110.323 112.969 107.071 112.969H61.8832C58.6313 112.969 55.9854 110.323 55.9854 107.07C55.9854 105.935 55.437 104.869 54.5132 104.21L45.3387 97.6566L54.5132 91.1032C55.437 90.4431 55.9854 89.3774 55.9854 88.2422V61.8832C55.9854 58.6304 58.6313 55.9845 61.8832 55.9845H67.5211H67.5302H67.5394H107.071C110.323 55.9845 112.969 58.6304 112.969 61.8832V107.07Z" fill="#F39A10"/>
<path d="M46.3241 32.4088C47.4182 32.4088 48.3062 31.5207 48.3062 30.4257C48.3062 29.3307 47.4182 28.4427 46.3241 28.4427H37.5048V23.6288C37.5048 22.5339 36.6168 21.6458 35.5218 21.6458C34.4277 21.6458 33.5397 22.5339 33.5397 23.6288V28.4427H24.7204C23.6263 28.4427 22.7383 29.3307 22.7383 30.4257C22.7383 31.5207 23.6263 32.4088 24.7204 32.4088H27.4532C27.89 36.5955 29.6954 40.3793 32.4108 43.3099C30.1595 44.6576 27.5302 45.4358 24.7204 45.4358C23.6263 45.4358 22.7383 46.3229 22.7383 47.4179C22.7383 48.5129 23.6263 49.4009 24.7204 49.4009C28.7322 49.4009 32.4539 48.1467 35.5218 46.0135C38.5906 48.1467 42.3123 49.4009 46.3241 49.4009C47.4182 49.4009 48.3062 48.5129 48.3062 47.4179C48.3062 46.3229 47.4182 45.4358 46.3241 45.4358C43.5143 45.4358 40.8849 44.6594 38.6337 43.3099C41.3491 40.3793 43.1545 36.5955 43.5912 32.4088H46.3241ZM35.5218 40.8325C33.3529 38.5812 31.8798 35.658 31.4486 32.4088H39.5959C39.1647 35.658 37.6916 38.5812 35.5218 40.8325Z" fill="#F39A10"/>
</g>
<defs>
<clipPath id="clip0_417_118">
<rect width="120" height="120" fill="white"/>
</clipPath>
</defs>
</svg>
