<svg width="25" height="25" viewBox="0 0 25 25" fill="none" xmlns="http://www.w3.org/2000/svg">
<g clip-path="url(#clip0)">
<path d="M24.7089 11.5963C24.3294 10.9833 23.658 10.6174 22.913 10.6174H21.0533V7.20615C21.0533 6.38275 20.3587 5.71308 19.5049 5.71308H10.4013C10.388 5.71308 10.379 5.70927 10.3754 5.70698L8.74615 3.42827C8.45718 3.02429 7.98073 2.7832 7.47147 2.7832H1.54839C0.694466 2.7832 0 3.45306 0 4.27628V20.6409C0 21.4836 0.711441 22.1693 1.58615 22.1693H20.0121C20.2991 22.1693 20.5471 22.0036 20.6671 21.763L20.6676 21.7632L24.7967 13.4703C25.0961 12.8693 25.0631 12.1687 24.7089 11.5963ZM1.54839 4.24805H7.47147C7.51534 4.24805 7.54509 4.26731 7.55444 4.28047L9.18617 6.56242C9.46159 6.94771 9.91592 7.17793 10.4013 7.17793H19.5049C19.556 7.17793 19.582 7.20196 19.5885 7.21054V10.6174H6.33297C5.5109 10.6174 4.76322 11.0807 4.4281 11.7979L1.46484 18.1393V4.28066C1.47133 4.27208 1.49727 4.24805 1.54839 4.24805ZM23.4854 12.8174L19.5585 20.7043H1.88313L5.75523 12.4182C5.84908 12.2173 6.08139 12.0823 6.33297 12.0823H22.913C23.147 12.0823 23.3528 12.1889 23.4634 12.3674C23.5256 12.468 23.5798 12.6276 23.4854 12.8174Z" fill="#F29300"/>
</g>
<defs>
<clipPath id="clip0">
<rect width="25" height="25" fill="white"/>
</clipPath>
</defs>
</svg>
