<svg width="25" height="25" viewBox="0 0 25 25" fill="none" xmlns="http://www.w3.org/2000/svg">
<path d="M23.0568 9.84922C23.5095 9.40796 23.6693 8.76035 23.474 8.15913C23.2786 7.55791 22.7687 7.12798 22.1431 7.03711L16.6729 6.24224C16.5655 6.22666 16.4727 6.15923 16.4246 6.06187L13.9783 1.10508C13.6986 0.538184 13.1321 0.186035 12.4999 0.186035C11.8677 0.186035 11.3012 0.538184 11.0215 1.10508L8.57512 6.06191C8.52703 6.15923 8.43425 6.22666 8.32683 6.24229L2.85671 7.03711C2.23113 7.12798 1.72122 7.55791 1.52581 8.15913C1.3304 8.76035 1.49026 9.40796 1.94299 9.84922L5.90125 13.7076C5.97893 13.7833 6.01443 13.8925 5.99607 13.9995L5.06165 19.4475C4.95481 20.0706 5.20608 20.6884 5.7175 21.06C6.22893 21.4317 6.89436 21.4797 7.45383 21.1856L12.3465 18.6134C12.4426 18.5628 12.5573 18.5628 12.6534 18.6134L17.5461 21.1856C17.7894 21.3135 18.0528 21.3768 18.3148 21.3767C18.6552 21.3767 18.9933 21.2701 19.2823 21.06C19.7937 20.6883 20.045 20.0705 19.9381 19.4475L19.0037 13.9994C18.9854 13.8924 19.0208 13.7833 19.0985 13.7075L23.0568 9.84922ZM17.7038 14.2225L18.6383 19.6706C18.6695 19.8529 18.557 19.9569 18.5071 19.9931C18.4572 20.0292 18.3235 20.1042 18.1598 20.0181L13.2672 17.4459C13.027 17.3197 12.7635 17.2565 12.5 17.2565C12.2365 17.2565 11.9729 17.3197 11.7328 17.4458L6.84016 20.018C6.67639 20.1041 6.54275 20.0292 6.4929 19.993C6.44304 19.9568 6.33044 19.8528 6.36174 19.6705L7.29617 14.2225C7.38792 13.6875 7.21072 13.142 6.822 12.7632L2.86375 8.90483C2.73127 8.77563 2.76126 8.62539 2.78035 8.5668C2.79934 8.50815 2.86345 8.36895 3.04651 8.34238L8.51658 7.54751C9.05364 7.46948 9.51775 7.13237 9.75799 6.64561L12.2043 1.68877C12.2862 1.5229 12.4384 1.50498 12.5 1.50498C12.5616 1.50498 12.7137 1.52285 12.7957 1.68877V1.68882L15.242 6.64565C15.4822 7.13242 15.9463 7.46953 16.4833 7.54756L21.9535 8.34243C22.1365 8.36899 22.2006 8.5082 22.2197 8.56685C22.2387 8.62549 22.2687 8.77578 22.1362 8.90488L18.178 12.7632C17.7893 13.142 17.6121 13.6875 17.7038 14.2225Z" fill="#F29300"/>
<path d="M20.2042 1.10474C19.9095 0.890675 19.4971 0.956007 19.2831 1.25064L18.583 2.21411C18.369 2.50874 18.4342 2.92119 18.7289 3.13526C18.8461 3.22026 18.9817 3.26123 19.116 3.26123C19.32 3.26123 19.5211 3.16694 19.6501 2.98941L20.3501 2.02593C20.5642 1.73125 20.4989 1.3188 20.2042 1.10474Z" fill="#F29300"/>
<path d="M6.41407 2.21014L5.71402 1.24666C5.50001 0.952128 5.0876 0.886796 4.79287 1.10076C4.49824 1.31482 4.43291 1.72728 4.64697 2.02191L5.34703 2.98538C5.47608 3.16307 5.67715 3.25731 5.88116 3.25731C6.01558 3.25731 6.15123 3.21634 6.26822 3.13128C6.56285 2.91727 6.62818 2.50482 6.41407 2.21014Z" fill="#F29300"/>
<path d="M2.41952 14.9818C2.30697 14.6355 1.93495 14.4459 1.58852 14.5585L0.45585 14.9265C0.109414 15.0391 -0.080088 15.4112 0.0324608 15.7575C0.122988 16.0363 0.381533 16.2134 0.659512 16.2134C0.727041 16.2134 0.795742 16.2029 0.863467 16.1809L1.99613 15.8128C2.34252 15.7003 2.53207 15.3283 2.41952 14.9818Z" fill="#F29300"/>
<path d="M12.5003 22.304C12.1361 22.304 11.8408 22.5992 11.8408 22.9634V24.1544C11.8408 24.5187 12.1361 24.8139 12.5003 24.8139C12.8645 24.8139 13.1598 24.5187 13.1598 24.1544V22.9634C13.1598 22.5992 12.8646 22.304 12.5003 22.304Z" fill="#F29300"/>
<path d="M24.544 14.9275L23.4113 14.5594C23.065 14.4469 22.6929 14.6364 22.5803 14.9828C22.4678 15.3293 22.6573 15.7013 23.0037 15.8138L24.1364 16.1819C24.2041 16.2039 24.2727 16.2143 24.3403 16.2143C24.6183 16.2143 24.8769 16.0371 24.9674 15.7584C25.0799 15.412 24.8904 15.04 24.544 14.9275Z" fill="#F29300"/>
</svg>
