<svg xmlns="http://www.w3.org/2000/svg" xmlns:xlink="http://www.w3.org/1999/xlink" viewBox="0 0 34 34"><path d="M 5.667 12.278 C 5.667 8.627 8.627 5.667 12.278 5.667 L 21.722 5.667 C 25.373 5.667 28.333 8.627 28.333 12.278 L 28.333 21.722 C 28.333 25.373 25.373 28.333 21.722 28.333 L 12.278 28.333 C 8.627 28.333 5.667 25.373 5.667 21.722 Z M 21.722 10.389 C 21.707 11.074 22.063 11.713 22.654 12.06 C 23.244 12.407 23.976 12.407 24.567 12.061 C 25.157 11.714 25.514 11.075 25.499 10.39 C 25.476 9.363 24.638 8.543 23.611 8.543 C 22.584 8.542 21.745 9.362 21.722 10.389 Z M 12.278 17 C 12.278 19.608 14.393 21.722 17.001 21.722 C 19.609 21.722 21.723 19.607 21.723 16.999 C 21.723 14.391 19.608 12.277 17 12.277 C 14.392 12.277 12.278 14.392 12.278 17 Z" fill="#222"></path></svg>