<svg width="322" height="343" viewBox="0 0 322 343" fill="none" xmlns="http://www.w3.org/2000/svg">
<path d="M0 219C0 215.686 2.68629 213 6 213H316C319.314 213 322 215.686 322 219V267C322 270.314 319.314 273 316 273H6C2.68629 273 0 270.314 0 267V219Z" fill="#AAAAB9" fill-opacity="0.03"/>
<path d="M61.5568 248L58.3295 236.364H60.1761L62.4432 245.375H62.5511L64.9091 236.364H66.7386L69.0966 245.381H69.2045L71.4659 236.364H73.3182L70.0852 248H68.3182L65.8693 239.284H65.7784L63.3295 248H61.5568ZM74.7827 248V239.273H76.4815V248H74.7827ZM75.6406 237.926C75.3452 237.926 75.0914 237.828 74.8793 237.631C74.6709 237.43 74.5668 237.191 74.5668 236.915C74.5668 236.634 74.6709 236.396 74.8793 236.199C75.0914 235.998 75.3452 235.898 75.6406 235.898C75.9361 235.898 76.188 235.998 76.3963 236.199C76.6084 236.396 76.7145 236.634 76.7145 236.915C76.7145 237.191 76.6084 237.43 76.3963 237.631C76.188 237.828 75.9361 237.926 75.6406 237.926ZM80.4659 236.364V248H78.767V236.364H80.4659ZM84.4503 236.364V248H82.7514V236.364H84.4503ZM86.7358 248V239.273H88.4347V248H86.7358ZM87.5938 237.926C87.2983 237.926 87.0445 237.828 86.8324 237.631C86.6241 237.43 86.5199 237.191 86.5199 236.915C86.5199 236.634 86.6241 236.396 86.8324 236.199C87.0445 235.998 87.2983 235.898 87.5938 235.898C87.8892 235.898 88.1411 235.998 88.3494 236.199C88.5616 236.396 88.6676 236.634 88.6676 236.915C88.6676 237.191 88.5616 237.43 88.3494 237.631C88.1411 237.828 87.8892 237.926 87.5938 237.926ZM92.419 242.818V248H90.7202V239.273H92.3509V240.693H92.4588C92.6596 240.231 92.974 239.86 93.402 239.58C93.8338 239.299 94.3774 239.159 95.0327 239.159C95.6274 239.159 96.1482 239.284 96.5952 239.534C97.0421 239.78 97.3887 240.148 97.6349 240.636C97.8812 241.125 98.0043 241.729 98.0043 242.449V248H96.3054V242.653C96.3054 242.021 96.1406 241.527 95.8111 241.17C95.4815 240.811 95.0289 240.631 94.4531 240.631C94.0592 240.631 93.7088 240.716 93.402 240.886C93.099 241.057 92.8584 241.307 92.6804 241.636C92.5062 241.962 92.419 242.356 92.419 242.818ZM103.942 251.455C103.249 251.455 102.652 251.364 102.152 251.182C101.656 251 101.25 250.759 100.936 250.46C100.622 250.161 100.387 249.833 100.232 249.477L101.692 248.875C101.794 249.042 101.93 249.218 102.101 249.403C102.275 249.593 102.51 249.754 102.805 249.886C103.105 250.019 103.489 250.085 103.959 250.085C104.603 250.085 105.135 249.928 105.555 249.614C105.976 249.303 106.186 248.807 106.186 248.125V246.409H106.078C105.976 246.595 105.828 246.801 105.635 247.028C105.446 247.256 105.184 247.453 104.851 247.619C104.518 247.786 104.084 247.869 103.55 247.869C102.86 247.869 102.239 247.708 101.686 247.386C101.137 247.061 100.701 246.581 100.379 245.949C100.061 245.312 99.902 244.53 99.902 243.602C99.902 242.674 100.059 241.879 100.374 241.216C100.692 240.553 101.127 240.045 101.68 239.693C102.233 239.337 102.86 239.159 103.561 239.159C104.103 239.159 104.54 239.25 104.874 239.432C105.207 239.61 105.466 239.818 105.652 240.057C105.841 240.295 105.987 240.506 106.089 240.688H106.214V239.273H107.879V248.193C107.879 248.943 107.705 249.559 107.357 250.04C107.008 250.521 106.536 250.877 105.942 251.108C105.351 251.339 104.684 251.455 103.942 251.455ZM103.925 246.46C104.413 246.46 104.826 246.347 105.163 246.119C105.504 245.888 105.762 245.559 105.936 245.131C106.114 244.699 106.203 244.182 106.203 243.58C106.203 242.992 106.116 242.475 105.942 242.028C105.768 241.581 105.512 241.233 105.175 240.983C104.838 240.729 104.421 240.602 103.925 240.602C103.413 240.602 102.987 240.735 102.646 241C102.305 241.261 102.048 241.617 101.874 242.068C101.703 242.519 101.618 243.023 101.618 243.58C101.618 244.152 101.705 244.653 101.879 245.085C102.054 245.517 102.311 245.854 102.652 246.097C102.997 246.339 103.421 246.46 103.925 246.46ZM114.528 248V236.364H118.676C119.578 236.364 120.326 236.519 120.92 236.83C121.519 237.14 121.966 237.57 122.261 238.119C122.557 238.665 122.705 239.295 122.705 240.011C122.705 240.723 122.555 241.35 122.256 241.892C121.96 242.43 121.513 242.848 120.915 243.148C120.32 243.447 119.572 243.597 118.67 243.597H115.528V242.085H118.511C119.08 242.085 119.542 242.004 119.898 241.841C120.258 241.678 120.521 241.441 120.688 241.131C120.854 240.82 120.938 240.447 120.938 240.011C120.938 239.572 120.852 239.191 120.682 238.869C120.515 238.547 120.252 238.301 119.892 238.131C119.536 237.956 119.068 237.869 118.489 237.869H116.284V248H114.528ZM120.273 242.75L123.148 248H121.148L118.33 242.75H120.273ZM124.705 248V239.273H126.403V248H124.705ZM125.562 237.926C125.267 237.926 125.013 237.828 124.801 237.631C124.593 237.43 124.489 237.191 124.489 236.915C124.489 236.634 124.593 236.396 124.801 236.199C125.013 235.998 125.267 235.898 125.562 235.898C125.858 235.898 126.11 235.998 126.318 236.199C126.53 236.396 126.636 236.634 126.636 236.915C126.636 237.191 126.53 237.43 126.318 237.631C126.11 237.828 125.858 237.926 125.562 237.926ZM135.229 241.403L133.689 241.676C133.625 241.479 133.522 241.292 133.382 241.114C133.246 240.936 133.06 240.79 132.825 240.676C132.59 240.562 132.297 240.506 131.945 240.506C131.464 240.506 131.062 240.614 130.74 240.83C130.418 241.042 130.257 241.316 130.257 241.653C130.257 241.945 130.365 242.18 130.581 242.358C130.797 242.536 131.145 242.682 131.626 242.795L133.013 243.114C133.816 243.299 134.414 243.585 134.808 243.972C135.202 244.358 135.399 244.86 135.399 245.477C135.399 246 135.248 246.466 134.945 246.875C134.645 247.28 134.227 247.598 133.689 247.83C133.155 248.061 132.536 248.176 131.831 248.176C130.854 248.176 130.056 247.968 129.439 247.551C128.821 247.131 128.443 246.534 128.303 245.761L129.945 245.511C130.047 245.939 130.257 246.263 130.575 246.483C130.893 246.699 131.308 246.807 131.82 246.807C132.376 246.807 132.821 246.691 133.155 246.46C133.488 246.225 133.655 245.939 133.655 245.602C133.655 245.33 133.553 245.1 133.348 244.915C133.147 244.729 132.839 244.589 132.422 244.494L130.945 244.17C130.13 243.985 129.528 243.689 129.138 243.284C128.751 242.879 128.558 242.366 128.558 241.744C128.558 241.229 128.702 240.778 128.99 240.392C129.278 240.006 129.676 239.705 130.183 239.489C130.691 239.269 131.272 239.159 131.928 239.159C132.871 239.159 133.613 239.364 134.155 239.773C134.696 240.178 135.054 240.722 135.229 241.403ZM138.83 245.04L138.818 242.966H139.114L142.591 239.273H144.625L140.659 243.477H140.392L138.83 245.04ZM137.267 248V236.364H138.966V248H137.267ZM142.778 248L139.653 243.852L140.824 242.665L144.864 248H142.778ZM149.97 237.875V236.364H158.976V237.875H155.345V248H153.595V237.875H149.97ZM162.182 248.193C161.629 248.193 161.129 248.091 160.682 247.886C160.235 247.678 159.881 247.377 159.619 246.983C159.362 246.589 159.233 246.106 159.233 245.534C159.233 245.042 159.328 244.636 159.517 244.318C159.706 244 159.962 243.748 160.284 243.562C160.606 243.377 160.966 243.237 161.364 243.142C161.761 243.047 162.167 242.975 162.58 242.926C163.102 242.866 163.527 242.816 163.852 242.778C164.178 242.737 164.415 242.67 164.562 242.58C164.71 242.489 164.784 242.341 164.784 242.136V242.097C164.784 241.6 164.644 241.216 164.364 240.943C164.087 240.67 163.674 240.534 163.125 240.534C162.553 240.534 162.102 240.661 161.773 240.915C161.447 241.165 161.222 241.443 161.097 241.75L159.5 241.386C159.689 240.856 159.966 240.428 160.33 240.102C160.697 239.773 161.119 239.534 161.597 239.386C162.074 239.235 162.576 239.159 163.102 239.159C163.451 239.159 163.82 239.201 164.21 239.284C164.604 239.364 164.972 239.511 165.312 239.727C165.657 239.943 165.939 240.252 166.159 240.653C166.379 241.051 166.489 241.568 166.489 242.205V248H164.83V246.807H164.761C164.652 247.027 164.487 247.242 164.267 247.455C164.047 247.667 163.765 247.843 163.42 247.983C163.076 248.123 162.663 248.193 162.182 248.193ZM162.551 246.83C163.021 246.83 163.422 246.737 163.756 246.551C164.093 246.366 164.348 246.123 164.523 245.824C164.701 245.521 164.79 245.197 164.79 244.852V243.727C164.729 243.788 164.612 243.845 164.438 243.898C164.267 243.947 164.072 243.991 163.852 244.028C163.633 244.062 163.419 244.095 163.21 244.125C163.002 244.152 162.828 244.174 162.688 244.193C162.358 244.235 162.057 244.305 161.784 244.403C161.515 244.502 161.299 244.644 161.136 244.83C160.977 245.011 160.898 245.254 160.898 245.557C160.898 245.977 161.053 246.295 161.364 246.511C161.674 246.723 162.07 246.83 162.551 246.83ZM170.314 245.04L170.303 242.966H170.598L174.075 239.273H176.109L172.143 243.477H171.876L170.314 245.04ZM168.751 248V236.364H170.45V248H168.751ZM174.263 248L171.138 243.852L172.308 242.665L176.348 248H174.263ZM181.06 248.176C180.2 248.176 179.459 247.992 178.838 247.625C178.221 247.254 177.743 246.733 177.406 246.062C177.073 245.388 176.906 244.598 176.906 243.693C176.906 242.799 177.073 242.011 177.406 241.33C177.743 240.648 178.213 240.116 178.815 239.733C179.421 239.35 180.13 239.159 180.94 239.159C181.433 239.159 181.91 239.241 182.372 239.403C182.834 239.566 183.249 239.822 183.616 240.17C183.984 240.519 184.274 240.972 184.486 241.528C184.698 242.081 184.804 242.754 184.804 243.545V244.148H177.866V242.875H183.139C183.139 242.428 183.048 242.032 182.866 241.688C182.685 241.339 182.429 241.064 182.099 240.864C181.774 240.663 181.391 240.562 180.952 240.562C180.474 240.562 180.058 240.68 179.702 240.915C179.349 241.146 179.077 241.449 178.884 241.824C178.694 242.195 178.599 242.598 178.599 243.034V244.028C178.599 244.612 178.702 245.108 178.906 245.517C179.115 245.926 179.404 246.239 179.776 246.455C180.147 246.667 180.58 246.773 181.077 246.773C181.399 246.773 181.692 246.727 181.957 246.636C182.223 246.542 182.452 246.402 182.645 246.216C182.838 246.03 182.986 245.801 183.088 245.528L184.696 245.818C184.567 246.292 184.336 246.706 184.003 247.062C183.673 247.415 183.259 247.689 182.759 247.886C182.262 248.08 181.696 248.176 181.06 248.176ZM186.689 248V239.273H188.331V240.659H188.422C188.581 240.189 188.861 239.82 189.263 239.551C189.668 239.278 190.126 239.142 190.638 239.142C190.744 239.142 190.869 239.146 191.013 239.153C191.161 239.161 191.276 239.17 191.359 239.182V240.807C191.291 240.788 191.17 240.767 190.996 240.744C190.821 240.718 190.647 240.705 190.473 240.705C190.071 240.705 189.714 240.79 189.399 240.96C189.089 241.127 188.842 241.36 188.661 241.659C188.479 241.955 188.388 242.292 188.388 242.67V248H186.689Z" fill="#AAAAB9" fill-opacity="0.4"/>
<g clip-path="url(#clip0_6_5899)">
<path opacity="0.1" d="M34.1465 254.2C40.3321 254.2 45.3465 249.186 45.3465 243C45.3465 236.814 40.3321 231.8 34.1465 231.8C27.9609 231.8 22.9465 236.814 22.9465 243C22.9465 249.186 27.9609 254.2 34.1465 254.2Z" fill="#F8DB4A"/>
<g style="mix-blend-mode:multiply" opacity="0.44">
<g style="mix-blend-mode:multiply" opacity="0.6">
<g style="mix-blend-mode:multiply" opacity="0.6">
<path d="M43.0969 246.69L41.8089 247.337C41.2178 247.608 41.4014 248.105 41.4418 248.793C41.4729 249.359 41.8649 252.106 41.4667 252.679C40.8445 253.612 37.7862 253.13 37.1111 253.553C36.436 253.976 36.6382 255.236 36.7067 256.042C36.7596 256.624 36.3054 256.804 35.5462 256.804H28.7765C28.82 255.728 29.4422 254.026 29.2431 252.965C29.0098 251.696 28.3098 250.588 27.6378 249.508C27.3702 249.076 26.3778 248.164 26.7978 247.642C27.1742 247.175 28.5836 247.331 29.0969 247.365C29.3738 247.39 29.6289 247.464 29.8934 247.492C30.3631 247.539 30.8454 247.371 31.3214 247.387C32.2049 247.418 33.048 247.16 33.9316 247.153C35.7485 247.153 38.0507 247.483 39.3107 245.822C39.6218 245.405 40.9098 242.032 41.6005 243.177L43.1902 245.934C43.2759 246.047 43.314 246.19 43.2966 246.331C43.2792 246.472 43.2076 246.6 43.0969 246.69Z" fill="#F8DB4A"/>
</g>
</g>
</g>
<path d="M28.8357 256.751C28.7978 256.751 28.7601 256.746 28.7237 256.735C28.6253 256.706 28.5425 256.639 28.4936 256.548C28.4446 256.458 28.4334 256.352 28.4624 256.253C29.2184 253.715 28.0424 251.481 27.0033 249.508L26.9131 249.337C26.8859 249.292 26.8681 249.241 26.8611 249.189C26.8541 249.136 26.8578 249.083 26.8721 249.032C26.8864 248.981 26.911 248.934 26.9443 248.892C26.9776 248.851 27.0189 248.817 27.0658 248.793C27.1127 248.768 27.1641 248.753 27.2169 248.749C27.2696 248.745 27.3227 248.752 27.3728 248.769C27.4228 248.787 27.4689 248.814 27.508 248.849C27.5472 248.885 27.5787 248.928 27.6006 248.976L27.6909 249.147C28.7424 251.148 30.0553 253.634 29.206 256.477C29.1814 256.556 29.1323 256.626 29.0657 256.675C28.9991 256.724 28.9186 256.751 28.8357 256.751Z" fill="#F8DB4A"/>
<path d="M37.7333 256.4C37.6384 255.764 37.6144 255.121 37.6617 254.48C37.6938 254.092 37.8485 253.723 38.1035 253.429C38.1408 253.388 38.1826 253.351 38.228 253.32L38.2933 253.27L38.3275 253.245L38.3773 253.22C38.4562 253.182 38.5385 253.152 38.6231 253.13C38.8002 253.081 38.9814 253.049 39.1644 253.033C39.4755 252.999 39.7866 252.993 40.0977 252.981C40.4088 252.968 40.7199 252.962 41.0062 252.94C41.2991 252.926 41.591 252.895 41.8804 252.847C42.1345 252.816 42.3798 252.734 42.6022 252.607C42.6423 252.586 42.6774 252.556 42.7048 252.52L42.7266 252.498L42.708 252.529V252.505L42.7608 252.402C42.7652 252.361 42.7725 252.32 42.7826 252.281C42.7826 252.215 42.8075 252.156 42.8106 252.085C42.8368 251.796 42.843 251.506 42.8293 251.217C42.8106 250.619 42.7515 250.016 42.6893 249.409C42.652 249.098 42.6333 248.768 42.6053 248.476C42.5841 248.305 42.5758 248.134 42.5804 247.962C42.5861 247.735 42.6683 247.515 42.8137 247.34C42.8895 247.254 42.9788 247.18 43.0782 247.122L43.2151 247.054L43.3115 247.007L43.7253 246.808L44.5528 246.407L44.4968 246.441C44.5177 246.425 44.5351 246.406 44.5483 246.383C44.5615 246.361 44.57 246.336 44.5735 246.31C44.577 246.285 44.5753 246.258 44.5685 246.233C44.5618 246.208 44.5501 246.185 44.5342 246.164L44.5124 246.133L43.436 244.313L42.8977 243.405L42.7608 243.171C42.7152 243.088 42.6716 243.004 42.6302 242.919C42.5453 242.744 42.4756 242.562 42.4217 242.375C42.4103 242.334 42.407 242.291 42.4121 242.249C42.4172 242.207 42.4305 242.166 42.4513 242.129C42.4721 242.092 42.4999 242.06 42.5333 242.034C42.5667 242.007 42.6049 241.988 42.6457 241.977C42.6866 241.965 42.7293 241.962 42.7714 241.967C42.8135 241.972 42.8543 241.985 42.8912 242.006C42.9659 242.048 43.0209 242.118 43.044 242.201C43.0884 242.352 43.1457 242.5 43.2151 242.642C43.2503 242.715 43.2877 242.786 43.3271 242.857L43.4608 243.078L44.0053 243.983L45.0942 245.794L45.0693 245.76C45.1403 245.85 45.1926 245.954 45.2233 246.064C45.2539 246.175 45.2622 246.291 45.2477 246.405C45.2333 246.519 45.1963 246.629 45.139 246.729C45.0816 246.828 45.0051 246.916 44.9137 246.985L44.8577 247.02L44.0333 247.427L43.6444 247.601L43.464 247.692C43.4301 247.712 43.3996 247.737 43.3737 247.766C43.2928 247.829 43.296 248.077 43.3333 248.389C43.3706 248.7 43.3831 248.989 43.4235 249.303C43.492 249.925 43.5573 250.548 43.5822 251.17C43.5996 251.493 43.5944 251.818 43.5666 252.141C43.5666 252.221 43.5417 252.315 43.5293 252.399C43.5072 252.505 43.476 252.609 43.436 252.71L43.3831 252.813V252.837L43.3613 252.875V252.89L43.3053 252.956C43.2372 253.041 43.1551 253.113 43.0626 253.17C42.7574 253.359 42.4162 253.482 42.0608 253.531C41.7449 253.587 41.426 253.624 41.1057 253.643C40.7946 253.665 40.4835 253.677 40.1724 253.69C39.8613 253.702 39.5502 253.715 39.2795 253.746C39.1561 253.759 39.0335 253.778 38.9124 253.805C38.8473 253.819 38.7844 253.842 38.7257 253.873L38.7693 253.852L38.7444 253.87C38.7263 253.882 38.7105 253.897 38.6977 253.914C38.5599 254.093 38.4796 254.31 38.4675 254.536C38.4409 254.817 38.4409 255.099 38.4675 255.379C38.4862 255.669 38.5297 255.973 38.5608 256.285C38.5707 256.387 38.5394 256.49 38.4738 256.569C38.4081 256.649 38.3136 256.699 38.2108 256.709C38.1081 256.719 38.0057 256.688 37.926 256.622C37.8464 256.557 37.7961 256.462 37.7862 256.359L37.7333 256.4Z" fill="#F8DB4A"/>
<path d="M25.0028 243.333C24.919 243.333 24.8374 243.306 24.7702 243.256C24.7029 243.206 24.6535 243.136 24.6294 243.056L22.8623 237.139C22.7813 236.868 22.7778 236.581 22.852 236.309C22.9262 236.036 23.0753 235.79 23.2823 235.599L28.6334 230.587C28.8904 230.348 29.218 230.199 29.5668 230.164L38.2001 229.311C38.5726 229.274 38.9465 229.366 39.2584 229.573C39.5703 229.78 39.801 230.089 39.9112 230.447L40.2627 231.613C40.292 231.712 40.2808 231.819 40.2315 231.91C40.1822 232 40.0989 232.068 39.9998 232.097C39.9009 232.126 39.7943 232.115 39.7035 232.066C39.6128 232.017 39.5454 231.933 39.5161 231.834L39.1707 230.668C39.1105 230.484 38.9889 230.326 38.8264 230.221C38.6638 230.117 38.4701 230.071 38.2778 230.092L29.6445 230.938C29.4622 230.955 29.2906 231.032 29.1561 231.156L23.8143 236.156C23.7133 236.249 23.6406 236.368 23.6043 236.501C23.568 236.634 23.5696 236.774 23.609 236.905L25.373 242.816C25.3905 242.875 25.3941 242.936 25.3836 242.996C25.3731 243.056 25.3487 243.112 25.3124 243.161C25.2761 243.21 25.2289 243.249 25.1746 243.276C25.1203 243.303 25.0604 243.317 24.9997 243.317L25.0028 243.333Z" fill="#F8DB4A"/>
<path d="M40.3717 233.72C40.2879 233.72 40.2063 233.693 40.1391 233.643C40.0718 233.593 40.0224 233.523 39.9983 233.443L39.8366 232.901C39.8073 232.802 39.8185 232.696 39.8678 232.605C39.9171 232.514 40.0004 232.447 40.0994 232.418C40.1985 232.388 40.3051 232.4 40.3958 232.449C40.4865 232.498 40.5539 232.581 40.5832 232.68L40.745 233.222C40.7625 233.28 40.7661 233.341 40.7556 233.401C40.7451 233.461 40.7207 233.518 40.6844 233.566C40.6481 233.615 40.6009 233.654 40.5466 233.682C40.4923 233.709 40.4324 233.723 40.3717 233.723V233.72Z" fill="#F8DB4A"/>
<path d="M27.2893 247.916C26.9421 247.92 26.6028 247.812 26.3224 247.607C26.0419 247.402 25.8354 247.112 25.7338 246.78L25.0804 244.556C25.0659 244.507 25.0612 244.455 25.0666 244.404C25.072 244.353 25.0873 244.304 25.1117 244.259C25.1361 244.214 25.1691 244.175 25.2089 244.142C25.2486 244.11 25.2943 244.086 25.3433 244.072C25.3924 244.057 25.4438 244.053 25.4946 244.058C25.5455 244.063 25.5947 244.079 25.6397 244.103C25.6846 244.127 25.7243 244.16 25.7564 244.2C25.7886 244.24 25.8126 244.286 25.8271 244.335L26.4867 246.547C26.5412 246.728 26.6556 246.885 26.811 246.992C26.9665 247.099 27.1537 247.151 27.3422 247.138L37.4689 246.733C37.6648 246.729 37.8567 246.678 38.0292 246.585C38.2016 246.492 38.3497 246.359 38.4613 246.198L41.9769 241.034C42.0399 240.945 42.0821 240.842 42.1004 240.735C42.1187 240.627 42.1126 240.517 42.0827 240.412L40.3093 234.485C40.2801 234.386 40.2913 234.279 40.3406 234.189C40.3899 234.098 40.4732 234.03 40.5722 234.001C40.6712 233.972 40.7778 233.983 40.8686 234.032C40.9593 234.082 41.0267 234.165 41.056 234.264L42.8231 240.2C42.8889 240.418 42.9043 240.648 42.8682 240.873C42.8321 241.097 42.7454 241.311 42.6147 241.497L39.1022 246.646C38.9217 246.907 38.6828 247.121 38.4046 247.273C38.1265 247.425 37.8167 247.51 37.5 247.52L27.3764 247.912L27.2893 247.916Z" fill="#F8DB4A"/>
<path d="M27.5385 237.378C27.5178 237.378 27.4981 237.37 27.4835 237.355C27.4689 237.341 27.4607 237.321 27.4607 237.3C27.4607 237.28 27.4689 237.26 27.4835 237.246C27.4981 237.231 27.5178 237.223 27.5385 237.223L30.0274 237.039C30.0377 237.038 30.0481 237.039 30.0581 237.042C30.068 237.045 30.0772 237.05 30.0851 237.056C30.093 237.063 30.0995 237.071 30.104 237.081C30.1085 237.09 30.111 237.1 30.1114 237.111C30.1122 237.121 30.111 237.131 30.1079 237.141C30.1047 237.151 30.0997 237.16 30.093 237.168C30.0864 237.175 30.0783 237.182 30.0691 237.187C30.06 237.191 30.05 237.194 30.0398 237.195L27.5509 237.378H27.5385Z" fill="#F8DB4A"/>
<path d="M35.932 243.022C35.9152 243.022 35.8988 243.016 35.8854 243.006C35.8719 242.996 35.8621 242.982 35.8574 242.966L34.3018 237.807C34.2176 237.549 34.0492 237.327 33.8236 237.176C33.598 237.024 33.3282 236.953 33.0574 236.974L31.396 237.089C31.3857 237.09 31.3753 237.089 31.3653 237.086C31.3554 237.083 31.3462 237.078 31.3383 237.072C31.3304 237.065 31.3239 237.056 31.3194 237.047C31.3149 237.038 31.3124 237.028 31.312 237.017C31.3112 237.007 31.3124 236.997 31.3155 236.987C31.3187 236.977 31.3237 236.968 31.3304 236.96C31.337 236.952 31.3451 236.946 31.3542 236.941C31.3634 236.937 31.3734 236.934 31.3836 236.933L33.0231 236.812C33.3296 236.786 33.6357 236.864 33.8924 237.034C34.1491 237.203 34.3415 237.454 34.4387 237.745L35.9943 242.903C36 242.923 35.9977 242.944 35.9878 242.963C35.9779 242.981 35.9612 242.994 35.9414 243L35.932 243.022Z" fill="#F8DB4A"/>
<path d="M27.1309 234.199C27.1155 234.199 27.1005 234.194 27.0878 234.185C27.0751 234.176 27.0653 234.164 27.0596 234.15C27.054 234.135 27.0527 234.12 27.056 234.104C27.0592 234.089 27.0669 234.076 27.078 234.065C27.9709 233.2 29.0536 232.139 29.0536 232.139C29.3802 231.831 29.8009 231.641 30.2482 231.601L31.5331 231.473C31.5538 231.473 31.5736 231.482 31.5881 231.496C31.6027 231.511 31.6109 231.531 31.6109 231.551C31.6109 231.572 31.6027 231.592 31.5881 231.606C31.5736 231.621 31.5538 231.629 31.5331 231.629L30.2669 231.753C29.8548 231.79 29.467 231.965 29.1656 232.248C29.1656 232.248 28.0891 233.312 27.1838 234.177C27.1696 234.191 27.1507 234.198 27.1309 234.199Z" fill="#F8DB4A"/>
<path d="M32.2858 231.551C32.2652 231.551 32.2454 231.543 32.2308 231.528C32.2162 231.514 32.208 231.494 32.208 231.473C32.208 231.453 32.2162 231.433 32.2308 231.418C32.2454 231.404 32.2652 231.396 32.2858 231.396L33.9876 231.224C34.0077 231.223 34.0278 231.229 34.0434 231.242C34.0592 231.254 34.0692 231.273 34.0716 231.293C34.0733 231.313 34.0672 231.333 34.0544 231.349C34.0416 231.364 34.0232 231.375 34.0031 231.377L32.3013 231.548L32.2858 231.551Z" fill="#F8DB4A"/>
<path d="M39.9858 236.24C39.969 236.24 39.9526 236.234 39.9391 236.224C39.9257 236.214 39.9159 236.2 39.9111 236.184L39.6 235.095C39.5972 235.085 39.5963 235.075 39.5974 235.064C39.5985 235.054 39.6016 235.044 39.6065 235.035C39.6114 235.027 39.618 235.019 39.626 235.012C39.634 235.006 39.6431 235.001 39.6529 234.998C39.6627 234.995 39.673 234.994 39.6832 234.996C39.6933 234.997 39.7032 235 39.7121 235.005C39.7211 235.01 39.729 235.016 39.7354 235.024C39.7417 235.032 39.7465 235.041 39.7494 235.051L40.0605 236.14C40.0663 236.16 40.0639 236.181 40.054 236.199C40.0441 236.217 40.0274 236.231 40.0076 236.236L39.9858 236.24Z" fill="#F8DB4A"/>
<path d="M40.4402 237.758C40.4234 237.758 40.407 237.752 40.3935 237.742C40.3801 237.732 40.3702 237.718 40.3655 237.702L40.2504 237.313C40.2476 237.303 40.2467 237.293 40.2478 237.283C40.2489 237.273 40.252 237.263 40.2569 237.254C40.2618 237.245 40.2684 237.237 40.2764 237.231C40.2844 237.224 40.2935 237.219 40.3033 237.216C40.3131 237.214 40.3234 237.213 40.3336 237.214C40.3437 237.215 40.3535 237.218 40.3625 237.223C40.3715 237.228 40.3794 237.235 40.3857 237.242C40.3921 237.25 40.3969 237.26 40.3998 237.269L40.5149 237.658C40.5206 237.678 40.5183 237.699 40.5084 237.717C40.4985 237.736 40.4818 237.749 40.462 237.755L40.4402 237.758Z" fill="#F8DB4A"/>
<path d="M39.961 242.34C39.9468 242.341 39.9329 242.337 39.9206 242.33C39.9084 242.322 39.8984 242.312 39.8916 242.3C39.8849 242.287 39.8817 242.273 39.8824 242.259C39.8831 242.245 39.8877 242.231 39.8957 242.219L40.6455 241.133C40.8091 240.9 40.9176 240.633 40.9629 240.351C41.0082 240.07 40.989 239.782 40.9068 239.509L40.5335 238.231C40.5306 238.221 40.5297 238.211 40.5308 238.2C40.5319 238.19 40.535 238.18 40.5399 238.171C40.5448 238.163 40.5515 238.155 40.5594 238.148C40.5674 238.142 40.5765 238.137 40.5863 238.134C40.5961 238.131 40.6064 238.13 40.6166 238.132C40.6267 238.133 40.6366 238.136 40.6455 238.141C40.6545 238.146 40.6624 238.152 40.6688 238.16C40.6752 238.168 40.6799 238.177 40.6828 238.187L41.0686 239.478C41.1577 239.773 41.1785 240.085 41.1295 240.39C41.0804 240.694 40.9628 240.984 40.7854 241.236L40.0357 242.306C40.0277 242.318 40.0164 242.328 40.0032 242.334C39.99 242.34 39.9754 242.342 39.961 242.34Z" fill="#F8DB4A"/>
<path d="M29.5949 240.365C29.7567 240.94 29.4362 241.407 28.8793 241.407C28.5826 241.386 28.2994 241.275 28.0675 241.089C27.8356 240.903 27.6662 240.65 27.582 240.365C27.4202 239.789 27.7407 239.323 28.2975 239.323C28.5942 239.343 28.8775 239.454 29.1094 239.641C29.3412 239.827 29.5106 240.08 29.5949 240.365Z" fill="#F8DB4A"/>
<path d="M30.4161 243.311C30.5779 243.887 30.2574 244.353 29.7005 244.353C29.4033 244.333 29.1194 244.222 28.8869 244.036C28.6544 243.85 28.4845 243.597 28.4001 243.311C28.2383 242.735 28.5588 242.269 29.1157 242.269C29.4129 242.289 29.6968 242.4 29.9293 242.586C30.1618 242.772 30.3317 243.025 30.4161 243.311Z" fill="#F8DB4A"/>
<path d="M33.1259 240.365C33.2877 240.94 32.9672 241.407 32.4103 241.407C32.1136 241.386 31.8304 241.275 31.5985 241.089C31.3666 240.903 31.1972 240.65 31.113 240.365C30.9512 239.789 31.2717 239.323 31.8285 239.323C32.1252 239.343 32.4085 239.454 32.6404 239.641C32.8722 239.827 33.0416 240.08 33.1259 240.365Z" fill="#F8DB4A"/>
<path d="M33.9472 243.311C34.1089 243.887 33.7885 244.353 33.2316 244.353C32.9349 244.332 32.6517 244.221 32.4198 244.035C32.1879 243.849 32.0185 243.596 31.9343 243.311C31.7725 242.735 32.0929 242.269 32.6498 242.269C32.9465 242.29 33.2298 242.401 33.4617 242.587C33.6935 242.773 33.8629 243.026 33.9472 243.311Z" fill="#F8DB4A"/>
<path d="M32.5035 233.377C32.3404 233.603 32.127 233.788 31.8803 233.917C31.6335 234.046 31.3601 234.116 31.0817 234.121C30.5372 234.121 30.2946 233.788 30.5341 233.377C30.6972 233.152 30.9106 232.967 31.1573 232.838C31.4041 232.709 31.6775 232.639 31.9559 232.634C32.5003 232.634 32.7555 232.967 32.5035 233.377Z" fill="#F8DB4A"/>
<path d="M37.3198 236.859C37.3892 237.059 37.4162 237.271 37.3991 237.482C37.3819 237.693 37.321 237.898 37.2202 238.085C37.0273 238.337 36.7598 238.197 36.6229 237.773C36.5534 237.573 36.5264 237.361 36.5436 237.15C36.5607 236.939 36.6216 236.734 36.7224 236.548C36.9153 236.293 37.1829 236.433 37.3198 236.859Z" fill="#F8DB4A"/>
<path d="M38.0167 239.027C38.0862 239.227 38.1132 239.439 38.0961 239.651C38.0789 239.862 38.018 240.067 37.9172 240.253C37.7243 240.505 37.4567 240.365 37.3198 239.942C37.2504 239.741 37.2237 239.528 37.2414 239.317C37.259 239.105 37.3207 238.899 37.4225 238.713C37.6154 238.461 37.8829 238.601 38.0167 239.027Z" fill="#F8DB4A"/>
<path d="M38.8847 234.812C38.9542 235.012 38.9812 235.224 38.964 235.435C38.9469 235.646 38.886 235.851 38.7852 236.037C38.5923 236.289 38.3247 236.149 38.1878 235.726C38.1184 235.526 38.0914 235.314 38.1085 235.103C38.1257 234.892 38.1866 234.687 38.2874 234.501C38.4834 234.245 38.7478 234.389 38.8847 234.812Z" fill="#F8DB4A"/>
<path d="M39.5844 236.98C39.6538 237.18 39.6809 237.392 39.6637 237.603C39.6466 237.814 39.5857 238.02 39.4848 238.206C39.2919 238.458 39.0244 238.318 38.8875 237.895C38.8162 237.695 38.7874 237.482 38.8029 237.271C38.8185 237.059 38.878 236.853 38.9777 236.666C39.1799 236.414 39.4475 236.557 39.5844 236.98Z" fill="#F8DB4A"/>
<path d="M38.7165 241.199C38.7859 241.399 38.813 241.611 38.7958 241.822C38.7787 242.033 38.7178 242.238 38.6169 242.424C38.4241 242.676 38.1565 242.536 38.0196 242.113C37.9502 241.913 37.9232 241.701 37.9403 241.49C37.9574 241.279 38.0184 241.074 38.1192 240.888C38.3121 240.636 38.5796 240.776 38.7165 241.199Z" fill="#F8DB4A"/>
<path d="M40.2812 239.155C40.3506 239.355 40.3777 239.567 40.3605 239.778C40.3434 239.989 40.2825 240.194 40.1816 240.38C39.9888 240.632 39.7212 240.492 39.5843 240.069C39.5149 239.869 39.4879 239.657 39.505 239.446C39.5221 239.235 39.5831 239.03 39.6839 238.844C39.8799 238.588 40.1443 238.728 40.2812 239.155Z" fill="#F8DB4A"/>
</g>
<path d="M0 289C0 285.686 2.68629 283 6 283H316C319.314 283 322 285.686 322 289V337C322 340.314 319.314 343 316 343H6C2.68629 343 0 340.314 0 337V289Z" fill="#AAAAB9" fill-opacity="0.02"/>
<path d="M65.625 309.42C65.5644 308.883 65.3144 308.466 64.875 308.17C64.4356 307.871 63.8826 307.722 63.2159 307.722C62.7386 307.722 62.3258 307.797 61.9773 307.949C61.6288 308.097 61.358 308.301 61.1648 308.562C60.9754 308.82 60.8807 309.114 60.8807 309.443C60.8807 309.72 60.9451 309.958 61.0739 310.159C61.2064 310.36 61.3788 310.528 61.5909 310.665C61.8068 310.797 62.0379 310.909 62.2841 311C62.5303 311.087 62.767 311.159 62.9943 311.216L64.1307 311.511C64.5019 311.602 64.8826 311.725 65.2727 311.881C65.6629 312.036 66.0246 312.241 66.358 312.494C66.6913 312.748 66.9602 313.062 67.1648 313.438C67.3731 313.812 67.4773 314.261 67.4773 314.784C67.4773 315.443 67.3068 316.028 66.9659 316.54C66.6288 317.051 66.1383 317.455 65.4943 317.75C64.8542 318.045 64.0795 318.193 63.1705 318.193C62.2992 318.193 61.5455 318.055 60.9091 317.778C60.2727 317.502 59.7746 317.11 59.4148 316.602C59.0549 316.091 58.8561 315.485 58.8182 314.784H60.5795C60.6136 315.205 60.75 315.555 60.9886 315.835C61.2311 316.112 61.5398 316.318 61.9148 316.455C62.2936 316.587 62.7083 316.653 63.1591 316.653C63.6553 316.653 64.0966 316.576 64.483 316.42C64.8731 316.261 65.1799 316.042 65.4034 315.761C65.6269 315.477 65.7386 315.146 65.7386 314.767C65.7386 314.422 65.6402 314.14 65.4432 313.92C65.25 313.701 64.9867 313.519 64.6534 313.375C64.3239 313.231 63.9508 313.104 63.5341 312.994L62.1591 312.619C61.2273 312.366 60.4886 311.992 59.9432 311.5C59.4015 311.008 59.1307 310.356 59.1307 309.545C59.1307 308.875 59.3125 308.29 59.6761 307.79C60.0398 307.29 60.5322 306.902 61.1534 306.625C61.7746 306.345 62.4754 306.205 63.2557 306.205C64.0436 306.205 64.7386 306.343 65.3409 306.619C65.947 306.896 66.4242 307.277 66.7727 307.761C67.1212 308.242 67.303 308.795 67.3182 309.42H65.625ZM73.1151 318.176C72.2969 318.176 71.5829 317.989 70.973 317.614C70.3632 317.239 69.8897 316.714 69.5526 316.04C69.2154 315.366 69.0469 314.578 69.0469 313.676C69.0469 312.771 69.2154 311.979 69.5526 311.301C69.8897 310.623 70.3632 310.097 70.973 309.722C71.5829 309.347 72.2969 309.159 73.1151 309.159C73.9332 309.159 74.6473 309.347 75.2571 309.722C75.867 310.097 76.3404 310.623 76.6776 311.301C77.0147 311.979 77.1832 312.771 77.1832 313.676C77.1832 314.578 77.0147 315.366 76.6776 316.04C76.3404 316.714 75.867 317.239 75.2571 317.614C74.6473 317.989 73.9332 318.176 73.1151 318.176ZM73.1207 316.75C73.651 316.75 74.0904 316.61 74.4389 316.33C74.7874 316.049 75.045 315.676 75.2116 315.21C75.3821 314.744 75.4673 314.231 75.4673 313.67C75.4673 313.114 75.3821 312.602 75.2116 312.136C75.045 311.667 74.7874 311.29 74.4389 311.006C74.0904 310.722 73.651 310.58 73.1207 310.58C72.5866 310.58 72.1435 310.722 71.7912 311.006C71.4427 311.29 71.1832 311.667 71.0128 312.136C70.8461 312.602 70.7628 313.114 70.7628 313.67C70.7628 314.231 70.8461 314.744 71.0128 315.21C71.1832 315.676 71.4427 316.049 71.7912 316.33C72.1435 316.61 72.5866 316.75 73.1207 316.75ZM84.608 314.381V309.273H86.3125V318H84.642V316.489H84.5511C84.3504 316.955 84.0284 317.343 83.5852 317.653C83.1458 317.96 82.5985 318.114 81.9432 318.114C81.3826 318.114 80.8864 317.991 80.4545 317.744C80.0265 317.494 79.6894 317.125 79.4432 316.636C79.2008 316.148 79.0795 315.544 79.0795 314.824V309.273H80.7784V314.619C80.7784 315.214 80.9432 315.687 81.2727 316.04C81.6023 316.392 82.0303 316.568 82.5568 316.568C82.875 316.568 83.1913 316.489 83.5057 316.33C83.8239 316.17 84.0871 315.93 84.2955 315.608C84.5076 315.286 84.6117 314.877 84.608 314.381ZM90.294 312.818V318H88.5952V309.273H90.2259V310.693H90.3338C90.5346 310.231 90.849 309.86 91.277 309.58C91.7088 309.299 92.2524 309.159 92.9077 309.159C93.5024 309.159 94.0232 309.284 94.4702 309.534C94.9171 309.78 95.2637 310.148 95.5099 310.636C95.7562 311.125 95.8793 311.729 95.8793 312.449V318H94.1804V312.653C94.1804 312.021 94.0156 311.527 93.6861 311.17C93.3565 310.811 92.9039 310.631 92.3281 310.631C91.9342 310.631 91.5838 310.716 91.277 310.886C90.974 311.057 90.7334 311.307 90.5554 311.636C90.3812 311.962 90.294 312.356 90.294 312.818ZM101.425 318.17C100.72 318.17 100.091 317.991 99.5384 317.631C98.9891 317.267 98.5573 316.75 98.2429 316.08C97.9323 315.405 97.777 314.597 97.777 313.653C97.777 312.71 97.9342 311.903 98.2486 311.233C98.5668 310.562 99.0024 310.049 99.5554 309.693C100.108 309.337 100.735 309.159 101.436 309.159C101.978 309.159 102.413 309.25 102.743 309.432C103.076 309.61 103.334 309.818 103.516 310.057C103.701 310.295 103.845 310.506 103.947 310.688H104.05V306.364H105.749V318H104.089V316.642H103.947C103.845 316.828 103.697 317.04 103.504 317.278C103.315 317.517 103.054 317.725 102.72 317.903C102.387 318.081 101.955 318.17 101.425 318.17ZM101.8 316.722C102.288 316.722 102.701 316.593 103.038 316.335C103.379 316.074 103.637 315.712 103.811 315.25C103.989 314.788 104.078 314.25 104.078 313.636C104.078 313.03 103.991 312.5 103.817 312.045C103.643 311.591 103.387 311.237 103.05 310.983C102.713 310.729 102.296 310.602 101.8 310.602C101.288 310.602 100.862 310.735 100.521 311C100.18 311.265 99.9228 311.627 99.7486 312.085C99.5781 312.544 99.4929 313.061 99.4929 313.636C99.4929 314.22 99.58 314.744 99.7543 315.21C99.9285 315.676 100.186 316.045 100.527 316.318C100.872 316.587 101.296 316.722 101.8 316.722ZM116.311 318H112.544V306.364H116.43C117.571 306.364 118.55 306.597 119.368 307.062C120.186 307.525 120.813 308.189 121.249 309.057C121.688 309.92 121.908 310.956 121.908 312.165C121.908 313.377 121.686 314.419 121.243 315.29C120.804 316.161 120.167 316.831 119.334 317.301C118.5 317.767 117.493 318 116.311 318ZM114.3 316.466H116.214C117.101 316.466 117.838 316.299 118.425 315.966C119.012 315.629 119.451 315.142 119.743 314.506C120.035 313.866 120.18 313.085 120.18 312.165C120.18 311.252 120.035 310.477 119.743 309.841C119.455 309.205 119.025 308.722 118.453 308.392C117.881 308.062 117.171 307.898 116.322 307.898H114.3V316.466ZM127.716 318.176C126.856 318.176 126.116 317.992 125.494 317.625C124.877 317.254 124.4 316.733 124.062 316.062C123.729 315.388 123.562 314.598 123.562 313.693C123.562 312.799 123.729 312.011 124.062 311.33C124.4 310.648 124.869 310.116 125.472 309.733C126.078 309.35 126.786 309.159 127.597 309.159C128.089 309.159 128.566 309.241 129.028 309.403C129.491 309.566 129.905 309.822 130.273 310.17C130.64 310.519 130.93 310.972 131.142 311.528C131.354 312.081 131.46 312.754 131.46 313.545V314.148H124.523V312.875H129.795C129.795 312.428 129.705 312.032 129.523 311.688C129.341 311.339 129.085 311.064 128.756 310.864C128.43 310.663 128.047 310.562 127.608 310.562C127.131 310.562 126.714 310.68 126.358 310.915C126.006 311.146 125.733 311.449 125.54 311.824C125.35 312.195 125.256 312.598 125.256 313.034V314.028C125.256 314.612 125.358 315.108 125.562 315.517C125.771 315.926 126.061 316.239 126.432 316.455C126.803 316.667 127.237 316.773 127.733 316.773C128.055 316.773 128.348 316.727 128.614 316.636C128.879 316.542 129.108 316.402 129.301 316.216C129.494 316.03 129.642 315.801 129.744 315.528L131.352 315.818C131.223 316.292 130.992 316.706 130.659 317.062C130.33 317.415 129.915 317.689 129.415 317.886C128.919 318.08 128.352 318.176 127.716 318.176ZM137.021 318.176C136.177 318.176 135.449 317.985 134.839 317.602C134.233 317.216 133.768 316.684 133.442 316.006C133.116 315.328 132.953 314.551 132.953 313.676C132.953 312.79 133.12 312.008 133.453 311.33C133.786 310.648 134.256 310.116 134.862 309.733C135.468 309.35 136.182 309.159 137.004 309.159C137.667 309.159 138.258 309.282 138.777 309.528C139.296 309.771 139.714 310.112 140.033 310.551C140.355 310.991 140.546 311.504 140.607 312.091H138.953C138.862 311.682 138.654 311.33 138.328 311.034C138.006 310.739 137.574 310.591 137.033 310.591C136.559 310.591 136.144 310.716 135.788 310.966C135.436 311.212 135.161 311.564 134.964 312.023C134.768 312.477 134.669 313.015 134.669 313.636C134.669 314.273 134.766 314.822 134.959 315.284C135.152 315.746 135.425 316.104 135.777 316.358C136.133 316.612 136.552 316.739 137.033 316.739C137.355 316.739 137.646 316.68 137.908 316.562C138.173 316.441 138.394 316.269 138.572 316.045C138.754 315.822 138.881 315.553 138.953 315.239H140.607C140.546 315.803 140.362 316.307 140.055 316.75C139.749 317.193 139.338 317.542 138.822 317.795C138.311 318.049 137.711 318.176 137.021 318.176ZM142.423 318V309.273H144.122V318H142.423ZM143.281 307.926C142.986 307.926 142.732 307.828 142.52 307.631C142.312 307.43 142.207 307.191 142.207 306.915C142.207 306.634 142.312 306.396 142.52 306.199C142.732 305.998 142.986 305.898 143.281 305.898C143.577 305.898 143.829 305.998 144.037 306.199C144.249 306.396 144.355 306.634 144.355 306.915C144.355 307.191 144.249 307.43 144.037 307.631C143.829 307.828 143.577 307.926 143.281 307.926ZM152.947 311.403L151.408 311.676C151.343 311.479 151.241 311.292 151.101 311.114C150.964 310.936 150.779 310.79 150.544 310.676C150.309 310.562 150.016 310.506 149.663 310.506C149.182 310.506 148.781 310.614 148.459 310.83C148.137 311.042 147.976 311.316 147.976 311.653C147.976 311.945 148.084 312.18 148.3 312.358C148.516 312.536 148.864 312.682 149.345 312.795L150.732 313.114C151.535 313.299 152.133 313.585 152.527 313.972C152.921 314.358 153.118 314.86 153.118 315.477C153.118 316 152.966 316.466 152.663 316.875C152.364 317.28 151.946 317.598 151.408 317.83C150.874 318.061 150.254 318.176 149.55 318.176C148.572 318.176 147.775 317.968 147.158 317.551C146.54 317.131 146.161 316.534 146.021 315.761L147.663 315.511C147.766 315.939 147.976 316.263 148.294 316.483C148.612 316.699 149.027 316.807 149.538 316.807C150.095 316.807 150.54 316.691 150.874 316.46C151.207 316.225 151.374 315.939 151.374 315.602C151.374 315.33 151.271 315.1 151.067 314.915C150.866 314.729 150.557 314.589 150.141 314.494L148.663 314.17C147.849 313.985 147.247 313.689 146.857 313.284C146.47 312.879 146.277 312.366 146.277 311.744C146.277 311.229 146.421 310.778 146.709 310.392C146.997 310.006 147.394 309.705 147.902 309.489C148.41 309.269 148.991 309.159 149.646 309.159C150.589 309.159 151.332 309.364 151.874 309.773C152.415 310.178 152.773 310.722 152.947 311.403ZM154.986 318V309.273H156.685V318H154.986ZM155.844 307.926C155.548 307.926 155.295 307.828 155.082 307.631C154.874 307.43 154.77 307.191 154.77 306.915C154.77 306.634 154.874 306.396 155.082 306.199C155.295 305.998 155.548 305.898 155.844 305.898C156.139 305.898 156.391 305.998 156.599 306.199C156.812 306.396 156.918 306.634 156.918 306.915C156.918 307.191 156.812 307.43 156.599 307.631C156.391 307.828 156.139 307.926 155.844 307.926ZM162.646 318.176C161.828 318.176 161.114 317.989 160.504 317.614C159.894 317.239 159.421 316.714 159.084 316.04C158.747 315.366 158.578 314.578 158.578 313.676C158.578 312.771 158.747 311.979 159.084 311.301C159.421 310.623 159.894 310.097 160.504 309.722C161.114 309.347 161.828 309.159 162.646 309.159C163.464 309.159 164.179 309.347 164.788 309.722C165.398 310.097 165.872 310.623 166.209 311.301C166.546 311.979 166.714 312.771 166.714 313.676C166.714 314.578 166.546 315.366 166.209 316.04C165.872 316.714 165.398 317.239 164.788 317.614C164.179 317.989 163.464 318.176 162.646 318.176ZM162.652 316.75C163.182 316.75 163.622 316.61 163.97 316.33C164.319 316.049 164.576 315.676 164.743 315.21C164.913 314.744 164.999 314.231 164.999 313.67C164.999 313.114 164.913 312.602 164.743 312.136C164.576 311.667 164.319 311.29 163.97 311.006C163.622 310.722 163.182 310.58 162.652 310.58C162.118 310.58 161.675 310.722 161.322 311.006C160.974 311.29 160.714 311.667 160.544 312.136C160.377 312.602 160.294 313.114 160.294 313.67C160.294 314.231 160.377 314.744 160.544 315.21C160.714 315.676 160.974 316.049 161.322 316.33C161.675 316.61 162.118 316.75 162.652 316.75ZM170.31 312.818V318H168.611V309.273H170.241V310.693H170.349C170.55 310.231 170.865 309.86 171.293 309.58C171.724 309.299 172.268 309.159 172.923 309.159C173.518 309.159 174.039 309.284 174.486 309.534C174.933 309.78 175.279 310.148 175.526 310.636C175.772 311.125 175.895 311.729 175.895 312.449V318H174.196V312.653C174.196 312.021 174.031 311.527 173.702 311.17C173.372 310.811 172.92 310.631 172.344 310.631C171.95 310.631 171.599 310.716 171.293 310.886C170.99 311.057 170.749 311.307 170.571 311.636C170.397 311.962 170.31 312.356 170.31 312.818ZM182.544 306.364H184.675L188.379 315.409H188.516L192.22 306.364H194.351V318H192.68V309.58H192.572L189.141 317.983H187.754L184.322 309.574H184.214V318H182.544V306.364ZM199.307 318.193C198.754 318.193 198.254 318.091 197.807 317.886C197.36 317.678 197.006 317.377 196.744 316.983C196.487 316.589 196.358 316.106 196.358 315.534C196.358 315.042 196.453 314.636 196.642 314.318C196.831 314 197.087 313.748 197.409 313.562C197.731 313.377 198.091 313.237 198.489 313.142C198.886 313.047 199.292 312.975 199.705 312.926C200.227 312.866 200.652 312.816 200.977 312.778C201.303 312.737 201.54 312.67 201.688 312.58C201.835 312.489 201.909 312.341 201.909 312.136V312.097C201.909 311.6 201.769 311.216 201.489 310.943C201.212 310.67 200.799 310.534 200.25 310.534C199.678 310.534 199.227 310.661 198.898 310.915C198.572 311.165 198.347 311.443 198.222 311.75L196.625 311.386C196.814 310.856 197.091 310.428 197.455 310.102C197.822 309.773 198.244 309.534 198.722 309.386C199.199 309.235 199.701 309.159 200.227 309.159C200.576 309.159 200.945 309.201 201.335 309.284C201.729 309.364 202.097 309.511 202.438 309.727C202.782 309.943 203.064 310.252 203.284 310.653C203.504 311.051 203.614 311.568 203.614 312.205V318H201.955V316.807H201.886C201.777 317.027 201.612 317.242 201.392 317.455C201.172 317.667 200.89 317.843 200.545 317.983C200.201 318.123 199.788 318.193 199.307 318.193ZM199.676 316.83C200.146 316.83 200.547 316.737 200.881 316.551C201.218 316.366 201.473 316.123 201.648 315.824C201.826 315.521 201.915 315.197 201.915 314.852V313.727C201.854 313.788 201.737 313.845 201.562 313.898C201.392 313.947 201.197 313.991 200.977 314.028C200.758 314.062 200.544 314.095 200.335 314.125C200.127 314.152 199.953 314.174 199.812 314.193C199.483 314.235 199.182 314.305 198.909 314.403C198.64 314.502 198.424 314.644 198.261 314.83C198.102 315.011 198.023 315.254 198.023 315.557C198.023 315.977 198.178 316.295 198.489 316.511C198.799 316.723 199.195 316.83 199.676 316.83ZM207.439 315.04L207.428 312.966H207.723L211.2 309.273H213.234L209.268 313.477H209.001L207.439 315.04ZM205.876 318V306.364H207.575V318H205.876ZM211.388 318L208.263 313.852L209.433 312.665L213.473 318H211.388ZM218.185 318.176C217.325 318.176 216.584 317.992 215.963 317.625C215.346 317.254 214.868 316.733 214.531 316.062C214.198 315.388 214.031 314.598 214.031 313.693C214.031 312.799 214.198 312.011 214.531 311.33C214.868 310.648 215.338 310.116 215.94 309.733C216.546 309.35 217.255 309.159 218.065 309.159C218.558 309.159 219.035 309.241 219.497 309.403C219.959 309.566 220.374 309.822 220.741 310.17C221.109 310.519 221.399 310.972 221.611 311.528C221.823 312.081 221.929 312.754 221.929 313.545V314.148H214.991V312.875H220.264C220.264 312.428 220.173 312.032 219.991 311.688C219.81 311.339 219.554 311.064 219.224 310.864C218.899 310.663 218.516 310.562 218.077 310.562C217.599 310.562 217.183 310.68 216.827 310.915C216.474 311.146 216.202 311.449 216.009 311.824C215.819 312.195 215.724 312.598 215.724 313.034V314.028C215.724 314.612 215.827 315.108 216.031 315.517C216.24 315.926 216.529 316.239 216.901 316.455C217.272 316.667 217.705 316.773 218.202 316.773C218.524 316.773 218.817 316.727 219.082 316.636C219.348 316.542 219.577 316.402 219.77 316.216C219.963 316.03 220.111 315.801 220.213 315.528L221.821 315.818C221.692 316.292 221.461 316.706 221.128 317.062C220.798 317.415 220.384 317.689 219.884 317.886C219.387 318.08 218.821 318.176 218.185 318.176ZM223.814 318V309.273H225.456V310.659H225.547C225.706 310.189 225.986 309.82 226.388 309.551C226.793 309.278 227.251 309.142 227.763 309.142C227.869 309.142 227.994 309.146 228.138 309.153C228.286 309.161 228.401 309.17 228.484 309.182V310.807C228.416 310.788 228.295 310.767 228.121 310.744C227.946 310.718 227.772 310.705 227.598 310.705C227.196 310.705 226.839 310.79 226.524 310.96C226.214 311.127 225.967 311.36 225.786 311.659C225.604 311.955 225.513 312.292 225.513 312.67V318H223.814Z" fill="#AAAAB9" fill-opacity="0.2"/>
<g opacity="0.5" clip-path="url(#clip1_6_5899)">
<path opacity="0.1" d="M34 324.2C40.1856 324.2 45.2 319.186 45.2 313C45.2 306.814 40.1856 301.8 34 301.8C27.8145 301.8 22.8 306.814 22.8 313C22.8 319.186 27.8145 324.2 34 324.2Z" fill="#F8DB4A"/>
<g style="mix-blend-mode:multiply" opacity="0.44">
<g style="mix-blend-mode:multiply" opacity="0.6">
<g style="mix-blend-mode:multiply" opacity="0.6">
<path d="M39.0027 316.488C39.1085 316.372 39.2081 316.251 39.3138 316.127C39.71 315.596 40.1866 315.13 40.7263 314.745C41.0134 314.486 41.2497 314.176 41.4232 313.831C41.5168 313.669 41.6296 313.52 41.7592 313.386C42.0186 313.745 42.2515 314.122 42.4561 314.515C42.6209 314.826 43.3894 315.993 42.8263 316.285L41.6005 316.932C41.0374 317.203 41.2147 317.701 41.2521 318.388C41.2832 318.955 41.6565 321.702 41.2738 322.274C40.6921 323.208 37.7676 322.725 37.1174 323.148C36.4672 323.572 36.6663 324.832 36.7347 325.637C36.7845 326.219 36.3521 326.4 35.6303 326.4H29.1965C29.2369 325.323 29.8187 323.621 29.6414 322.56C29.4174 321.291 28.7485 320.184 28.1107 319.104C27.7156 318.432 27.3081 317.763 26.9658 317.057C26.8352 316.786 26.3032 315.999 26.5334 315.679C26.8103 315.293 27.4201 315.99 27.6627 316.189C28.0539 316.565 28.4896 316.892 28.9601 317.163C30.1247 317.808 31.3851 318.263 32.6934 318.51C33.4022 318.568 34.1155 318.483 34.7903 318.258C35.7236 318.006 36.6725 317.754 37.5903 317.477C38.1424 317.284 38.6295 316.94 38.9965 316.484" fill="#F8DB4A"/>
</g>
</g>
</g>
<g style="mix-blend-mode:multiply" opacity="0.91">
<g style="mix-blend-mode:multiply" opacity="0.6">
<g style="mix-blend-mode:multiply" opacity="0.6">
<path d="M40.9191 307.879C40.8642 307.879 40.811 307.86 40.7688 307.825C40.7267 307.79 40.6984 307.74 40.6889 307.686C40.4105 306.135 39.6658 304.706 38.554 303.589C37.4423 302.473 36.0164 301.721 34.4667 301.436C34.4364 301.431 34.4076 301.419 34.3818 301.403C34.3559 301.386 34.3337 301.364 34.3162 301.339C34.2987 301.314 34.2864 301.285 34.2799 301.255C34.2734 301.225 34.2729 301.194 34.2784 301.164C34.284 301.134 34.2954 301.105 34.312 301.079C34.3287 301.053 34.3503 301.031 34.3756 301.013C34.4009 300.996 34.4293 300.984 34.4594 300.977C34.4894 300.971 34.5204 300.97 34.5507 300.976C36.1943 301.279 37.7065 302.075 38.8855 303.26C40.0645 304.445 40.8543 305.96 41.1493 307.605C41.1547 307.636 41.1541 307.667 41.1474 307.697C41.1408 307.727 41.1283 307.755 41.1107 307.78C41.093 307.805 41.0706 307.827 41.0447 307.843C41.0187 307.86 40.9898 307.871 40.9596 307.876L40.9191 307.879Z" fill="#F8DB4A"/>
</g>
</g>
</g>
<g style="mix-blend-mode:multiply" opacity="0.91">
<g style="mix-blend-mode:multiply" opacity="0.6">
<g style="mix-blend-mode:multiply" opacity="0.6">
<path d="M27.2768 314.724C27.2447 314.724 27.2129 314.717 27.1835 314.704C27.154 314.691 27.1275 314.673 27.1057 314.649C26.0978 313.575 25.3978 312.25 25.0792 310.812C24.7605 309.374 24.8351 307.877 25.2951 306.478C25.7551 305.079 26.5835 303.83 27.6931 302.862C28.8028 301.893 30.1528 301.242 31.6013 300.976C31.6315 300.97 31.6625 300.971 31.6926 300.977C31.7226 300.984 31.7511 300.996 31.7764 301.013C31.8016 301.031 31.8232 301.053 31.8399 301.079C31.8566 301.105 31.868 301.134 31.8735 301.164C31.879 301.194 31.8785 301.225 31.872 301.255C31.8656 301.285 31.8532 301.314 31.8357 301.339C31.8183 301.364 31.796 301.386 31.7702 301.403C31.7443 301.419 31.7155 301.431 31.6853 301.436C30.3191 301.686 29.0456 302.3 27.9988 303.213C26.9519 304.126 26.1704 305.304 25.7365 306.623C25.3025 307.942 25.2322 309.354 25.5328 310.71C25.8334 312.066 26.4939 313.316 27.4448 314.329C27.4757 314.362 27.4962 314.403 27.5038 314.448C27.5114 314.493 27.5058 314.539 27.4876 314.581C27.4694 314.622 27.4395 314.658 27.4015 314.682C27.3635 314.707 27.3191 314.721 27.2737 314.721L27.2768 314.724Z" fill="#F8DB4A"/>
</g>
</g>
</g>
<g style="mix-blend-mode:multiply" opacity="0.91">
<g style="mix-blend-mode:multiply" opacity="0.6">
<g style="mix-blend-mode:multiply" opacity="0.6">
<path d="M33.0791 317.234C31.4802 317.237 29.916 316.769 28.5804 315.89C28.5272 315.856 28.4896 315.803 28.4759 315.741C28.4622 315.68 28.4735 315.615 28.5073 315.562C28.5412 315.509 28.5947 315.471 28.6563 315.457C28.7178 315.444 28.7823 315.455 28.8356 315.489C29.8954 316.183 31.1097 316.606 32.3715 316.721C33.6333 316.836 34.9039 316.638 36.0716 316.147C37.2393 315.655 38.2683 314.884 39.068 313.901C39.8677 312.919 40.4136 311.754 40.6578 310.511C40.6728 310.454 40.709 310.405 40.759 310.373C40.8089 310.342 40.869 310.33 40.9271 310.341C40.9851 310.352 41.0368 310.385 41.0717 310.433C41.1066 310.48 41.1221 310.54 41.1151 310.598C40.7524 312.464 39.7526 314.146 38.2868 315.357C36.8209 316.567 34.9801 317.231 33.0791 317.234Z" fill="#F8DB4A"/>
</g>
</g>
</g>
<path d="M29.2431 321.198C29.1705 321.198 29.0993 321.177 29.0381 321.138C28.9769 321.099 28.9282 321.043 28.8978 320.977C28.6669 320.481 28.3674 320.02 28.008 319.608C27.1116 318.489 26.4655 317.19 26.1134 315.8C26.0974 315.751 26.0918 315.699 26.0967 315.647C26.1017 315.595 26.1172 315.545 26.1423 315.5C26.1674 315.454 26.2015 315.415 26.2426 315.383C26.2836 315.351 26.3307 315.328 26.381 315.315C26.4313 315.303 26.4836 315.3 26.5348 315.309C26.5861 315.317 26.6351 315.335 26.6788 315.363C26.7225 315.391 26.76 315.428 26.7891 315.471C26.8181 315.514 26.838 315.562 26.8476 315.613C27.1704 316.9 27.7655 318.102 28.5929 319.138C28.9938 319.601 29.3278 320.117 29.5854 320.672C29.6119 320.73 29.6235 320.793 29.6193 320.856C29.615 320.92 29.5949 320.981 29.5608 321.034C29.5268 321.088 29.4799 321.132 29.4244 321.163C29.3689 321.193 29.3066 321.21 29.2431 321.21V321.198Z" fill="#F8DB4A"/>
<path d="M29.3894 326.337C29.3245 326.337 29.2607 326.321 29.2041 326.289C29.1475 326.258 29.0999 326.212 29.0659 326.157C29.0319 326.101 29.0126 326.038 29.0099 325.974C29.0071 325.909 29.021 325.844 29.0503 325.787C29.4778 324.605 29.5598 323.326 29.2867 322.1C29.2634 322.049 29.2517 321.993 29.2526 321.936C29.2535 321.88 29.267 321.825 29.292 321.774C29.317 321.724 29.353 321.679 29.3972 321.644C29.4415 321.61 29.493 321.585 29.5479 321.572C29.6029 321.56 29.66 321.56 29.715 321.572C29.7699 321.584 29.8215 321.609 29.8659 321.644C29.9103 321.678 29.9464 321.722 29.9716 321.773C29.9968 321.823 30.0105 321.879 30.0116 321.935C30.3175 323.334 30.2093 324.793 29.7005 326.132C29.6707 326.19 29.6264 326.239 29.5719 326.275C29.5174 326.311 29.4545 326.333 29.3894 326.337Z" fill="#F8DB4A"/>
<path d="M37.8297 326.337C37.7347 326.337 37.6434 326.301 37.5737 326.236C37.504 326.172 37.461 326.084 37.4532 325.989C37.4532 325.902 37.4346 325.799 37.4221 325.678C37.3257 324.816 37.1639 323.372 38.0443 322.819C38.4021 322.604 38.9995 322.573 39.9452 322.536C40.8381 322.501 42.1883 322.448 42.4621 322.047C42.6332 321.808 42.6177 320.759 42.4217 318.936C42.3968 318.703 42.3781 318.519 42.3688 318.41C42.3595 318.301 42.3501 318.18 42.3408 318.077C42.2879 317.561 42.2226 316.917 42.963 316.584L43.8092 316.17L44.2386 315.962C44.2624 315.934 44.2756 315.899 44.2756 315.862C44.2756 315.826 44.2624 315.79 44.2386 315.763L44.2106 315.722L42.5648 312.966C42.1693 312.407 41.9772 311.73 42.0203 311.046C42.039 309.917 41.9768 308.246 41.9768 308.246C41.9718 308.141 42.0087 308.039 42.0793 307.961C42.1499 307.884 42.2484 307.837 42.3532 307.832C42.458 307.828 42.5605 307.864 42.6381 307.935C42.7157 308.006 42.7621 308.104 42.767 308.209C42.767 308.224 42.8292 309.914 42.8106 311.09C42.7757 311.62 42.9288 312.145 43.243 312.574L44.8826 315.321C45.0234 315.514 45.0831 315.754 45.0487 315.99C45.0144 316.226 44.8889 316.439 44.699 316.584L44.6368 316.621L44.1639 316.852L43.2959 317.278C43.0595 317.384 43.0377 317.458 43.0937 318.006C43.0937 318.121 43.1186 318.242 43.1248 318.37C43.131 318.497 43.1497 318.64 43.1746 318.861C43.3892 320.778 43.4328 322.022 43.0781 322.495C42.5959 323.204 41.2612 323.254 39.967 323.304C39.3728 323.326 38.6355 323.354 38.4332 323.475C37.9603 323.786 38.0941 324.962 38.1657 325.603C38.1657 325.724 38.1906 325.833 38.1999 325.914C38.2085 326.014 38.177 326.114 38.1122 326.191C38.0475 326.268 37.9548 326.316 37.8546 326.325L37.8297 326.337Z" fill="#F8DB4A"/>
<path d="M38.5546 316.998C38.4752 316.997 38.3981 316.971 38.3343 316.923C38.2704 316.876 38.2229 316.81 38.1985 316.735C38.1741 316.659 38.1741 316.578 38.1983 316.502C38.2226 316.427 38.2699 316.361 38.3337 316.313C40.2082 314.959 41.4878 312.934 41.9057 310.659C42.3236 308.385 41.8475 306.037 40.5768 304.105C40.5396 304.023 40.5327 303.931 40.5572 303.844C40.5819 303.758 40.6364 303.683 40.7111 303.633C40.7858 303.583 40.8759 303.561 40.9653 303.571C41.0546 303.581 41.1375 303.623 41.199 303.688C42.5775 305.783 43.0942 308.329 42.6416 310.795C42.1889 313.261 40.8017 315.458 38.7693 316.926C38.7068 316.971 38.6318 316.996 38.5546 316.998Z" fill="#F8DB4A"/>
<path d="M40.2779 303.433C40.2187 303.436 40.1598 303.424 40.1058 303.4C40.0517 303.376 40.0042 303.339 39.9668 303.293C39.8517 303.15 39.8362 303.131 39.7117 302.982C39.6589 302.906 39.636 302.812 39.6474 302.72C39.6588 302.628 39.7037 302.543 39.7735 302.481C39.8433 302.42 39.9333 302.386 40.0263 302.387C40.1192 302.387 40.2088 302.422 40.2779 302.484C40.4148 302.634 40.4335 302.659 40.5642 302.814C40.6105 302.87 40.6399 302.938 40.6489 303.009C40.658 303.081 40.6462 303.154 40.6152 303.22C40.5841 303.285 40.535 303.34 40.4735 303.379C40.4121 303.417 40.341 303.437 40.2686 303.436L40.2779 303.433Z" fill="#F8DB4A"/>
<path d="M39.2578 302.4C39.1662 302.401 39.0777 302.367 39.0089 302.307C37.4212 300.909 35.3907 300.118 33.276 300.072C31.1613 300.026 29.0982 300.728 27.4511 302.055C27.3725 302.116 27.2732 302.143 27.1747 302.131C27.0761 302.12 26.986 302.07 26.9238 301.993C26.8615 301.915 26.832 301.817 26.8416 301.718C26.8512 301.619 26.8991 301.528 26.9751 301.464C28.7613 300.024 30.9988 299.262 33.2924 299.312C35.586 299.362 37.7881 300.222 39.5098 301.738C39.5669 301.789 39.6072 301.856 39.6255 301.93C39.6439 302.005 39.6392 302.083 39.6123 302.154C39.5854 302.226 39.5374 302.288 39.4747 302.332C39.412 302.376 39.3374 302.4 39.2609 302.4H39.2578Z" fill="#F8DB4A"/>
<path d="M24.2311 312.347C24.1511 312.347 24.0731 312.322 24.0083 312.275C23.9435 312.228 23.8951 312.162 23.8702 312.085C23.419 310.729 23.2731 309.289 23.4431 307.869C23.613 306.449 24.0946 305.084 24.8533 303.872C24.8807 303.83 24.9161 303.793 24.9576 303.765C24.9991 303.736 25.0458 303.716 25.095 303.706C25.1443 303.695 25.1951 303.694 25.2447 303.703C25.2942 303.712 25.3415 303.731 25.3838 303.759C25.426 303.786 25.4625 303.821 25.4911 303.863C25.5197 303.904 25.5399 303.951 25.5504 304C25.5609 304.05 25.5617 304.1 25.5526 304.15C25.5435 304.2 25.5247 304.247 25.4973 304.289C24.7994 305.405 24.3561 306.661 24.1991 307.968C24.0421 309.274 24.1752 310.6 24.5889 311.849C24.6076 311.906 24.6125 311.967 24.6032 312.026C24.5939 312.085 24.5707 312.141 24.5355 312.19C24.5003 312.239 24.454 312.278 24.4006 312.305C24.3471 312.333 24.288 312.347 24.228 312.347H24.2311Z" fill="#F8DB4A"/>
<path d="M33.0789 318.768C30.9424 318.777 28.8632 318.077 27.1678 316.777C27.132 316.749 27.1014 316.716 27.0775 316.677C26.1953 315.984 25.4414 315.142 24.85 314.189C24.8183 314.147 24.7956 314.098 24.7834 314.047C24.7713 313.996 24.7699 313.943 24.7795 313.891C24.789 313.839 24.8092 313.79 24.8388 313.746C24.8684 313.703 24.9067 313.666 24.9513 313.638C24.9959 313.61 25.0459 313.592 25.098 313.584C25.1501 313.576 25.2032 313.58 25.254 313.594C25.3047 313.608 25.352 313.632 25.3927 313.666C25.4335 313.699 25.4669 313.74 25.4909 313.787C26.2103 314.939 27.1841 315.911 28.3375 316.628C30.0689 317.708 32.1163 318.166 34.1429 317.928L36.2398 317.427C36.3339 317.404 36.4331 317.419 36.5172 317.467C36.6012 317.515 36.6637 317.593 36.6919 317.686C36.7202 317.778 36.7119 317.878 36.6689 317.965C36.6259 318.051 36.5514 318.118 36.4607 318.152C35.3791 318.557 34.2338 318.766 33.0789 318.768Z" fill="#F8DB4A"/>
<path d="M37.2169 304.289C37.1308 304.289 37.0473 304.259 36.9804 304.205C35.9302 303.361 34.6345 302.881 33.2881 302.837C31.9417 302.792 30.6172 303.186 29.5138 303.959C29.4313 304.017 29.3292 304.04 29.23 304.022C29.1308 304.005 29.0427 303.948 28.9849 303.866C28.9271 303.783 28.9045 303.681 28.922 303.582C28.9395 303.483 28.9957 303.395 29.0782 303.337C30.3168 302.469 31.8036 302.027 33.3151 302.077C34.8266 302.127 36.281 302.666 37.4596 303.614C37.521 303.663 37.5656 303.731 37.5869 303.807C37.6082 303.883 37.6053 303.964 37.5787 304.038C37.552 304.112 37.5028 304.176 37.4379 304.221C37.3731 304.266 37.2958 304.29 37.2169 304.289Z" fill="#F8DB4A"/>
<path d="M33.0788 316.018C31.8529 316.016 30.6491 315.692 29.5883 315.077C28.5276 314.463 27.6474 313.58 27.0363 312.517C26.4252 311.454 26.1046 310.249 26.1069 309.023C26.1092 307.797 26.4343 306.594 27.0495 305.533C27.1038 305.454 27.186 305.399 27.2797 305.378C27.3733 305.357 27.4714 305.372 27.5542 305.421C27.637 305.469 27.6983 305.547 27.7259 305.639C27.7535 305.731 27.7452 305.83 27.7028 305.916C27.1698 306.831 26.879 307.866 26.858 308.925C26.8369 309.983 27.0863 311.03 27.5825 311.965C28.0787 312.9 28.8054 313.693 29.6937 314.269C30.582 314.845 31.6025 315.185 32.6588 315.257C33.7151 315.328 34.7722 315.129 35.73 314.678C36.6878 314.227 37.5147 313.539 38.1324 312.679C38.7501 311.819 39.1381 310.816 39.2599 309.764C39.3816 308.712 39.233 307.647 38.8281 306.669C38.8051 306.622 38.792 306.571 38.7894 306.52C38.7869 306.468 38.795 306.416 38.8133 306.367C38.8316 306.319 38.8598 306.274 38.8959 306.237C38.9321 306.2 38.9755 306.17 39.0235 306.15C39.0716 306.13 39.1231 306.121 39.1751 306.121C39.2271 306.122 39.2783 306.134 39.3256 306.155C39.3729 306.177 39.4153 306.208 39.4501 306.246C39.485 306.285 39.5115 306.33 39.5281 306.38C39.9657 307.44 40.1352 308.591 40.0218 309.733C39.9085 310.874 39.5156 311.97 38.878 312.923C38.2405 313.877 37.3778 314.659 36.3664 315.199C35.3549 315.74 34.2258 316.023 33.0788 316.024V316.018Z" fill="#F8DB4A"/>
<path d="M38.2001 305.253C38.1435 305.254 38.0876 305.241 38.0364 305.217C37.9853 305.193 37.9402 305.157 37.9045 305.113C37.6271 304.77 37.3143 304.457 36.9712 304.18C36.8952 304.116 36.8473 304.025 36.8377 303.926C36.8281 303.827 36.8576 303.729 36.9199 303.652C36.9821 303.574 37.0722 303.524 37.1708 303.513C37.2693 303.501 37.3686 303.528 37.4472 303.589C37.8287 303.897 38.177 304.244 38.4863 304.625C38.5324 304.68 38.5618 304.748 38.571 304.82C38.5801 304.891 38.5686 304.964 38.5379 305.029C38.5073 305.094 38.4586 305.15 38.3977 305.188C38.3367 305.227 38.266 305.247 38.1939 305.247L38.2001 305.253Z" fill="#F8DB4A"/>
<path d="M33.0792 313.395C31.924 313.395 30.8162 312.936 29.9994 312.119C29.1825 311.303 28.7236 310.195 28.7236 309.04C28.7219 308.362 28.8796 307.694 29.1841 307.089C29.5462 306.366 30.1023 305.758 30.7902 305.334C31.4782 304.909 32.2707 304.684 33.0792 304.684C33.7953 304.684 34.5005 304.86 35.1321 305.198C35.7637 305.535 36.3025 306.023 36.7006 306.618C37.0987 307.214 37.3438 307.898 37.4144 308.611C37.4849 309.323 37.3786 310.042 37.105 310.704C37.0624 310.79 36.9885 310.857 36.8984 310.891C36.8083 310.925 36.7086 310.924 36.6196 310.887C36.5306 310.85 36.4589 310.781 36.4191 310.693C36.3792 310.606 36.3742 310.506 36.405 310.415C36.7083 309.678 36.7585 308.861 36.5477 308.092C36.3368 307.324 35.8767 306.647 35.2397 306.168C34.6027 305.689 33.8247 305.435 33.0277 305.445C32.2308 305.456 31.4599 305.731 30.8361 306.227C30.4289 306.555 30.096 306.965 29.8592 307.431C29.6084 307.93 29.4784 308.481 29.4796 309.04C29.4819 309.724 29.679 310.393 30.0479 310.969C30.4167 311.545 30.9419 312.004 31.5622 312.292C32.1824 312.58 32.8719 312.686 33.5499 312.596C34.2279 312.507 34.8665 312.226 35.3908 311.787C35.4296 311.754 35.4745 311.729 35.5229 311.713C35.5714 311.698 35.6224 311.692 35.6731 311.696C35.7238 311.7 35.7732 311.715 35.8184 311.738C35.8636 311.761 35.9039 311.793 35.9368 311.832C35.9696 311.871 35.9946 311.916 36.0101 311.964C36.0256 312.012 36.0315 312.064 36.0273 312.114C36.0231 312.165 36.009 312.214 35.9857 312.26C35.9624 312.305 35.9304 312.345 35.8916 312.378C35.1036 313.038 34.1074 313.399 33.0792 313.395Z" fill="#F8DB4A"/>
<path d="M33.0789 310.931C32.7684 310.931 32.4627 310.855 32.1888 310.709C31.9148 310.563 31.6809 310.352 31.5078 310.094C31.4717 310.054 31.4447 310.006 31.4285 309.955C31.4123 309.903 31.4074 309.849 31.414 309.795C31.4205 309.741 31.4385 309.69 31.4667 309.643C31.4948 309.597 31.5325 309.558 31.5773 309.527C31.622 309.497 31.6727 309.476 31.726 309.467C31.7793 309.458 31.8339 309.46 31.8863 309.474C31.9386 309.487 31.9874 309.512 32.0295 309.546C32.0715 309.58 32.1058 309.623 32.13 309.671C32.2639 309.869 32.4567 310.019 32.6811 310.101C32.9054 310.183 33.1497 310.192 33.3795 310.127C33.6092 310.062 33.8126 309.926 33.9607 309.739C34.1089 309.551 34.1942 309.322 34.2046 309.084C34.215 308.845 34.15 308.609 34.0188 308.41C33.8875 308.21 33.6967 308.057 33.4735 307.973C33.2504 307.888 33.0061 307.875 32.7755 307.937C32.5449 307.999 32.3398 308.132 32.1891 308.318C32.1585 308.359 32.1197 308.394 32.0752 308.42C32.0307 308.446 31.9814 308.462 31.9302 308.469C31.8791 308.475 31.8272 308.471 31.7777 308.456C31.7282 308.442 31.6822 308.418 31.6424 308.385C31.6027 308.352 31.57 308.312 31.5464 308.266C31.5228 308.22 31.5088 308.17 31.5052 308.118C31.5017 308.067 31.5086 308.015 31.5256 307.967C31.5426 307.918 31.5694 307.873 31.6042 307.835C31.8086 307.591 32.0711 307.403 32.3675 307.287C32.6639 307.171 32.9848 307.132 33.3004 307.173C33.616 307.214 33.9162 307.334 34.1733 307.521C34.4304 307.709 34.6361 307.958 34.7715 308.246C34.9069 308.534 34.9675 308.851 34.9478 309.169C34.9281 309.487 34.8288 309.794 34.6589 310.063C34.489 310.332 34.254 310.554 33.9757 310.709C33.6974 310.863 33.3847 310.945 33.0665 310.947L33.0789 310.931Z" fill="#F8DB4A"/>
<path d="M34.4044 308.682C34.3227 308.682 34.2431 308.655 34.1776 308.607C34.112 308.558 34.064 308.489 34.0406 308.411C34.0172 308.333 34.0196 308.249 34.0476 308.172C34.0756 308.095 34.1277 308.03 34.196 307.985L36.2089 306.666C36.2489 306.627 36.2969 306.598 36.3495 306.58C36.4021 306.563 36.4579 306.556 36.5131 306.563C36.5683 306.569 36.6214 306.587 36.6688 306.616C36.7162 306.645 36.7567 306.683 36.7875 306.73C36.8182 306.776 36.8384 306.828 36.8467 306.883C36.855 306.938 36.8512 306.994 36.8355 307.047C36.8197 307.101 36.7925 307.15 36.7557 307.191C36.719 307.233 36.6735 307.266 36.6227 307.288L34.6098 308.607C34.5502 308.652 34.4788 308.678 34.4044 308.682Z" fill="#F8DB4A"/>
<path d="M30.6337 315.489C30.5701 315.489 30.5073 315.473 30.4514 315.443C30.3955 315.412 30.3482 315.368 30.3138 315.314C30.2794 315.261 30.259 315.199 30.2546 315.136C30.2501 315.072 30.2618 315.009 30.2884 314.951L31.3026 312.745C31.3502 312.664 31.4258 312.604 31.5151 312.576C31.6043 312.548 31.7007 312.554 31.786 312.592C31.8712 312.631 31.9392 312.699 31.9769 312.785C32.0146 312.871 32.0193 312.967 31.9902 313.056L30.976 315.262C30.9467 315.329 30.8989 315.385 30.8382 315.426C30.7776 315.466 30.7066 315.488 30.6337 315.489Z" fill="#F8DB4A"/>
<path d="M42.4279 309.419H39.6808C39.5802 309.419 39.4836 309.379 39.4125 309.308C39.3413 309.237 39.3013 309.14 39.3013 309.039C39.3013 308.939 39.3413 308.842 39.4125 308.771C39.4836 308.7 39.5802 308.66 39.6808 308.66H42.4311C42.5317 308.66 42.6283 308.7 42.6994 308.771C42.7706 308.842 42.8106 308.939 42.8106 309.039C42.8106 309.14 42.7706 309.237 42.6994 309.308C42.6283 309.379 42.5317 309.419 42.4311 309.419H42.4279Z" fill="#F8DB4A"/>
<path d="M33.0788 302.817C32.9781 302.817 32.8816 302.777 32.8104 302.706C32.7392 302.635 32.6992 302.538 32.6992 302.438V299.691C32.6992 299.59 32.7392 299.493 32.8104 299.422C32.8816 299.351 32.9781 299.311 33.0788 299.311C33.1794 299.311 33.276 299.351 33.3472 299.422C33.4184 299.493 33.4583 299.59 33.4583 299.691V302.441C33.4575 302.541 33.4172 302.637 33.3461 302.707C33.275 302.778 33.1789 302.817 33.0788 302.817Z" fill="#F8DB4A"/>
<path d="M23.5465 303.3C23.4464 303.3 23.3503 303.26 23.2792 303.19C23.2082 303.119 23.1678 303.023 23.167 302.923V300.35C23.167 300.25 23.207 300.153 23.2782 300.082C23.3493 300.011 23.4459 299.971 23.5465 299.971H26.1163C26.217 299.971 26.3135 300.011 26.3847 300.082C26.4559 300.153 26.4959 300.25 26.4959 300.35C26.4959 300.451 26.4559 300.547 26.3847 300.619C26.3135 300.69 26.217 300.73 26.1163 300.73H23.9385V302.908C23.9403 302.96 23.9313 303.011 23.9122 303.06C23.8932 303.108 23.8643 303.152 23.8276 303.189C23.7908 303.225 23.7469 303.254 23.6986 303.273C23.6502 303.292 23.5985 303.301 23.5465 303.3Z" fill="#F8DB4A"/>
<path d="M25.6558 302.83C25.6056 302.833 25.5552 302.826 25.5076 302.809C25.4601 302.793 25.4163 302.767 25.3789 302.733L23.2789 300.618C23.2169 300.545 23.1845 300.452 23.1883 300.356C23.192 300.261 23.2316 300.17 23.2992 300.103C23.3667 300.035 23.4572 299.996 23.5526 299.992C23.648 299.988 23.7414 300.021 23.814 300.083L25.914 302.183C25.9663 302.235 26.002 302.302 26.0168 302.374C26.0317 302.447 26.0249 302.522 25.9975 302.591C25.97 302.66 25.923 302.719 25.8623 302.761C25.8016 302.804 25.7298 302.828 25.6558 302.83Z" fill="#F8DB4A"/>
</g>
<rect width="322" height="203" rx="12" fill="#AAAAB9" fill-opacity="0.1"/>
<g filter="url(#filter0_d_6_5899)">
<circle cx="161" cy="72" r="42" fill="url(#paint0_linear_6_5899)"/>
</g>
<mask id="mask0_6_5899" style="mask-type:alpha" maskUnits="userSpaceOnUse" x="119" y="30" width="84" height="84">
<circle cx="161" cy="72" r="42" fill="url(#paint1_linear_6_5899)"/>
</mask>
<g mask="url(#mask0_6_5899)">
<path d="M181.78 59.9805C185.84 65.1626 186.588 72.7489 183.65 78.6255" stroke="#313236" stroke-width="0.5"/>
<path d="M175.85 118.48V127.562H147.375V118.48L137.171 115.275C139.521 106.62 145.558 96.5229 160.998 96.5229C178.414 96.5229 184.131 106.674 185.84 115.382L175.85 118.48Z" fill="#313236" stroke="#313236" stroke-width="0.9" stroke-linecap="round" stroke-linejoin="round"/>
<path d="M170.08 97.5375C169.617 101.847 166.982 103.984 162.173 103.948C157.33 103.913 154.872 101.598 154.801 97.0032C159.502 96.1484 164.595 96.3265 170.08 97.5375Z" fill="white" stroke="#2C2E35"/>
<path d="M167.622 93.5308L167.569 94.5992L167.516 99.3006C167.088 101.081 165.343 101.972 162.28 101.972C159.537 101.972 157.97 101.081 157.579 99.3006L157.258 95.5075C159.662 95.3472 164.577 94.8664 167.622 93.5308Z" fill="white" stroke="#2C2E35"/>
<path d="M167.623 93.5308C164.577 94.8664 159.662 95.3472 157.258 95.5075L157.151 94.3322L156.884 91.0199L167.676 89.8979L167.623 93.5308Z" fill="#313236" stroke="#313236"/>
<path d="M176.705 61.2087C178.414 65.0018 179.269 67.8867 179.269 77.6634C179.269 85.2496 173.179 92.6756 163.883 93.2633C155.175 93.8509 146.093 90.3249 143.368 78.0908C140.697 65.8566 144.544 56.1334 155.656 53.4088C166.715 50.6841 174.675 56.7745 176.705 61.2087Z" fill="white" stroke="#2C2E35"/>
<path d="M141.124 80.8692C136.28 73.1049 134.998 67.0501 137.278 62.7049C139.522 58.3598 142.727 56.0982 146.894 55.9201C151.026 49.6872 158.327 47.3544 168.798 48.9215C179.269 50.453 183.864 54.2995 182.581 60.4611C186.428 66.3022 186.268 72.9268 182.101 80.3349L180.177 79.3733C176.366 75.598 174.443 71.4665 174.408 66.9789C171.024 63.4885 166.839 62.6159 161.853 64.3611C154.373 66.9789 153.252 66.1775 150.1 64.3611C145.434 77.8596 142.442 83.3623 141.124 80.8692Z" fill="#313236"/>
<path d="M139.949 77.9307C138.506 76.2211 137.331 74.191 136.583 72.0006C135.461 68.7951 135.301 65.0554 136.797 61.9568C138.293 58.9116 141.712 56.7212 144.971 57.4692" stroke="#313236" stroke-width="0.5"/>
<path d="M177.399 75.9541C181.78 74.387 184.077 75.8473 184.291 80.3349C184.558 85.7842 179.803 86.9061 176.918 84.9294" fill="white"/>
<path d="M177.399 75.9541C181.78 74.387 184.077 75.8473 184.291 80.3349C184.558 85.7842 179.803 86.9061 176.918 84.9294" stroke="#2C2E35"/>
<path d="M177.56 83.4336C177.56 83.3802 176.01 79.961 178.468 78.3583C179.323 77.7884 180.16 77.5926 180.979 77.7706C182.368 78.0378 183.223 79.3199 183.223 79.3734C183.276 79.4802 183.276 79.5336 183.169 79.5871C183.116 79.6405 183.062 79.5871 183.009 79.5336C183.009 79.5336 182.208 78.3049 180.925 77.9843C180.178 77.8419 179.412 78.0378 178.628 78.572C176.331 80.0679 177.773 83.2733 177.827 83.3267C177.827 83.3802 177.827 83.487 177.72 83.487C177.72 83.487 177.702 83.487 177.667 83.487C177.631 83.487 177.595 83.4692 177.56 83.4336Z" fill="#313236"/>
<path d="M180.925 80.8688C180.872 80.8154 178.842 79.3195 177.292 80.8154C177.239 80.8688 177.186 80.8688 177.132 80.8154C177.079 80.762 177.079 80.7085 177.132 80.6551C178.788 78.9455 181.032 80.6017 181.085 80.6551C181.139 80.6551 181.139 80.762 181.085 80.8154C181.05 80.851 181.014 80.8688 180.979 80.8688C180.943 80.8688 180.925 80.8688 180.925 80.8688Z" fill="#313236"/>
<path d="M162.761 84.2883C160.678 84.2883 160.464 82.5787 160.464 82.5253C160.464 82.4718 160.517 82.4184 160.571 82.4184C160.624 82.365 160.731 82.4184 160.731 82.5253C160.731 82.5787 160.945 84.1814 163.135 83.9677C163.189 83.9677 163.242 84.0211 163.295 84.128C163.295 84.1814 163.242 84.2348 163.135 84.2348C162.993 84.2705 162.868 84.2883 162.761 84.2883Z" fill="#313236"/>
<path d="M146.413 84.9828C143.475 87.2266 138.133 85.9444 138.453 80.3349C138.667 75.8473 140.964 74.387 145.345 75.9541" fill="white"/>
<path d="M146.413 84.9828C143.475 87.2266 138.133 85.9444 138.453 80.3349C138.667 75.8473 140.964 74.387 145.345 75.9541" stroke="#2C2E35"/>
<path d="M150.42 73.176C149.53 72.3925 150.028 71.5021 151.916 70.5048C154.747 69.0089 155.762 69.3295 156.19 70.0774C156.617 70.7719 155.976 71.787 154.373 72.5884C152.45 73.55 151.168 73.8706 150.42 73.176Z" fill="#313236"/>
<path d="M154.48 79.3733C155.218 79.3733 155.816 78.6318 155.816 77.7172C155.816 76.8025 155.218 76.061 154.48 76.061C153.743 76.061 153.145 76.8025 153.145 77.7172C153.145 78.6318 153.743 79.3733 154.48 79.3733Z" fill="#313236"/>
<path d="M169.599 72.5884C167.997 71.787 167.356 70.7719 167.783 70.0774C168.21 69.3295 169.225 69.0089 172.057 70.5048C173.944 71.5021 174.443 72.3925 173.553 73.176C172.805 73.8706 171.523 73.55 169.599 72.5884Z" fill="#313236"/>
<path d="M168.905 79.3733C169.642 79.3733 170.24 78.6318 170.24 77.7172C170.24 76.8025 169.642 76.061 168.905 76.061C168.167 76.061 167.569 76.8025 167.569 77.7172C167.569 78.6318 168.167 79.3733 168.905 79.3733Z" fill="#313236"/>
<path d="M145.078 83.487C145.042 83.487 145.024 83.487 145.024 83.487C144.917 83.487 144.917 83.3802 144.917 83.3267C144.971 83.2733 146.413 80.0679 144.116 78.572C143.332 78.0378 142.567 77.8419 141.819 77.9843C140.536 78.3049 139.735 79.5336 139.735 79.5336C139.682 79.5871 139.628 79.6405 139.575 79.5871C139.468 79.5336 139.468 79.4802 139.521 79.3734C139.521 79.3199 140.376 78.0378 141.765 77.7706C142.584 77.5926 143.421 77.7884 144.276 78.3583C146.734 79.961 145.184 83.3802 145.184 83.4336C145.149 83.4692 145.113 83.487 145.078 83.487Z" fill="#313236"/>
<path d="M141.765 80.8688C141.694 80.8688 141.658 80.851 141.658 80.8154C141.605 80.762 141.605 80.6551 141.658 80.6551C141.712 80.6017 143.956 78.9455 145.612 80.6551C145.665 80.7085 145.665 80.762 145.612 80.8154C145.558 80.8688 145.505 80.8688 145.452 80.8154C143.902 79.3195 141.872 80.8154 141.819 80.8688C141.819 80.8688 141.801 80.8688 141.765 80.8688Z" fill="#313236"/>
<path d="M163.189 81.0297C163.153 81.0297 163.117 80.9941 163.082 80.9229C163.028 80.8695 163.082 80.816 163.135 80.7626C163.135 80.7626 164.257 80.2818 164.738 79.3202C165.112 78.5722 164.952 77.3969 164.471 76.9161C164.15 76.649 163.776 76.5955 163.295 76.8627C163.26 76.8627 163.224 76.8627 163.189 76.8627C161.532 77.8243 160.838 77.3969 160.464 76.8627C159.876 75.901 160.41 68.2079 160.464 67.2997C160.464 67.2463 160.517 67.1929 160.624 67.1929C160.678 67.1929 160.731 67.2463 160.731 67.3531C160.571 69.7038 160.25 75.9544 160.678 76.7558C161.105 77.3613 161.906 77.3257 163.082 76.649C163.117 76.649 163.135 76.6312 163.135 76.5955C163.723 76.3284 164.257 76.3284 164.684 76.7024C165.219 77.29 165.379 78.5722 164.952 79.427C164.417 80.4955 163.295 80.9763 163.242 81.0297C163.242 81.0297 163.224 81.0297 163.189 81.0297Z" fill="#313236"/>
<path d="M146.467 56.9887C145.505 56.7216 144.704 55.9737 144.33 55.0655C144.17 54.5846 144.65 54.1038 145.131 54.3175C145.719 54.5846 146.2 55.1189 146.36 55.76C146.324 55.1545 146.271 54.549 146.2 53.9436C146.2 53.623 146.2 53.249 146.36 52.9819C146.627 52.6614 147.215 52.6614 147.535 52.9285C147.856 53.1956 148.016 53.623 148.016 54.0504C147.963 54.4778 147.856 54.9052 147.695 55.3326" fill="#313236"/>
<path d="M148.497 63.7197C149.405 65.643 151.489 66.7115 153.626 66.8718C155.709 67.032 157.793 66.4978 159.769 65.8033C161.746 65.1088 163.723 64.3608 165.806 64.0937C170.614 63.6129 175.529 66.2841 177.72 70.558" stroke="#313236" stroke-width="0.5"/>
</g>
<path d="M124.618 138.909H126.97V148.114C126.966 148.957 126.787 149.684 126.433 150.293C126.08 150.898 125.585 151.365 124.95 151.693C124.32 152.017 123.585 152.179 122.745 152.179C121.978 152.179 121.288 152.043 120.674 151.77C120.065 151.493 119.581 151.084 119.223 150.543C118.865 150.001 118.686 149.328 118.686 148.523H121.045C121.049 148.876 121.126 149.181 121.275 149.437C121.428 149.692 121.639 149.888 121.908 150.025C122.176 150.161 122.485 150.229 122.835 150.229C123.214 150.229 123.536 150.151 123.8 149.993C124.064 149.831 124.264 149.592 124.401 149.277C124.541 148.962 124.614 148.574 124.618 148.114V138.909ZM130.879 155.682C130.564 155.682 130.272 155.656 130.003 155.605C129.739 155.558 129.528 155.503 129.371 155.439L129.907 153.636C130.244 153.734 130.545 153.781 130.809 153.777C131.073 153.773 131.305 153.69 131.506 153.528C131.71 153.37 131.883 153.106 132.023 152.735L132.221 152.205L128.661 142.182H131.116L133.378 149.597H133.481L135.75 142.182H138.211L134.28 153.189C134.096 153.709 133.854 154.154 133.551 154.525C133.248 154.9 132.878 155.185 132.439 155.381C132.004 155.582 131.484 155.682 130.879 155.682ZM143.761 152.192C142.802 152.192 141.971 151.981 141.268 151.559C140.565 151.137 140.019 150.547 139.631 149.788C139.248 149.03 139.056 148.143 139.056 147.129C139.056 146.115 139.248 145.227 139.631 144.464C140.019 143.701 140.565 143.109 141.268 142.687C141.971 142.265 142.802 142.054 143.761 142.054C144.719 142.054 145.55 142.265 146.254 142.687C146.957 143.109 147.5 143.701 147.884 144.464C148.271 145.227 148.465 146.115 148.465 147.129C148.465 148.143 148.271 149.03 147.884 149.788C147.5 150.547 146.957 151.137 146.254 151.559C145.55 151.981 144.719 152.192 143.761 152.192ZM143.773 150.338C144.293 150.338 144.728 150.195 145.077 149.91C145.427 149.62 145.687 149.232 145.857 148.746C146.032 148.261 146.119 147.719 146.119 147.123C146.119 146.522 146.032 145.979 145.857 145.493C145.687 145.003 145.427 144.613 145.077 144.323C144.728 144.033 144.293 143.888 143.773 143.888C143.241 143.888 142.798 144.033 142.444 144.323C142.094 144.613 141.832 145.003 141.658 145.493C141.487 145.979 141.402 146.522 141.402 147.123C141.402 147.719 141.487 148.261 141.658 148.746C141.832 149.232 142.094 149.62 142.444 149.91C142.798 150.195 143.241 150.338 143.773 150.338ZM155.332 142.182V143.972H149.688V142.182H155.332ZM151.081 139.83H153.395V149.047C153.395 149.358 153.442 149.597 153.536 149.763C153.634 149.925 153.762 150.036 153.919 150.095C154.077 150.155 154.252 150.185 154.443 150.185C154.588 150.185 154.72 150.174 154.84 150.153C154.963 150.131 155.057 150.112 155.121 150.095L155.511 151.904C155.387 151.947 155.21 151.994 154.98 152.045C154.754 152.096 154.477 152.126 154.149 152.134C153.57 152.151 153.048 152.064 152.583 151.872C152.119 151.676 151.75 151.374 151.477 150.964C151.209 150.555 151.077 150.044 151.081 149.43V139.83ZM157.267 152V142.182H159.581V152H157.267ZM158.43 140.788C158.064 140.788 157.749 140.667 157.484 140.424C157.22 140.177 157.088 139.881 157.088 139.536C157.088 139.186 157.22 138.89 157.484 138.647C157.749 138.4 158.064 138.276 158.43 138.276C158.801 138.276 159.116 138.4 159.376 138.647C159.641 138.89 159.773 139.186 159.773 139.536C159.773 139.881 159.641 140.177 159.376 140.424C159.116 140.667 158.801 140.788 158.43 140.788ZM173.642 142.508C173.582 141.95 173.331 141.515 172.888 141.204C172.449 140.893 171.878 140.737 171.175 140.737C170.68 140.737 170.256 140.812 169.903 140.961C169.549 141.11 169.278 141.312 169.091 141.568C168.903 141.824 168.807 142.116 168.803 142.444C168.803 142.717 168.865 142.953 168.988 143.153C169.116 143.354 169.289 143.524 169.506 143.665C169.724 143.801 169.964 143.916 170.229 144.01C170.493 144.104 170.759 144.183 171.028 144.246L172.255 144.553C172.749 144.668 173.224 144.824 173.68 145.02C174.14 145.216 174.552 145.463 174.914 145.761C175.28 146.06 175.57 146.42 175.783 146.842C175.996 147.263 176.103 147.758 176.103 148.325C176.103 149.092 175.907 149.767 175.515 150.351C175.123 150.93 174.556 151.384 173.814 151.712C173.077 152.036 172.184 152.198 171.136 152.198C170.118 152.198 169.233 152.04 168.483 151.725C167.738 151.41 167.154 150.95 166.732 150.344C166.314 149.739 166.089 149.002 166.055 148.133H168.388C168.422 148.589 168.562 148.968 168.809 149.271C169.057 149.573 169.378 149.799 169.775 149.948C170.175 150.097 170.623 150.172 171.117 150.172C171.633 150.172 172.084 150.095 172.472 149.942C172.864 149.784 173.171 149.567 173.393 149.29C173.614 149.009 173.727 148.68 173.731 148.305C173.727 147.964 173.627 147.683 173.431 147.462C173.235 147.236 172.96 147.048 172.606 146.899C172.257 146.746 171.848 146.609 171.379 146.49L169.89 146.107C168.812 145.83 167.959 145.41 167.333 144.847C166.711 144.281 166.4 143.528 166.4 142.591C166.4 141.82 166.608 141.144 167.026 140.565C167.448 139.985 168.021 139.536 168.746 139.216C169.47 138.892 170.29 138.73 171.206 138.73C172.135 138.73 172.949 138.892 173.648 139.216C174.351 139.536 174.903 139.981 175.304 140.552C175.704 141.119 175.911 141.771 175.924 142.508H173.642ZM178.115 152V142.182H180.429V152H178.115ZM179.278 140.788C178.912 140.788 178.596 140.667 178.332 140.424C178.068 140.177 177.936 139.881 177.936 139.536C177.936 139.186 178.068 138.89 178.332 138.647C178.596 138.4 178.912 138.276 179.278 138.276C179.649 138.276 179.964 138.4 180.224 138.647C180.488 138.89 180.62 139.186 180.62 139.536C180.62 139.881 180.488 140.177 180.224 140.424C179.964 140.667 179.649 140.788 179.278 140.788ZM185.122 146.247V152H182.808V142.182H185.02V143.85H185.135C185.361 143.3 185.721 142.864 186.215 142.54C186.714 142.216 187.329 142.054 188.062 142.054C188.74 142.054 189.33 142.199 189.833 142.489C190.34 142.778 190.732 143.198 191.009 143.748C191.29 144.298 191.429 144.964 191.425 145.749V152H189.111V146.107C189.111 145.45 188.94 144.937 188.599 144.566C188.263 144.195 187.796 144.01 187.199 144.01C186.795 144.01 186.434 144.099 186.119 144.278C185.808 144.453 185.563 144.707 185.384 145.039C185.209 145.371 185.122 145.774 185.122 146.247ZM198.047 155.886C197.216 155.886 196.502 155.773 195.905 155.548C195.309 155.326 194.829 155.028 194.467 154.653C194.105 154.278 193.854 153.862 193.713 153.406L195.797 152.901C195.89 153.093 196.027 153.283 196.206 153.47C196.385 153.662 196.626 153.82 196.928 153.943C197.235 154.071 197.621 154.135 198.085 154.135C198.741 154.135 199.285 153.975 199.715 153.656C200.145 153.34 200.361 152.82 200.361 152.096V150.236H200.246C200.126 150.474 199.952 150.719 199.721 150.971C199.496 151.222 199.195 151.433 198.82 151.604C198.449 151.774 197.983 151.859 197.42 151.859C196.666 151.859 195.982 151.683 195.368 151.329C194.759 150.971 194.273 150.438 193.911 149.731C193.553 149.019 193.374 148.129 193.374 147.059C193.374 145.981 193.553 145.071 193.911 144.33C194.273 143.584 194.761 143.019 195.375 142.636C195.988 142.248 196.672 142.054 197.427 142.054C198.002 142.054 198.475 142.152 198.846 142.348C199.221 142.54 199.519 142.772 199.741 143.045C199.962 143.313 200.131 143.567 200.246 143.805H200.373V142.182H202.655V152.16C202.655 152.999 202.455 153.694 202.055 154.244C201.654 154.793 201.106 155.205 200.412 155.477C199.717 155.75 198.929 155.886 198.047 155.886ZM198.066 150.044C198.556 150.044 198.974 149.925 199.319 149.686C199.664 149.447 199.926 149.104 200.105 148.657C200.284 148.21 200.373 147.673 200.373 147.046C200.373 146.428 200.284 145.887 200.105 145.423C199.93 144.958 199.67 144.598 199.325 144.342C198.984 144.082 198.564 143.952 198.066 143.952C197.55 143.952 197.12 144.087 196.775 144.355C196.43 144.624 196.17 144.992 195.995 145.461C195.82 145.925 195.733 146.454 195.733 147.046C195.733 147.647 195.82 148.173 195.995 148.625C196.174 149.072 196.436 149.422 196.781 149.673C197.131 149.92 197.559 150.044 198.066 150.044Z" fill="#AAAAB9" fill-opacity="0.7"/>
<path d="M111.416 170.062V174H110.411V165.273H111.416V168.477H111.502C111.655 168.139 111.885 167.871 112.192 167.672C112.502 167.47 112.914 167.369 113.428 167.369C113.874 167.369 114.264 167.459 114.6 167.638C114.935 167.814 115.195 168.085 115.379 168.452C115.567 168.815 115.661 169.278 115.661 169.841V174H114.655V169.909C114.655 169.389 114.52 168.987 114.25 168.703C113.983 168.416 113.612 168.273 113.138 168.273C112.808 168.273 112.513 168.342 112.252 168.482C111.993 168.621 111.789 168.824 111.638 169.091C111.49 169.358 111.416 169.682 111.416 170.062ZM120.245 174.136C119.614 174.136 119.07 173.997 118.613 173.719C118.158 173.438 117.807 173.045 117.56 172.543C117.316 172.037 117.194 171.449 117.194 170.778C117.194 170.108 117.316 169.517 117.56 169.006C117.807 168.491 118.151 168.091 118.591 167.804C119.035 167.514 119.552 167.369 120.143 167.369C120.483 167.369 120.82 167.426 121.153 167.54C121.485 167.653 121.787 167.838 122.06 168.094C122.333 168.347 122.55 168.682 122.712 169.099C122.874 169.517 122.955 170.031 122.955 170.642V171.068H117.91V170.199H121.932C121.932 169.83 121.858 169.5 121.711 169.21C121.566 168.92 121.358 168.692 121.089 168.524C120.822 168.357 120.506 168.273 120.143 168.273C119.742 168.273 119.395 168.372 119.103 168.571C118.813 168.767 118.59 169.023 118.434 169.338C118.278 169.653 118.199 169.991 118.199 170.352V170.932C118.199 171.426 118.285 171.845 118.455 172.189C118.628 172.53 118.868 172.79 119.175 172.969C119.482 173.145 119.839 173.233 120.245 173.233C120.509 173.233 120.748 173.196 120.961 173.122C121.177 173.045 121.363 172.932 121.519 172.781C121.675 172.628 121.796 172.437 121.881 172.21L122.853 172.483C122.751 172.812 122.579 173.102 122.337 173.352C122.096 173.599 121.797 173.793 121.442 173.932C121.087 174.068 120.688 174.136 120.245 174.136ZM125.491 165.273V174H124.485V165.273H125.491ZM128.338 165.273V174H127.333V165.273H128.338ZM132.839 174.136C132.248 174.136 131.73 173.996 131.284 173.714C130.841 173.433 130.494 173.04 130.244 172.534C129.997 172.028 129.873 171.437 129.873 170.761C129.873 170.08 129.997 169.484 130.244 168.976C130.494 168.467 130.841 168.072 131.284 167.791C131.73 167.51 132.248 167.369 132.839 167.369C133.43 167.369 133.947 167.51 134.39 167.791C134.836 168.072 135.183 168.467 135.43 168.976C135.68 169.484 135.805 170.08 135.805 170.761C135.805 171.437 135.68 172.028 135.43 172.534C135.183 173.04 134.836 173.433 134.39 173.714C133.947 173.996 133.43 174.136 132.839 174.136ZM132.839 173.233C133.288 173.233 133.657 173.118 133.947 172.888C134.237 172.658 134.452 172.355 134.591 171.98C134.73 171.605 134.8 171.199 134.8 170.761C134.8 170.324 134.73 169.916 134.591 169.538C134.452 169.161 134.237 168.855 133.947 168.622C133.657 168.389 133.288 168.273 132.839 168.273C132.39 168.273 132.021 168.389 131.731 168.622C131.442 168.855 131.227 169.161 131.088 169.538C130.949 169.916 130.879 170.324 130.879 170.761C130.879 171.199 130.949 171.605 131.088 171.98C131.227 172.355 131.442 172.658 131.731 172.888C132.021 173.118 132.39 173.233 132.839 173.233ZM142.369 176.301C141.499 176.301 140.731 176.182 140.063 175.943C139.396 175.707 138.835 175.359 138.38 174.899C137.926 174.439 137.582 173.875 137.349 173.207C137.116 172.54 136.999 171.776 136.999 170.915C136.999 170.082 137.117 169.338 137.353 168.682C137.592 168.026 137.937 167.469 138.389 167.011C138.843 166.551 139.394 166.2 140.042 165.959C140.693 165.717 141.428 165.597 142.249 165.597C143.048 165.597 143.747 165.727 144.346 165.989C144.948 166.247 145.451 166.598 145.855 167.041C146.261 167.482 146.565 167.977 146.767 168.528C146.971 169.08 147.073 169.648 147.073 170.233C147.073 170.645 147.053 171.062 147.014 171.486C146.974 171.909 146.89 172.298 146.762 172.653C146.634 173.006 146.437 173.29 146.17 173.506C145.906 173.722 145.548 173.83 145.096 173.83C144.897 173.83 144.678 173.798 144.44 173.736C144.201 173.673 143.99 173.57 143.805 173.425C143.62 173.28 143.511 173.085 143.477 172.841H143.426C143.357 173.006 143.252 173.162 143.11 173.31C142.971 173.457 142.788 173.575 142.561 173.663C142.336 173.751 142.062 173.79 141.738 173.778C141.369 173.764 141.044 173.682 140.762 173.531C140.481 173.378 140.245 173.17 140.055 172.909C139.867 172.645 139.725 172.339 139.629 171.993C139.535 171.643 139.488 171.267 139.488 170.864C139.488 170.48 139.545 170.129 139.659 169.811C139.772 169.493 139.93 169.214 140.132 168.976C140.336 168.737 140.575 168.547 140.847 168.405C141.123 168.26 141.42 168.17 141.738 168.136C142.022 168.108 142.281 168.121 142.514 168.175C142.747 168.226 142.938 168.304 143.089 168.409C143.24 168.511 143.335 168.625 143.374 168.75H143.426V168.273H144.329V172.125C144.329 172.364 144.396 172.574 144.529 172.756C144.663 172.937 144.857 173.028 145.113 173.028C145.403 173.028 145.624 172.929 145.778 172.73C145.934 172.531 146.041 172.224 146.097 171.81C146.157 171.395 146.187 170.864 146.187 170.216C146.187 169.835 146.134 169.46 146.029 169.091C145.927 168.719 145.771 168.371 145.561 168.047C145.353 167.723 145.09 167.437 144.772 167.19C144.454 166.943 144.08 166.75 143.651 166.611C143.225 166.469 142.741 166.398 142.198 166.398C141.531 166.398 140.933 166.501 140.404 166.709C139.879 166.913 139.431 167.213 139.062 167.608C138.695 168 138.416 168.477 138.222 169.04C138.032 169.599 137.937 170.236 137.937 170.949C137.937 171.673 138.032 172.317 138.222 172.879C138.416 173.442 138.7 173.916 139.075 174.303C139.453 174.689 139.92 174.982 140.477 175.18C141.034 175.382 141.676 175.483 142.403 175.483C142.715 175.483 143.024 175.453 143.328 175.393C143.632 175.334 143.9 175.268 144.133 175.197C144.366 175.126 144.534 175.074 144.636 175.04L144.874 175.824C144.698 175.898 144.468 175.972 144.184 176.045C143.903 176.119 143.602 176.18 143.281 176.229C142.963 176.277 142.659 176.301 142.369 176.301ZM141.874 172.909C142.255 172.909 142.563 172.832 142.799 172.679C143.035 172.526 143.207 172.294 143.315 171.984C143.423 171.675 143.477 171.284 143.477 170.812C143.477 170.335 143.417 169.963 143.298 169.696C143.178 169.429 143.002 169.241 142.769 169.134C142.536 169.026 142.249 168.972 141.909 168.972C141.585 168.972 141.308 169.057 141.078 169.227C140.85 169.395 140.676 169.619 140.553 169.901C140.434 170.179 140.374 170.483 140.374 170.812C140.374 171.176 140.423 171.518 140.519 171.839C140.616 172.158 140.774 172.416 140.992 172.615C141.211 172.811 141.505 172.909 141.874 172.909ZM148.579 167.455H149.584V174.477C149.584 174.881 149.515 175.23 149.376 175.526C149.239 175.821 149.032 176.05 148.753 176.212C148.478 176.374 148.13 176.455 147.709 176.455C147.675 176.455 147.641 176.455 147.607 176.455C147.573 176.455 147.539 176.455 147.505 176.455V175.517C147.539 175.517 147.57 175.517 147.599 175.517C147.627 175.517 147.658 175.517 147.692 175.517C147.999 175.517 148.224 175.426 148.366 175.244C148.508 175.065 148.579 174.81 148.579 174.477V167.455ZM149.073 166.364C148.877 166.364 148.708 166.297 148.566 166.163C148.427 166.03 148.357 165.869 148.357 165.682C148.357 165.494 148.427 165.334 148.566 165.2C148.708 165.067 148.877 165 149.073 165C149.269 165 149.437 165.067 149.576 165.2C149.718 165.334 149.789 165.494 149.789 165.682C149.789 165.869 149.718 166.03 149.576 166.163C149.437 166.297 149.269 166.364 149.073 166.364ZM152.074 176.455C151.904 176.455 151.752 176.44 151.618 176.412C151.485 176.386 151.392 176.361 151.341 176.335L151.597 175.449C151.841 175.511 152.057 175.534 152.244 175.517C152.432 175.5 152.598 175.416 152.743 175.266C152.891 175.118 153.026 174.878 153.148 174.545L153.335 174.034L150.915 167.455H152.006L153.813 172.67H153.881L155.688 167.455H156.779L154 174.955C153.875 175.293 153.72 175.572 153.536 175.794C153.351 176.018 153.137 176.185 152.892 176.293C152.651 176.401 152.378 176.455 152.074 176.455ZM160.531 174.136C159.94 174.136 159.421 173.996 158.975 173.714C158.532 173.433 158.186 173.04 157.936 172.534C157.688 172.028 157.565 171.437 157.565 170.761C157.565 170.08 157.688 169.484 157.936 168.976C158.186 168.467 158.532 168.072 158.975 167.791C159.421 167.51 159.94 167.369 160.531 167.369C161.122 167.369 161.639 167.51 162.082 167.791C162.528 168.072 162.874 168.467 163.122 168.976C163.372 169.484 163.497 170.08 163.497 170.761C163.497 171.437 163.372 172.028 163.122 172.534C162.874 173.04 162.528 173.433 162.082 173.714C161.639 173.996 161.122 174.136 160.531 174.136ZM160.531 173.233C160.98 173.233 161.349 173.118 161.639 172.888C161.928 172.658 162.143 172.355 162.282 171.98C162.421 171.605 162.491 171.199 162.491 170.761C162.491 170.324 162.421 169.916 162.282 169.538C162.143 169.161 161.928 168.855 161.639 168.622C161.349 168.389 160.98 168.273 160.531 168.273C160.082 168.273 159.713 168.389 159.423 168.622C159.133 168.855 158.919 169.161 158.779 169.538C158.64 169.916 158.57 170.324 158.57 170.761C158.57 171.199 158.64 171.605 158.779 171.98C158.919 172.355 159.133 172.658 159.423 172.888C159.713 173.118 160.082 173.233 160.531 173.233ZM167.878 167.455V168.307H164.486V167.455H167.878ZM165.475 165.886H166.481V172.125C166.481 172.409 166.522 172.622 166.604 172.764C166.689 172.903 166.797 172.997 166.928 173.045C167.062 173.091 167.202 173.114 167.35 173.114C167.461 173.114 167.552 173.108 167.623 173.097C167.694 173.082 167.751 173.071 167.793 173.062L167.998 173.966C167.93 173.991 167.834 174.017 167.712 174.043C167.59 174.071 167.435 174.085 167.248 174.085C166.964 174.085 166.685 174.024 166.412 173.902C166.143 173.78 165.918 173.594 165.739 173.344C165.563 173.094 165.475 172.778 165.475 172.398V165.886ZM169.391 174V167.455H170.397V174H169.391ZM169.903 166.364C169.706 166.364 169.537 166.297 169.395 166.163C169.256 166.03 169.187 165.869 169.187 165.682C169.187 165.494 169.256 165.334 169.395 165.2C169.537 165.067 169.706 165 169.903 165C170.099 165 170.266 165.067 170.405 165.2C170.547 165.334 170.618 165.494 170.618 165.682C170.618 165.869 170.547 166.03 170.405 166.163C170.266 166.297 170.099 166.364 169.903 166.364ZM172.972 174.068C172.762 174.068 172.581 173.993 172.431 173.842C172.28 173.692 172.205 173.511 172.205 173.301C172.205 173.091 172.28 172.911 172.431 172.76C172.581 172.609 172.762 172.534 172.972 172.534C173.182 172.534 173.362 172.609 173.513 172.76C173.664 172.911 173.739 173.091 173.739 173.301C173.739 173.44 173.703 173.568 173.632 173.685C173.564 173.801 173.472 173.895 173.355 173.966C173.242 174.034 173.114 174.068 172.972 174.068ZM178.015 174.136C177.47 174.136 176.988 173.999 176.57 173.723C176.153 173.445 175.826 173.053 175.59 172.547C175.355 172.038 175.237 171.438 175.237 170.744C175.237 170.057 175.355 169.46 175.59 168.955C175.826 168.449 176.154 168.058 176.575 167.783C176.995 167.507 177.481 167.369 178.032 167.369C178.458 167.369 178.795 167.44 179.042 167.582C179.292 167.722 179.482 167.881 179.613 168.06C179.747 168.236 179.85 168.381 179.924 168.494H180.009V165.273H181.015V174H180.044V172.994H179.924C179.85 173.114 179.745 173.264 179.609 173.446C179.472 173.625 179.278 173.786 179.025 173.928C178.772 174.067 178.436 174.136 178.015 174.136ZM178.151 173.233C178.555 173.233 178.896 173.128 179.174 172.918C179.453 172.705 179.664 172.411 179.809 172.036C179.954 171.658 180.026 171.222 180.026 170.727C180.026 170.239 179.955 169.811 179.813 169.445C179.671 169.075 179.461 168.788 179.183 168.584C178.904 168.376 178.561 168.273 178.151 168.273C177.725 168.273 177.37 168.382 177.086 168.601C176.805 168.817 176.593 169.111 176.451 169.483C176.312 169.852 176.242 170.267 176.242 170.727C176.242 171.193 176.313 171.616 176.455 171.997C176.6 172.375 176.813 172.676 177.095 172.901C177.379 173.122 177.731 173.233 178.151 173.233ZM185.741 174.136C185.11 174.136 184.566 173.997 184.109 173.719C183.654 173.438 183.303 173.045 183.056 172.543C182.812 172.037 182.69 171.449 182.69 170.778C182.69 170.108 182.812 169.517 183.056 169.006C183.303 168.491 183.647 168.091 184.088 167.804C184.531 167.514 185.048 167.369 185.639 167.369C185.98 167.369 186.316 167.426 186.649 167.54C186.981 167.653 187.284 167.838 187.556 168.094C187.829 168.347 188.046 168.682 188.208 169.099C188.37 169.517 188.451 170.031 188.451 170.642V171.068H183.406V170.199H187.428C187.428 169.83 187.355 169.5 187.207 169.21C187.062 168.92 186.855 168.692 186.585 168.524C186.318 168.357 186.002 168.273 185.639 168.273C185.238 168.273 184.892 168.372 184.599 168.571C184.309 168.767 184.086 169.023 183.93 169.338C183.774 169.653 183.695 169.991 183.695 170.352V170.932C183.695 171.426 183.781 171.845 183.951 172.189C184.124 172.53 184.365 172.79 184.671 172.969C184.978 173.145 185.335 173.233 185.741 173.233C186.005 173.233 186.244 173.196 186.457 173.122C186.673 173.045 186.859 172.932 187.015 172.781C187.171 172.628 187.292 172.437 187.377 172.21L188.349 172.483C188.247 172.812 188.075 173.102 187.833 173.352C187.592 173.599 187.294 173.793 186.938 173.932C186.583 174.068 186.184 174.136 185.741 174.136ZM194.617 168.92L193.714 169.176C193.657 169.026 193.573 168.879 193.463 168.737C193.355 168.592 193.207 168.473 193.019 168.379C192.832 168.286 192.592 168.239 192.299 168.239C191.899 168.239 191.565 168.331 191.298 168.516C191.034 168.697 190.901 168.929 190.901 169.21C190.901 169.46 190.992 169.658 191.174 169.803C191.356 169.947 191.64 170.068 192.026 170.165L192.998 170.403C193.583 170.545 194.019 170.763 194.306 171.055C194.593 171.345 194.737 171.719 194.737 172.176C194.737 172.551 194.629 172.886 194.413 173.182C194.2 173.477 193.901 173.71 193.518 173.881C193.134 174.051 192.688 174.136 192.18 174.136C191.512 174.136 190.96 173.991 190.522 173.702C190.085 173.412 189.808 172.989 189.691 172.432L190.646 172.193C190.737 172.545 190.909 172.81 191.161 172.986C191.417 173.162 191.751 173.25 192.163 173.25C192.632 173.25 193.004 173.151 193.279 172.952C193.558 172.75 193.697 172.509 193.697 172.227C193.697 172 193.617 171.81 193.458 171.656C193.299 171.5 193.055 171.384 192.725 171.307L191.634 171.051C191.035 170.909 190.595 170.689 190.313 170.391C190.035 170.089 189.896 169.713 189.896 169.261C189.896 168.892 189.999 168.565 190.207 168.281C190.417 167.997 190.703 167.774 191.063 167.612C191.427 167.45 191.839 167.369 192.299 167.369C192.947 167.369 193.455 167.511 193.825 167.795C194.197 168.08 194.461 168.455 194.617 168.92ZM196.251 174V167.455H197.256V174H196.251ZM196.762 166.364C196.566 166.364 196.397 166.297 196.255 166.163C196.116 166.03 196.046 165.869 196.046 165.682C196.046 165.494 196.116 165.334 196.255 165.2C196.397 165.067 196.566 165 196.762 165C196.958 165 197.126 165.067 197.265 165.2C197.407 165.334 197.478 165.494 197.478 165.682C197.478 165.869 197.407 166.03 197.265 166.163C197.126 166.297 196.958 166.364 196.762 166.364ZM201.74 176.591C201.254 176.591 200.837 176.528 200.487 176.403C200.138 176.281 199.847 176.119 199.614 175.918C199.384 175.719 199.2 175.506 199.064 175.278L199.865 174.716C199.956 174.835 200.071 174.972 200.21 175.125C200.35 175.281 200.54 175.416 200.781 175.53C201.026 175.646 201.345 175.705 201.74 175.705C202.269 175.705 202.705 175.577 203.048 175.321C203.392 175.065 203.564 174.665 203.564 174.119V172.79H203.479C203.405 172.909 203.3 173.057 203.164 173.233C203.03 173.406 202.837 173.561 202.584 173.697C202.334 173.831 201.996 173.898 201.57 173.898C201.041 173.898 200.567 173.773 200.146 173.523C199.729 173.273 199.398 172.909 199.154 172.432C198.912 171.955 198.791 171.375 198.791 170.693C198.791 170.023 198.909 169.439 199.145 168.942C199.381 168.442 199.709 168.055 200.129 167.783C200.55 167.507 201.036 167.369 201.587 167.369C202.013 167.369 202.351 167.44 202.601 167.582C202.854 167.722 203.047 167.881 203.181 168.06C203.317 168.236 203.422 168.381 203.496 168.494H203.598V167.455H204.57V174.188C204.57 174.75 204.442 175.207 204.186 175.56C203.933 175.915 203.593 176.175 203.164 176.339C202.737 176.507 202.263 176.591 201.74 176.591ZM201.706 172.994C202.11 172.994 202.45 172.902 202.729 172.717C203.007 172.533 203.219 172.267 203.364 171.92C203.509 171.574 203.581 171.159 203.581 170.676C203.581 170.205 203.51 169.788 203.368 169.428C203.226 169.067 203.016 168.784 202.737 168.58C202.459 168.375 202.115 168.273 201.706 168.273C201.28 168.273 200.925 168.381 200.641 168.597C200.36 168.812 200.148 169.102 200.006 169.466C199.867 169.83 199.797 170.233 199.797 170.676C199.797 171.131 199.868 171.533 200.01 171.882C200.155 172.229 200.368 172.501 200.649 172.7C200.933 172.896 201.286 172.994 201.706 172.994ZM207.416 170.062V174H206.411V167.455H207.382V168.477H207.468C207.621 168.145 207.854 167.878 208.166 167.676C208.479 167.472 208.882 167.369 209.377 167.369C209.82 167.369 210.208 167.46 210.54 167.642C210.872 167.821 211.131 168.094 211.316 168.46C211.5 168.824 211.593 169.284 211.593 169.841V174H210.587V169.909C210.587 169.395 210.453 168.994 210.186 168.707C209.919 168.418 209.553 168.273 209.087 168.273C208.766 168.273 208.479 168.342 208.226 168.482C207.976 168.621 207.779 168.824 207.634 169.091C207.489 169.358 207.416 169.682 207.416 170.062Z" fill="#AAAAB9" fill-opacity="0.5"/>
<defs>
<filter id="filter0_d_6_5899" x="99" y="30" width="124" height="124" filterUnits="userSpaceOnUse" color-interpolation-filters="sRGB">
<feFlood flood-opacity="0" result="BackgroundImageFix"/>
<feColorMatrix in="SourceAlpha" type="matrix" values="0 0 0 0 0 0 0 0 0 0 0 0 0 0 0 0 0 0 127 0" result="hardAlpha"/>
<feOffset dy="20"/>
<feGaussianBlur stdDeviation="10"/>
<feComposite in2="hardAlpha" operator="out"/>
<feColorMatrix type="matrix" values="0 0 0 0 0.945098 0 0 0 0 0.67451 0 0 0 0 0.239216 0 0 0 0.2 0"/>
<feBlend mode="normal" in2="BackgroundImageFix" result="effect1_dropShadow_6_5899"/>
<feBlend mode="normal" in="SourceGraphic" in2="effect1_dropShadow_6_5899" result="shape"/>
</filter>
<linearGradient id="paint0_linear_6_5899" x1="161" y1="30" x2="161" y2="114" gradientUnits="userSpaceOnUse">
<stop stop-color="#F5DA90"/>
<stop offset="1" stop-color="#F1AC3D"/>
</linearGradient>
<linearGradient id="paint1_linear_6_5899" x1="161" y1="30" x2="161" y2="114" gradientUnits="userSpaceOnUse">
<stop stop-color="#F5DA90"/>
<stop offset="1" stop-color="#F1AC3D"/>
</linearGradient>
<clipPath id="clip0_6_5899">
<rect width="28" height="28" fill="white" transform="translate(20 229)"/>
</clipPath>
<clipPath id="clip1_6_5899">
<rect width="28" height="28" fill="white" transform="translate(20 299)"/>
</clipPath>
</defs>
</svg>
